<?xml version="1.0" standalone="no"?>
<!DOCTYPE svg PUBLIC "-//W3C//DTD SVG 1.1//EN" "http://www.w3.org/Graphics/SVG/1.1/DTD/svg11.dtd" >
<svg xmlns="http://www.w3.org/2000/svg">
<metadata></metadata>
<defs>
<font id="911_porscha_italicitalic" horiz-adv-x="2027" >
<font-face units-per-em="2048" ascent="1638" descent="-410" />
<missing-glyph horiz-adv-x="1165" />
<glyph horiz-adv-x="0" />
<glyph unicode="&#xd;" horiz-adv-x="1024" />
<glyph unicode=" "  horiz-adv-x="1165" />
<glyph unicode="&#x09;" horiz-adv-x="1165" />
<glyph unicode="&#xa0;" horiz-adv-x="1165" />
<glyph unicode="!" horiz-adv-x="423" d="M102 0h220l88 217h-220zM229 313h220l274 680h-219z" />
<glyph unicode="&#x22;" horiz-adv-x="745" d="M348 608h219l156 385h-219zM670 608h219l155 385h-219z" />
<glyph unicode="#" horiz-adv-x="1996" d="M174 178h377l-72 -178h217l72 178h612l-71 -178h217l71 178h369l88 217h-368l81 203h369l88 217h-369l72 178h-217l-72 -178h-612l72 178h-217l-72 -178h-377l-88 -217h377l-82 -203h-377zM856 395l82 203h612l-82 -203h-612z" />
<glyph unicode="$" d="M102 0h531l-78 -193h219l78 193h324l-78 -193h219l78 193h325q41 0 84 14.5t82 42t72 67.5t55 93l68 170q41 100 4 159.5t-119 59.5h-326l68 170h530l89 217h-531l78 193h-219l-78 -193h-324l78 193h-219l-78 -193h-325q-41 0 -84 -14t-82 -42t-73 -69t-54 -92l-68 -170 q-43 -104 -4 -160.5t121 -56.5h326l-70 -172h-531zM598 624.5q-16 18.5 0 59.5l8 18q16 43 42 58.5t63 15.5h235l-67 -170h-234q-31 0 -47 18.5zM940 217l70 172h323l-69 -172h-324zM1098 606l67 170h324l-68 -170h-323zM1483 217l69 172h236q37 0 49 -16.5t-4 -59.5l-8 -18 q-16 -41 -47 -59.5t-62 -18.5h-233z" />
<glyph unicode="%" horiz-adv-x="2408" d="M346.5 525.5q-20.5 27.5 1.5 80.5l113 279q23 53 64.5 80.5t82.5 27.5h705q41 0 60.5 -28.5t-1.5 -79.5l-112 -279q-23 -53 -65 -80.5t-83 -27.5h-704q-41 0 -61.5 27.5zM549 702q-18 -45 16 -45h516q39 0 58 45l35 86q18 45 -23 46h-514q-35 0 -53 -46zM657 0l1219 993 h262l-1214 -993h-267zM1436.5 27.5q-21.5 27.5 1.5 81.5l112 278q23 53 66 81t84 28h704q41 0 60.5 -29t-2.5 -80l-113 -278q-23 -53 -63.5 -81t-81.5 -28h-705q-41 0 -62.5 27.5zM1636 205q-18 -45 19 -45h518q37 0 55 45l35 86q18 45 -20 45h-517q-37 0 -55 -45z" />
<glyph unicode="&#x26;" horiz-adv-x="2111" d="M186 56.5q39 -56.5 121 -56.5h1329q41 0 84 14.5t82 42t72 67.5t55 93l70 172h168l88 217h-1610q-31 0 -47 18.5t0 59.5l8 18q16 43 42 58.5t63 15.5h1181l88 217h-1271q-41 0 -84 -14t-82 -42t-73 -69t-54 -92l-62 -151q-12 -33 -10 -67t16 -62q-35 -23 -65.5 -60 t-42.5 -67l-62 -152q-43 -104 -4 -160.5zM440 235.5q-16 18.5 0 59.5l9 18q16 41 38.5 56.5t57.5 19.5h1235l-39 -94q-16 -41 -47 -59.5t-62 -18.5h-1145q-31 0 -47 18.5z" />
<glyph unicode="'" horiz-adv-x="423" d="M348 608h219l156 385h-219z" />
<glyph unicode="(" horiz-adv-x="831" d="M110 -25.5q1 -40.5 19 -68t49 -42t72 -14.5h420l86 218h-336q-31 0 -40 25.5t7 66.5l270 671q16 41 44 67t69 26h332l88 217h-420q-41 0 -84 -14.5t-83 -42t-73.5 -68.5t-54.5 -92l-346 -856q-20 -53 -19 -93.5z" />
<glyph unicode=")" horiz-adv-x="831" d="M43 -150l86 218h336q31 0 62.5 25.5t47.5 66.5l271 671q16 41 9 67t-48 26h-332l88 217h420q80 0 121 -56.5t-2 -160.5l-346 -856q-20 -53 -54 -93.5t-74 -68t-83 -42t-82 -14.5h-420z" />
<glyph unicode="*" horiz-adv-x="501" d="M461 860l80 -63l55 57l14 -57l121 63l-49 55l94 17l12 98l-92 -31l39 72h-108l-17 -72l-59 29l-72 -96l74 -17z" />
<glyph unicode="+" horiz-adv-x="1650" d="M260 389h614l-157 -389h217l158 389h614l88 217h-614l155 387h-217l-155 -387h-615z" />
<glyph unicode="," horiz-adv-x="423" d="M35 -168h219l156 385h-220z" />
<glyph unicode="-" horiz-adv-x="1263" d="M260 389h1059l88 217h-1059z" />
<glyph unicode="." horiz-adv-x="423" d="M102 0h220l88 217h-220z" />
<glyph unicode="/" horiz-adv-x="1185" d="M53 0h277l1204 993h-272z" />
<glyph unicode="0" d="M188 56.5q41 -56.5 121 -56.5h1409q39 0 82 14.5t83 42t74 67.5t56 93l225 559q20 49 19.5 90t-18 69t-49 43t-70.5 15h-1409q-41 0 -84 -14t-83 -42t-74 -69t-54 -92l-226 -559q-43 -104 -2 -160.5zM440 242.5q-10 25.5 6 66.5l152 375q16 41 44 66.5t69 25.5h1233 q37 0 46 -25.5t-8 -66.5l-151 -375q-16 -41 -50 -66.5t-65 -25.5h-1235q-31 0 -41 25.5zM1061 389h219l88 217h-219z" />
<glyph unicode="1" d="M102 0h1823l88 217h-803l314 776h-1020l-88 -217h801l-226 -559h-801z" />
<glyph unicode="2" d="M102 0l156 387q20 49 54 90t74 69.5t83 44t84 15.5h1321q31 0 61.5 18.5t46.5 59.5l9 18q16 43 2.5 58.5t-49.5 15.5h-1528l88 217h1618q82 0 120.5 -56t-4.5 -161l-67 -170q-23 -53 -55.5 -93t-71.5 -67.5t-82 -42t-84 -14.5h-1323q-37 0 -63.5 -16.5t-42.5 -59.5 l-39 -96h1603l-88 -217h-1823z" />
<glyph unicode="3" d="M102 0h1616q39 0 83 15.5t84 43t74 68.5t54 90l62 152q20 51 8 81.5t-31 45.5q33 18 72 55t57 84l57 141q20 49 19.5 90t-18 69t-49 43t-70.5 15h-1616l-88 -217h1528q37 0 50 -15.5t-3 -58.5l-9 -18q-16 -41 -46.5 -59.5t-61.5 -18.5h-1526l-88 -217h1526q31 0 46 -18.5 t-1 -59.5l-8 -20q-16 -43 -42 -58.5t-63 -15.5h-1528z" />
<glyph unicode="4" d="M260 389h1604l-158 -389h219l402 993h-220l-155 -387h-1385l156 387h-219z" />
<glyph unicode="5" d="M102 0h1618q41 0 84 14.5t82 42t72 67.5t55 93l68 170q41 100 4 159.5t-119 59.5h-1399l68 170h1603l89 217h-1823l-244 -604h1528q37 0 49 -16.5t-4 -59.5l-8 -18q-16 -41 -47 -59.5t-62 -18.5h-1526z" />
<glyph unicode="6" d="M188 56.5q41 -56.5 121 -56.5h1409q39 0 82 14.5t83 42t74 67.5t56 93l68 170q41 100 4 159.5t-119 59.5h-1399l31 78q16 41 44 66.5t69 25.5h1527l89 217h-1616q-41 0 -84 -14t-83 -42t-74 -69t-54 -92l-226 -559q-43 -104 -2 -160.5zM440 242.5q-10 25.5 6 66.5l33 80 h1309q35 0 47 -14.5t2 -48.5l-6 -17q-16 -41 -50 -66.5t-65 -25.5h-1235q-31 0 -41 25.5z" />
<glyph unicode="7" d="M416 776h1360l-1358 -776h403l1432 813l74 180h-1823z" />
<glyph unicode="8" d="M186 56.5q39 -56.5 121 -56.5h1413q41 0 84 14.5t82 42t72 67.5t55 93l62 152q12 31 13 66.5t-20 60.5q41 23 69 59.5t40 69.5l61 151q39 100 2.5 158.5t-118.5 58.5h-1413q-41 0 -84 -14t-82 -42t-73 -69t-54 -92l-62 -151q-12 -33 -10 -67t16 -62q-35 -23 -65.5 -60 t-42.5 -67l-62 -152q-43 -104 -4 -160.5zM440 235.5q-16 18.5 0 59.5l9 18q16 41 38.5 56.5t57.5 19.5h1243q37 0 49 -16.5t-4 -59.5l-8 -18q-16 -41 -47 -59.5t-62 -18.5h-1229q-31 0 -47 18.5zM598 624.5q-16 18.5 0 59.5l8 18q16 43 42 58.5t63 15.5h1233q37 0 50 -15.5 t-3 -58.5l-9 -18q-16 -41 -46.5 -59.5t-61.5 -18.5h-1229q-31 0 -47 18.5z" />
<glyph unicode="9" d="M102 0h1616q39 0 82 14.5t83 42t74 67.5t56 93l225 559q43 104 2.5 160.5t-120.5 56.5h-1409q-41 0 -84 -14t-83 -42t-74 -69t-54 -92l-68 -170q-41 -100 -4 -159.5t119 -59.5h1399l-31 -78q-16 -41 -44 -66.5t-69 -25.5h-1528zM592 668l6 16q16 41 50 66.5t65 25.5h1235 q31 0 41 -25.5t-7 -66.5l-32 -80h-1309q-35 0 -47 14.5t-2 49.5z" />
<glyph unicode=":" horiz-adv-x="423" d="M102 0h220l88 217h-220zM328 559h219l88 217h-219z" />
<glyph unicode=";" horiz-adv-x="423" d="M35 -168h219l156 385h-220zM328 559h219l88 217h-219z" />
<glyph unicode="&#x3c;" horiz-adv-x="595" d="M274 498l25 -498h223l-10 498l412 495h-224z" />
<glyph unicode="=" horiz-adv-x="1466" d="M180 193h1262l88 217h-1262zM340 588h1262l88 217h-1262z" />
<glyph unicode="&#x3e;" horiz-adv-x="595" d="M74 0l411 498l-10 495h223l25 -495l-426 -498h-223z" />
<glyph unicode="?" d="M352 0h219l88 217h-219zM416 776h1528q37 0 50 -15.5t-3 -58.5l-9 -18q-16 -41 -46.5 -59.5t-61.5 -18.5h-1071q-41 0 -84 -15.5t-83 -44t-74 -69.5t-54 -90l-29 -74h219q16 43 43 59.5t64 16.5h1073q41 0 84 14.5t82 42t71.5 67.5t55.5 93l67 170q43 104 4.5 160.5 t-120.5 56.5h-1618z" />
<glyph unicode="@" horiz-adv-x="2125" d="M118 -5q1 -40 19.5 -67.5t49 -42t71.5 -14.5h1714l86 217h-1630q-31 0 -40 25.5t7 66.5l254 631q16 41 44 66.5t69 25.5h1331q41 0 48 -25.5t-9 -66.5l-121 -299q-16 -41 -46.5 -66.5t-61.5 -25.5h-105l92 229q20 51 1 80t-60 29h-922q-41 0 -85 -28t-66 -81l-123 -305 q-23 -53 -0.5 -80.5t63.5 -27.5h1213q39 0 83 15t85 43t74.5 68.5t54.5 94.5l180 446q43 104 2 160.5t-121 56.5h-1507q-41 0 -84 -14t-83 -42t-74 -69t-54 -92l-330 -815q-20 -53 -19 -93zM864 465l25 63q18 45 55 45h698q39 0 21 -45l-25 -63q-18 -45 -57 -45h-700 q-35 0 -17 45z" />
<glyph unicode="A" horiz-adv-x="1929" d="M53 0h271l292 240h889l101 -240h270l-401 993h-218zM872 451l408 329l141 -329h-549z" />
<glyph unicode="B" d="M102 0h1616q39 0 83 15.5t84 43t74 68.5t54 90l62 152q12 32 12 56q0 13 -4 25q-12 30 -31 46q33 18 72 55t57 84l57 141q20 48 19 88q1 43 -17 71t-49.5 43t-70.5 15h-1616zM410 217l69 172h1305q31 -1 47 -21q8 -10 8 -25t-8 -36l-10 -24q-18 -43 -42 -54.5t-61 -11.5 h-1308zM567 606l68 170h1304q37 0 51 -18q7 -8 7 -22q0 -16 -8 -38l-11 -22q-16 -41 -44.5 -55.5t-59.5 -14.5h-1307z" />
<glyph unicode="C" d="M188 56q41 -56 121 -56h1409q39 0 82 14.5t83 42t74 67.5t56 93l62 152h-220l-24 -60q-16 -41 -50 -66.5t-65 -25.5h-1235q-31 -1 -41 25q-4 10 -4 22q0 19 10 45l152 375q16 41 44 66.5t69 25.5h1233q37 0 46 -26q3 -9 3 -19q0 -20 -11 -47l-22 -57h219l59 149 q20 48 19 88q1 43 -17 71t-49.5 43t-70.5 15h-1409q-41 0 -84 -14t-83 -42t-74 -69t-54 -92l-226 -559q-22 -53 -22 -94q0 -39 20 -67z" />
<glyph unicode="D" d="M102 0l402 993h1616q39 0 70.5 -15t49.5 -43q19 -30 18 -73q0 -39 -20 -86l-225 -559q-23 -53 -56.5 -93t-73.5 -67.5t-83 -42t-82 -14.5h-1616zM410 217h1306q31 0 65 25.5t50 66.5l151 375q10 26 10 46q0 10 -3 20q-9 26 -45 26h-1309z" />
<glyph unicode="E" d="M102 0h1823l88 217h-1603l69 172h1604l88 217h-1604l68 170h1603l89 217h-1823z" />
<glyph unicode="F" d="M102 0h220l157 389h1604l88 217h-1604l68 170h1603l89 217h-1823z" />
<glyph unicode="G" d="M188 56q41 -56 121 -56h1409q39 0 82 14.5t83 42t74 67.5t56 93l68 170q22 53 22 94q0 37 -18 65q-37 60 -119 60h-936l-88 -217h846q35 0 47 -14.5t2 -48.5l-6 -17q-16 -41 -50 -66.5t-65 -25.5h-1235q-31 0 -41 25q-4 10 -4 22q0 20 10 45l152 375q16 41 44 66.5 t69 25.5h1527l89 217h-1616q-41 0 -84 -14t-83 -42t-74 -69t-54 -92l-226 -559q-22 -53 -22 -94q0 -39 20 -67z" />
<glyph unicode="H" d="M102 0h220l157 389h1385l-158 -389h219l402 993h-220l-155 -387h-1385l156 387h-219z" />
<glyph unicode="I" d="M102 0h1823l88 217h-803l226 559h802l89 217h-1823l-88 -217h801l-226 -559h-801z" />
<glyph unicode="J" d="M188 56q41 -56 121 -56h1409q39 0 82 14.5t83 42t74 67.5t56 93l314 776h-220l-276 -684q-16 -41 -50 -66.5t-65 -25.5h-1235q-31 0 -41 25q-4 10 -4 22q0 20 10 45l91 226h-220l-127 -318q-22 -53 -22 -94q0 -39 20 -67z" />
<glyph unicode="K" horiz-adv-x="2009" d="M102 0h220l157 389h1217l8 -389h223l2 498l400 495h-224l-321 -387h-1217l156 387h-219z" />
<glyph unicode="L" d="M188 56q-20 28 -20 67q0 41 22 94l314 776h219l-277 -684q-9 -23 -9 -41q0 -16 6 -26q13 -26 44 -25h1526l-88 -217h-1616q-80 0 -121 56z" />
<glyph unicode="M" horiz-adv-x="2025" d="M92 0h219l303 752l439 -650l964 650l-303 -752h219l402 993h-250l-926 -626l-416 626h-249z" />
<glyph unicode="N" d="M102 0h220l305 754l1077 -754h221l402 993h-220l-305 -753l-1077 753h-221z" />
<glyph unicode="O" d="M188 56q-20 28 -20 67q0 41 22 94l226 559q20 51 54 92t74 69t83 42t84 14h1409q39 0 70.5 -15t49.5 -43q19 -30 18 -73q0 -39 -20 -86l-225 -559q-23 -53 -56.5 -93t-73.5 -67.5t-83 -42t-82 -14.5h-1409q-80 0 -121 56zM440 242q10 -26 41 -25h1235q31 0 65 25.5 t50 66.5l151 375q10 26 10 46q0 10 -3 20q-9 26 -45 26h-1233q-41 0 -69 -25.5t-44 -66.5l-152 -375q-10 -25 -10 -44q0 -13 4 -23z" />
<glyph unicode="P" d="M102 0h220l157 389h1397q39 0 82 14.5t83 42t73.5 67.5t56.5 93l67 170q20 48 19 88q1 43 -17 71t-49.5 43t-70.5 15h-1616zM567 606l68 170h1304q35 0 51 -18q8 -9 7 -23q0 -15 -8 -37l-11 -22q-16 -41 -45.5 -55.5t-58.5 -14.5h-1307z" />
<glyph unicode="Q" d="M188 56q41 -56 121 -56h594l-74 -184h220l73 184h596q39 0 82 14.5t83 42t74 67.5t56 93l225 559q20 48 20 88q-1 43 -18 71q-18 28 -49.5 43t-70.5 15h-1409q-41 0 -84 -14t-83 -42t-74 -69t-54 -92l-226 -559q-22 -53 -22 -94q0 -39 20 -67zM440 242q-4 10 -4 22 q0 20 10 45l152 375q16 41 44 66.5t69 25.5h1233q37 0 46 -26q3 -8 3 -19q0 -20 -11 -47l-151 -375q-16 -41 -50 -66.5t-65 -25.5h-506l99 246h-219l-99 -246h-510q-31 0 -41 25z" />
<glyph unicode="R" d="M102 0h220l157 389h1209l16 -389h223l4 395q72 16 138.5 69.5t101.5 141.5l67 170q20 48 20 88q0 43 -18 71t-49.5 43t-70.5 15h-1616zM567 606l68 170h1304q37 0 51 -18q6 -8 7 -22q0 -16 -10 -40l-9 -22q-16 -41 -44.5 -54.5t-59.5 -13.5h-1307z" />
<glyph unicode="S" d="M102 0h1618q41 0 84 14.5t82 42t72 67.5t55 93l68 170q22 53 22 94q0 37 -18 65q-37 60 -119 60h-1321q-31 0 -47 18.5t0 59.5l8 18q16 43 42 58.5t63 15.5h1527l89 217h-1618q-41 0 -84 -14t-82 -42t-73 -69t-54 -92l-68 -170q-23 -55 -23 -96q0 -38 19 -64 q39 -56 121 -57h1323q37 0 49 -16.5t-4 -59.5l-8 -18q-16 -41 -47 -59.5t-62 -18.5h-1526z" />
<glyph unicode="T" d="M416 776h801l-314 -776h219l314 776h802l89 217h-1823z" />
<glyph unicode="U" d="M188 56q41 -56 121 -56h1616l402 993h-220l-313 -776h-1313q-31 -1 -41 25q-4 10 -4 22q0 19 10 45l277 684h-219l-314 -776q-22 -53 -22 -94q0 -39 20 -67z" />
<glyph unicode="V" horiz-adv-x="1929" d="M455 993l401 -993h217l1204 993h-272l-954 -778l-324 778h-272z" />
<glyph unicode="W" horiz-adv-x="2361" d="M504 993l162 -993h286l443 457l75 -457h287l965 993h-260l-758 -772l-133 772h-260l49 -297l-461 -475l-135 772h-260z" />
<glyph unicode="X" horiz-adv-x="1990" d="M82 0h223l324 389h1048l9 -389h223l4 498l397 495h-223l-322 -387h-1050l-8 387h-224l-6 -495z" />
<glyph unicode="Y" d="M102 0h1618q41 0 84 14.5t82 42t72 67.5t55 93l314 776h-220l-155 -385h-1313q-31 0 -41 26q-4 9 -4 21q0 20 10 45l119 293h-219l-156 -385q-21 -53 -21 -93t20 -67q40 -57 120 -57h1397l-39 -96q-16 -41 -47 -59.5t-62 -18.5h-1526z" />
<glyph unicode="Z" d="M102 0l156 387q20 49 54 90t74 69.5t83 44t84 15.5h1321q31 0 61.5 18.5t46.5 59.5l37 92h-1603l88 217h1823l-156 -387q-23 -53 -55.5 -93t-71.5 -67.5t-82 -42t-84 -14.5h-1323q-37 0 -63.5 -16.5t-42.5 -59.5l-39 -96h1603l-88 -217h-1823z" />
<glyph unicode="[" horiz-adv-x="841" d="M43 -150h637l86 218h-418l346 856h418l88 217h-637z" />
<glyph unicode="\" horiz-adv-x="1185" d="M455 993h272l406 -993h-277z" />
<glyph unicode="]" horiz-adv-x="841" d="M41 -150l86 218h418l346 856h-418l88 217h637l-520 -1291h-637z" />
<glyph unicode="^" horiz-adv-x="1929" d="M53 0h273l954 778l324 -778h272l-401 993h-218z" />
<glyph unicode="_" horiz-adv-x="1650" d="M72 -76h1446l88 217h-1446z" />
<glyph unicode="`" horiz-adv-x="518" d="M485 1071l117 -217h207l-94 217h-230z" />
<glyph unicode="a" d="M102 0h220l157 389h1385l-158 -389h219l313 776q20 48 19 88q1 43 -17 71t-49.5 43t-70.5 15h-1409q-41 0 -84 -14t-83 -42t-74 -69t-54 -92zM567 606l31 78q16 41 44 66.5t69 25.5h1233q37 0 46 -26q3 -9 3 -19q0 -20 -11 -47l-30 -78h-1385z" />
<glyph unicode="b" d="M102 0h1616q39 0 83 15.5t84 43t74 68.5t54 90l62 152q12 32 13 56q0 13 -5 25q-12 30 -31 46q33 18 72 55t57 84l57 141q20 48 19 88q1 43 -17 71t-49.5 43t-70.5 15h-1616zM410 217l69 172h1303q31 -1 48 -21q9 -11 9 -26t-8 -35l-10 -24q-18 -43 -42 -54.5t-61 -11.5 h-1308zM567 606l68 170h1304q37 0 51 -18q7 -8 7 -22q0 -16 -8 -38l-11 -22q-16 -41 -44.5 -55.5t-59.5 -14.5h-1307z" />
<glyph unicode="c" d="M188 56q41 -56 121 -56h1616l88 217h-1532q-31 -1 -41 25q-4 10 -4 22q0 19 10 45l152 375q16 41 44 66.5t69 25.5h1527l89 217h-1616q-41 0 -84 -14t-83 -42t-74 -69t-54 -92l-226 -559q-22 -53 -22 -94q0 -39 20 -67z" />
<glyph unicode="d" d="M102 0l402 993h1616q39 0 70.5 -15t49.5 -43q19 -30 18 -73q0 -39 -20 -86l-225 -559q-23 -53 -56.5 -93t-73.5 -67.5t-83 -42t-82 -14.5h-1616zM410 217h1306q31 0 65 25.5t50 66.5l151 375q10 26 10 46q0 10 -3 20q-9 26 -45 26h-1309z" />
<glyph unicode="e" d="M102 0h1823l88 217h-1603l69 172h1604l88 217h-1604l68 170h1603l89 217h-1823z" />
<glyph unicode="f" d="M102 0h220l157 389h1604l88 217h-1604l68 170h1603l89 217h-1823z" />
<glyph unicode="g" d="M188 56q41 -56 121 -56h1409q39 0 82 14.5t83 42t74 67.5t56 93l127 318h-219l-90 -226q-16 -41 -50 -66.5t-65 -25.5h-1235q-31 0 -41 25q-4 10 -4 22q0 20 10 45l152 375q16 41 44 66.5t69 25.5h1527l89 217h-1616q-41 0 -84 -14t-83 -42t-74 -69t-54 -92l-226 -559 q-22 -53 -22 -94q0 -39 20 -67z" />
<glyph unicode="h" d="M102 0h220l157 389h1385l-158 -389h219l402 993h-220l-155 -387h-1385l156 387h-219z" />
<glyph unicode="i" horiz-adv-x="425" d="M102 0h222l401 993h-221z" />
<glyph unicode="j" d="M102 0h1616q39 0 82 14.5t83 42t74 67.5t56 93l314 776h-220l-276 -684q-16 -41 -50 -66.5t-65 -25.5h-1526z" />
<glyph unicode="k" horiz-adv-x="2009" d="M102 0h220l157 389h1217l8 -389h223l2 498l400 495h-224l-321 -387h-1217l156 387h-219z" />
<glyph unicode="l" d="M102 0h1823l88 217h-1603l313 776h-219z" />
<glyph unicode="m" horiz-adv-x="2240" d="M102 0h220l276 684q16 41 44 66.5t69 25.5h612l-313 -776h219l313 776h615q37 0 46 -26q3 -9 3 -19q0 -20 -11 -47l-276 -684h219l311 772q20 48 19 88q0 43 -16 73t-48 45t-71 15h-1622q-41 0 -84 -15t-83 -43t-75 -70t-55 -93z" />
<glyph unicode="n" d="M102 0l402 993h1616q80 0 120 -56q20 -27 20 -66q0 -41 -22 -95l-313 -776h-219l276 684q9 23 9 41q1 13 -5 25q-12 26 -44 26h-1307l-313 -776h-220z" />
<glyph unicode="o" d="M188 56q-20 28 -20 67q0 41 22 94l226 559q20 51 54 92t74 69t83 42t84 14h1409q39 0 70.5 -15t49.5 -43q19 -30 18 -73q0 -39 -20 -86l-225 -559q-23 -53 -56.5 -93t-73.5 -67.5t-83 -42t-82 -14.5h-1409q-80 0 -121 56zM440 242q10 -26 41 -25h1235q31 0 65 25.5 t50 66.5l151 375q10 26 10 46q0 10 -3 20q-9 26 -45 26h-1233q-41 0 -69 -25.5t-44 -66.5l-152 -375q-10 -25 -10 -44q0 -13 4 -23z" />
<glyph unicode="p" d="M102 0h220l157 389h1397q39 0 82 14.5t83 42t73.5 67.5t56.5 93l67 170q20 48 20 88q-1 43 -18 71q-18 28 -49.5 43t-70.5 15h-1616zM567 606l68 170h1304q35 0 51 -18q7 -8 7 -23t-8 -37l-11 -24q-16 -41 -45.5 -54.5t-58.5 -13.5h-1307z" />
<glyph unicode="q" d="M188 56q41 -56 121 -56h799l4 -184h223l-2 184h385q39 0 82 14.5t83 42t74 67.5t56 93l225 559q20 48 20 88q-1 43 -18 71q-18 28 -49.5 43t-70.5 15h-1409q-41 0 -84 -14t-83 -42t-74 -69t-54 -92l-226 -559q-22 -53 -22 -94q0 -39 20 -67zM440 242q-4 10 -4 22 q0 20 10 45l152 375q16 41 44 66.5t69 25.5h1233q37 0 46 -26q3 -8 3 -19q0 -20 -11 -47l-151 -375q-16 -41 -50 -66.5t-65 -25.5h-385l-2 246h-225l2 -246h-625q-31 0 -41 25z" />
<glyph unicode="r" d="M102 0h220l157 389h1209l16 -389h223l4 395q72 16 138.5 69.5t101.5 141.5l67 170q20 48 20 88q0 43 -18 71t-49.5 43t-70.5 15h-1616zM567 606l68 170h1304q37 0 51 -18q6 -8 7 -22q0 -16 -10 -40l-9 -22q-16 -41 -44.5 -54.5t-59.5 -13.5h-1307z" />
<glyph unicode="s" d="M102 0h1618q41 0 84 14.5t82 42t72 67.5t55 93l68 170q22 53 22 94q0 37 -18 65q-37 60 -119 60h-1321q-31 0 -47 18.5t0 59.5l8 18q16 43 42 58.5t63 15.5h1527l89 217h-1618q-41 0 -84 -14t-82 -42t-73 -69t-54 -92l-68 -170q-23 -55 -23 -96q0 -38 19 -64 q39 -56 121 -57h1323q37 0 49 -16.5t-4 -59.5l-8 -18q-16 -41 -47 -59.5t-62 -18.5h-1526z" />
<glyph unicode="t" d="M416 776h801l-314 -776h219l314 776h802l89 217h-1823z" />
<glyph unicode="u" d="M188 56q41 -56 121 -56h1409q39 0 82 14.5t83 42t74 67.5t56 93l314 776h-220l-276 -684q-16 -41 -50 -66.5t-65 -25.5h-1235q-31 -1 -41 25q-4 10 -4 22q0 19 10 45l277 684h-219l-314 -776q-22 -53 -22 -94q0 -39 20 -67z" />
<glyph unicode="v" horiz-adv-x="1929" d="M455 993l401 -993h217l1204 993h-272l-954 -778l-324 778h-272z" />
<glyph unicode="w" horiz-adv-x="2240" d="M190 58q-19 28 -19 67q0 42 22 96l311 772h219l-277 -684q-11 -29 -11 -50q0 -9 2 -17q7 -26 48 -25h613l313 776h219l-313 -776h614q37 0 67 25.5t46 66.5l276 684h220l-312 -772q-20 -49 -54 -90t-75 -70.5t-85 -45t-83 -15.5h-1622q-79 0 -119 58z" />
<glyph unicode="x" horiz-adv-x="1990" d="M82 0h223l324 389h1048l9 -389h223l4 498l397 495h-223l-322 -387h-1050l-8 387h-224l-6 -495z" />
<glyph unicode="y" d="M347 448q40 -57 120 -57h594l-158 -391h219l158 391h596q39 0 83 14.5t84 42t73.5 67.5t54.5 93l156 385h-220l-118 -293q-16 -41 -50 -66.5t-65 -25.5h-1235q-31 0 -41 26q-4 9 -4 21q0 20 10 45l119 293h-219l-156 -385q-21 -53 -21 -93t20 -67z" />
<glyph unicode="z" d="M102 0h1823l88 217h-1278l1514 586l78 190h-1823l-88 -217h1278l-1514 -586z" />
<glyph unicode="{" d="M102 0l314 776q20 51 54 92t74 69t83 42t84 14h1409q80 0 120.5 -56t-2.5 -161l-313 -776h-219l276 684q16 41 3.5 66.5t-43.5 25.5h-1235q-31 0 -62 -25.5t-47 -66.5l-276 -684h-220z" />
<glyph unicode="|" horiz-adv-x="423" d="M16 -213h220l573 1419h-219z" />
<glyph unicode="}" horiz-adv-x="546" d="M225 0h219l402 993h-342l-88 -217h123z" />
<glyph unicode="~" d="M188 56.5q-41 56.5 2 160.5l68 170q20 49 54 90t74 69.5t83 44t84 15.5h1399l30 78q16 41 9.5 66.5t-47.5 25.5h-1528l88 217h1616q80 0 120.5 -56t-2.5 -161l-313 -776h-1616q-80 0 -121 56.5zM443.5 242.5q13.5 -25.5 43.5 -25.5h1307l70 172h-1309q-35 0 -58.5 -14.5 t-43.5 -48.5l-7 -17q-16 -41 -2.5 -66.5z" />
<glyph horiz-adv-x="528" />
<glyph unicode="&#xa1;" horiz-adv-x="423" d="M100 0h219l275 680h-219zM414 776h219l88 217h-219z" />
<glyph unicode="&#xa2;" d="M188 56.5q41 -56.5 121 -56.5h670l-78 -193h219l78 193h727l88 217h-727l225 559h727l89 217h-728l78 193h-219l-78 -193h-669q-41 0 -84 -14t-83 -42t-74 -69t-54 -92l-226 -559q-43 -104 -2 -160.5zM440 242.5q-10 25.5 6 66.5l152 375q16 41 44 66.5t69 25.5h581 l-225 -559h-586q-31 0 -41 25.5z" />
<glyph unicode="&#xa3;" horiz-adv-x="1998" d="M102 0h1794l89 217h-1270l69 172h766l88 219h-766l39 94q16 43 42 58.5t63 15.5h248l88 217h-336q-41 0 -84 -15t-83 -43t-74 -69t-54 -90l-68 -168h-305l-88 -217h305l-69 -174h-306z" />
<glyph unicode="&#xa4;" horiz-adv-x="2029" d="M100 0l277 346l119 293l6 354h223l6 -100h1290l84 100h224l-287 -360l-115 -281v-352h-223l-6 104h-1284l-90 -104h-224zM539 283h1175l174 434h-1175z" />
<glyph unicode="&#xa5;" d="M266 -104h594l-90 -224h219l90 224h596l68 163h-596l33 84h596l67 164h-596l33 84h596q39 0 83 14.5t84 42t73.5 67.5t54.5 93l156 385h-220l-118 -293q-16 -41 -50 -66.5t-65 -25.5h-1235q-31 0 -41 25.5t6 66.5l119 293h-219l-156 -385q-41 -104 -1 -160.5t120 -56.5 h594l-33 -84h-594l-67 -164h594l-33 -84h-594z" />
<glyph unicode="&#xa6;" horiz-adv-x="423" d="M16 -213h220l258 639h-220zM332 567h219l258 639h-219z" />
<glyph unicode="&#xa7;" d="M14 -217h1618q41 0 84 14.5t83 42t73 67.5t53 93l70 170q12 31 13 58.5t-1 50.5q20 23 40.5 50t35.5 60l67 170q41 100 4.5 159.5t-118.5 59.5h-1321q-31 0 -47.5 18.5t0.5 59.5l8 18q16 43 41.5 58.5t62.5 15.5h1528l88 217h-1618q-41 0 -84 -14t-82 -42t-72.5 -69 t-54.5 -92l-67 -170q-14 -33 -16.5 -60.5t1.5 -49.5q-23 -23 -43 -50.5t-32 -58.5l-68 -170q-43 -104 -4 -160.5t121 -56.5h1323q37 0 49 -16.5t-4 -59.5l-8 -18q-16 -41 -47 -59.5t-62 -18.5h-1526zM506 409.5q-12 18.5 4 57.5l8 18q16 43 42 58.5t63 15.5h1259 q46 -8 21 -74l-9 -18q-16 -41 -46.5 -59.5t-61.5 -18.5h-1239q-29 2 -41 20.5z" />
<glyph unicode="&#xa8;" horiz-adv-x="905" d="M446 854h220l88 217h-219zM928 854h219l88 217h-219z" />
<glyph unicode="&#xa9;" horiz-adv-x="579" d="M465 831q10 -25 17 -37t24 -30q18 -10 39.5 -17.5t44.5 -7.5q27 0 55.5 9.5t55 22.5t48 29.5t35.5 30.5q23 27 40.5 49.5t25.5 43.5q18 45 8 92q-2 20 -9 36.5t-30 34.5q-47 10 -66.5 16.5t-13.5 6.5q-37 0 -76.5 -15.5t-76.5 -41t-67 -59t-44 -70.5q-18 -47 -10 -93z M500 850q-8 31 8 74q18 45 53 80q78 77 166 77h6q27 0 49.5 -13t34.5 -33.5t14.5 -48.5t-8.5 -54l-4 -8q-14 -35 -52 -74t-81 -59q-66 -18 -84 -19h-4q-10 0 -30.5 3t-37.5 16q-31 25 -30 59zM565.5 923.5q-43.5 -106.5 55.5 -106.5q72 0 116 70l-24 10q-35 -47 -80 -47 q-63 0 -35 74q33 80 98 80q37 0 37 -39l35 8q8 57 -61 57q-98 0 -141.5 -106.5z" />
<glyph unicode="&#xaa;" d="M188 56.5q-41 56.5 2 160.5l68 170q20 49 54 90t74 69.5t83 44t84 15.5h1399l30 78q16 41 9.5 66.5t-47.5 25.5h-1528l88 217h1616q80 0 120.5 -56t-2.5 -161l-225 -559q-23 -53 -56.5 -93t-73.5 -67.5t-83 -42t-82 -14.5h-1409q-80 0 -121 56.5zM443.5 242.5 q13.5 -25.5 43.5 -25.5h1235q31 0 62 25.5t47 66.5l33 80h-1309q-35 0 -58.5 -14.5t-43.5 -48.5l-7 -17q-16 -41 -2.5 -66.5z" />
<glyph unicode="&#xab;" horiz-adv-x="743" d="M231 319l148 -172l92 228l-102 121l200 125l93 227l-287 -172zM553 319l147 -172l93 228l-103 121l201 125l92 227l-287 -172z" />
<glyph unicode="&#xac;" horiz-adv-x="1650" d="M260 389h1229l-158 -389h217l246 606h-1446z" />
<glyph unicode="&#xad;" horiz-adv-x="1060" d="M260 389h856l88 217h-856z" />
<glyph unicode="&#xae;" horiz-adv-x="579" d="M463 829q23 -90 127 -90h4q14 0 38.5 6.5t52.5 18.5t54.5 28.5t42.5 36.5q23 27 41.5 50.5t26.5 44.5q18 43 10 91t-43 68q-29 27 -78 27q-57 0 -104 -27q-29 -10 -53.5 -29.5t-61.5 -60.5q-12 -16 -23.5 -30.5t-21.5 -38.5q-20 -51 -12 -95zM496 848q4 35 7 56l3 20 q16 39 55 77q78 78 166 78h6q55 0 82 -46t4 -103v-6l-14 -24q-14 -23 -41 -52q-61 -49 -93 -63.5t-69 -14.5h-6q-16 0 -34.5 9t-34 21.5t-25.5 26t-6 21.5zM541 821h30l35 84h21q12 0 18 -8q8 -4 19 -43l2 -33h41l-9 39q-8 25 -10 34t-16 17q59 4 82 58q4 10 0 28 q-4 4 -8.5 7.5t-8.5 7.5q-6 10 -49 10h-65zM614 930l27 63h68q14 -12 8 -28.5t-20.5 -25.5t-43.5 -9h-39z" />
<glyph unicode="&#xaf;" horiz-adv-x="1650" d="M446 852h1446l88 217h-1445z" />
<glyph unicode="&#xb0;" horiz-adv-x="333" d="M401 854h220l88 217h-220zM502 928l28 71h80l-28 -71h-80z" />
<glyph unicode="&#xb1;" horiz-adv-x="1650" d="M102 0h1446l88 217h-1446zM330 561h614l-88 -215h217l88 215h615l88 217h-615l86 215h-217l-86 -215h-614z" />
<glyph unicode="&#xb2;" horiz-adv-x="1116" d="M336 575l84 209q20 51 63 82t84 31h629q16 0 21.5 3t9.5 13q2 4 0 7.5t-21 3.5h-731l60 147h808q41 0 61.5 -27.5t-1.5 -80.5l-41 -103q-23 -53 -65 -80.5t-83 -27.5h-612q-18 0 -27.5 -3.5t-19.5 -25.5l-2 -4h752l-58 -144h-911z" />
<glyph unicode="&#xb3;" horiz-adv-x="1116" d="M336 578h809q41 0 82 27.5t63 80.5l33 78q4 10 -3 30.5t-9 28.5q4 4 13 13.5t19.5 19.5t19.5 20.5t11 16.5l29 70q23 53 2 80.5t-62 27.5h-808l-60 -147h731q18 0 20.5 -3t0.5 -8q-4 -10 -9.5 -13t-21.5 -3h-731l-59 -147h731q18 0 20 -3.5t0 -7.5q-4 -10 -9 -13t-22 -3 h-731z" />
<glyph unicode="&#xb4;" horiz-adv-x="518" d="M397 854l271 217h229l-293 -217h-207z" />
<glyph unicode="&#xb5;" d="M102 0l402 993h1823l-402 -993h-1823zM410 217h1384l225 559h-1384z" />
<glyph unicode="&#xb6;" horiz-adv-x="1667" d="M302 337.5q40 -56.5 120 -56.5h227l-250 -623h219l422 1044q16 43 43 58.5t62 15.5h514l-451 -1118h219l539 1335h-1255q-41 0 -84 -15t-83 -43t-74 -69t-54 -90l-113 -278q-41 -104 -1 -160.5z" />
<glyph unicode="&#xb7;" horiz-adv-x="423" d="M260 389h219l88 217h-219z" />
<glyph unicode="&#xb8;" horiz-adv-x="413" d="M-426 -342h600l139 346h-211l-55 -135h-389z" />
<glyph unicode="&#xb9;" horiz-adv-x="1161" d="M336 575h956l60 148h-377l139 348h-579l-60 -149h418l-80 -199h-418z" />
<glyph unicode="&#xba;" horiz-adv-x="1116" d="M377.5 603q-21.5 28 1.5 81l113 279q23 53 64.5 80.5t82.5 27.5h704q41 0 60.5 -28.5t-0.5 -79.5l-113 -279q-23 -53 -63.5 -81t-81.5 -28h-705q-41 0 -62.5 28zM573 776q-18 -45 17 -45h524q39 0 57 45l39 94q18 45 -20 45h-522q-37 0 -56 -45z" />
<glyph unicode="&#xbb;" horiz-adv-x="743" d="M160 147l92 228l201 121l-103 125l92 227l148 -172l-144 -357zM481 147l92 228l201 121l-102 125l92 227l147 -172l-143 -357z" />
<glyph unicode="&#xbc;" horiz-adv-x="2424" d="M303 498h924l59 147h-360l141 348h-563l-62 -149h402l-80 -199h-402zM668 0h266l1214 993h-262zM1483 176h755l-71 -176h155l201 496h-156l-71 -174h-596l72 174h-160z" />
<glyph unicode="&#xbd;" horiz-adv-x="2424" d="M303 498l59 147h402l80 199h-402l62 149h563l-141 -348h360l-59 -147h-924zM668 0l1218 993h262l-1214 -993h-266zM1411 0l84 209q23 51 65 82t82 31h629q16 0 22.5 3t10.5 13q2 4 0 7t-20 3h-732l60 148h809q41 0 60.5 -28t-3.5 -81l-41 -102q-23 -53 -63.5 -81 t-81.5 -28h-613q-18 0 -28.5 -3t-20.5 -26l-2 -4h752l-58 -143h-911z" />
<glyph unicode="&#xbe;" horiz-adv-x="2373" d="M303 498h809q41 0 83 27.5t65 80.5l30 78q4 10 -2 30.5t-8 28.5l13.5 13.5l19.5 19.5t18 20.5t10 16.5l29 70q23 53 3.5 80.5t-60.5 27.5h-809l-62 -147h732q18 0 21 -3t-1 -7q-4 -10 -9 -13.5t-22 -3.5h-731l-59 -147h731q18 0 20 -3t0 -8q-4 -10 -9 -13t-21 -3h-732z M616 0h267l1214 993h-262zM1432 176h755l-71 -176h155l201 496h-156l-71 -174h-596l71 174h-159z" />
<glyph unicode="&#xbf;" d="M186 56.5q39 -56.5 121 -56.5h1618l88 217h-1528q-37 0 -50 15.5t3 58.5l8 18q16 41 47 59.5t62 18.5h1071q41 0 84 15.5t83 44t74 69.5t54 90l29 74h-219q-16 -43 -43 -59.5t-64 -16.5h-1073q-41 0 -84 -14.5t-82 -42t-72.5 -68.5t-54.5 -92l-68 -170 q-43 -104 -4 -160.5zM1769 776h220l88 217h-219z" />
<glyph unicode="&#xc0;" horiz-adv-x="1929" d="M53 0h271l292 240h889l101 -240h270l-401 993h-218zM872 451l408 331l141 -331h-549zM1243 1329l117 -217h207l-94 217h-230z" />
<glyph unicode="&#xc1;" horiz-adv-x="1929" d="M53 0h271l292 240h889l101 -240h270l-401 993h-218zM872 451l408 331l141 -331h-549zM1260 1112h206l293 217h-229z" />
<glyph unicode="&#xc2;" horiz-adv-x="1929" d="M53 0h271l292 240h889l101 -240h270l-401 993h-218zM872 451l408 331l141 -331h-549zM1065 1112h227l183 152l63 -152h227l-84 217h-356z" />
<glyph unicode="&#xc3;" horiz-adv-x="1929" d="M53 0h271l292 240h889l101 -240h270l-401 993h-218zM872 451l408 331l141 -331h-549zM934 1112h227l182 152l62 -152h324l260 217h-228l-182 -151l-61 151h-324z" />
<glyph unicode="&#xc4;" horiz-adv-x="1929" d="M53 0h271l292 240h889l101 -240h270l-401 993h-218zM872 451l408 331l141 -331h-549zM1065 1112h219l88 217h-219zM1546 1112h219l88 217h-219z" />
<glyph unicode="&#xc5;" horiz-adv-x="1929" d="M53 0h271l292 240h889l101 -240h270l-401 993h-218zM872 451l408 331l141 -331h-549zM1305 1112h219l88 217h-219zM1405 1186l29 71h79l-28 -71h-80z" />
<glyph unicode="&#xc6;" horiz-adv-x="3633" d="M102 0h220l157 389h1385l-158 -389h1825l88 217h-1604l70 172h1603l89 217h-1604l68 170h1603l88 217h-3221q-41 0 -84 -14t-83 -42t-74 -69t-54 -92zM567 606l31 78q16 41 44 66.5t69 25.5h1308l-67 -170h-1385z" />
<glyph unicode="&#xc7;" d="M188 56.5q41 -56.5 121 -56.5h723l-53 -131h-389l-84 -211h600l137 342h475q39 0 82 14.5t83 42t74 67.5t56 93l62 152h-220l-24 -60q-16 -41 -50 -66.5t-65 -25.5h-1235q-31 0 -41 25.5t6 66.5l152 375q16 41 44 66.5t69 25.5h1233q37 0 46 -25.5t-8 -66.5l-22 -57h219 l59 149q20 49 19.5 90t-18 69t-49 43t-70.5 15h-1409q-41 0 -84 -14t-83 -42t-74 -69t-54 -92l-226 -559q-43 -104 -2 -160.5z" />
<glyph unicode="&#xc8;" d="M102 0h1823l88 217h-1603l69 172h1604l88 217h-1604l68 170h1603l89 217h-1823zM1294 1329l117 -217h207l-94 217h-230z" />
<glyph unicode="&#xc9;" d="M102 0h1823l88 217h-1603l69 172h1604l88 217h-1604l68 170h1603l89 217h-1823zM1307 1112h206l293 217h-229z" />
<glyph unicode="&#xca;" d="M102 0h1823l88 217h-1603l69 172h1604l88 217h-1604l68 170h1603l89 217h-1823zM1112 1112h227l183 152l63 -152h227l-83 217h-357z" />
<glyph unicode="&#xcb;" d="M102 0h1823l88 217h-1603l69 172h1604l88 217h-1604l68 170h1603l89 217h-1823zM1112 1112h219l88 217h-219zM1593 1112h219l89 217h-220z" />
<glyph unicode="&#xcc;" d="M102 0h1823l88 217h-803l226 559h802l89 217h-1823l-88 -217h801l-226 -559h-801zM1294 1329l117 -217h207l-94 217h-230z" />
<glyph unicode="&#xcd;" d="M102 0h1823l88 217h-803l226 559h802l89 217h-1823l-88 -217h801l-226 -559h-801zM1307 1112h206l293 217h-229z" />
<glyph unicode="&#xce;" d="M102 0h1823l88 217h-803l226 559h802l89 217h-1823l-88 -217h801l-226 -559h-801zM1112 1112h227l183 152l63 -152h227l-83 217h-357z" />
<glyph unicode="&#xcf;" d="M102 0h1823l88 217h-803l226 559h802l89 217h-1823l-88 -217h801l-226 -559h-801zM1112 1112h219l88 217h-219zM1593 1112h219l89 217h-220z" />
<glyph unicode="&#xd0;" horiz-adv-x="2410" d="M260 389h383l-158 -389h1616q39 0 82 14.5t83 42t74 67.5t56 93l225 559q20 49 19.5 90t-18 69t-49 43t-70.5 15h-1616l-156 -387h-383zM793 217l69 172h529l88 217h-529l68 170h1309q37 0 46 -25.5t-8 -66.5l-151 -375q-16 -41 -50 -66.5t-65 -25.5h-1306z" />
<glyph unicode="&#xd1;" d="M102 0h220l305 754l1077 -754h221l402 993h-220l-305 -753l-1077 753h-221zM1010 1112h227l182 152l62 -152h323l260 217h-227l-182 -151l-62 151h-323z" />
<glyph unicode="&#xd2;" d="M188 56.5q41 -56.5 121 -56.5h1409q39 0 82 14.5t83 42t74 67.5t56 93l225 559q43 104 2.5 160.5t-120.5 56.5h-1409q-41 0 -84 -15t-83 -43t-74 -69t-54 -90l-226 -559q-43 -104 -2 -160.5zM443 242.5q-13 25.5 3 66.5l152 375q16 41 46 66.5t67 25.5h1233 q41 0 48 -25.5t-10 -66.5l-151 -375q-16 -41 -47 -66.5t-62 -25.5h-1235q-31 0 -44 25.5zM1294 1329l117 -217h207l-94 217h-230z" />
<glyph unicode="&#xd3;" d="M188 56.5q41 -56.5 121 -56.5h1409q39 0 82 14.5t83 42t74 67.5t56 93l225 559q20 49 19.5 90t-18 69t-49 43t-70.5 15h-1409q-41 0 -84 -14t-83 -42t-74 -69t-54 -92l-226 -559q-43 -104 -2 -160.5zM440 242.5q-10 25.5 6 66.5l152 375q16 41 44 66.5t69 25.5h1233 q37 0 46 -25.5t-8 -66.5l-151 -375q-16 -41 -50 -66.5t-65 -25.5h-1235q-31 0 -41 25.5zM1307 1112h206l293 217h-229z" />
<glyph unicode="&#xd4;" d="M188 56.5q41 -56.5 121 -56.5h1409q39 0 82 14.5t83 42t74 67.5t56 93l225 559q20 49 19.5 90t-18 69t-49 43t-70.5 15h-1409q-41 0 -84 -14t-83 -42t-74 -69t-54 -92l-226 -559q-43 -104 -2 -160.5zM440 242.5q-10 25.5 6 66.5l152 375q16 41 44 66.5t69 25.5h1233 q37 0 46 -25.5t-8 -66.5l-151 -375q-16 -41 -50 -66.5t-65 -25.5h-1235q-31 0 -41 25.5zM1112 1112h227l183 152l63 -152h227l-83 217h-357z" />
<glyph unicode="&#xd5;" d="M188 56.5q41 -56.5 121 -56.5h1409q39 0 82 14.5t83 42t74 67.5t56 93l225 559q20 49 19.5 90t-18 69t-49 43t-70.5 15h-1409q-41 0 -84 -14t-83 -42t-74 -69t-54 -92l-226 -559q-43 -104 -2 -160.5zM440 242.5q-10 25.5 6 66.5l152 375q16 41 44 66.5t69 25.5h1233 q37 0 46 -25.5t-8 -66.5l-151 -375q-16 -41 -50 -66.5t-65 -25.5h-1235q-31 0 -41 25.5zM981 1112h227l183 152l61 -152h324l260 217h-228l-182 -151l-61 151h-324z" />
<glyph unicode="&#xd6;" d="M188 56.5q41 -56.5 121 -56.5h1409q39 0 82 14.5t83 42t74 67.5t56 93l225 559q20 49 19.5 90t-18 69t-49 43t-70.5 15h-1409q-41 0 -84 -14t-83 -42t-74 -69t-54 -92l-226 -559q-43 -104 -2 -160.5zM440 242.5q-10 25.5 6 66.5l152 375q16 41 44 66.5t69 25.5h1233 q37 0 46 -25.5t-8 -66.5l-151 -375q-16 -41 -50 -66.5t-65 -25.5h-1235q-31 0 -41 25.5zM1112 1112h219l88 217h-219zM1593 1112h219l89 217h-220z" />
<glyph unicode="&#xd7;" horiz-adv-x="872" d="M168 272l90 -153l317 225l134 -225l217 153l-135 226l317 225l-92 154l-318 -226l-133 226l-215 -154l133 -225z" />
<glyph unicode="&#xd8;" d="M188 56.5q41 -56.5 121 -56.5h1409q39 0 82 14.5t83 42t74 67.5t56 93l225 559q20 49 19.5 90t-18 69t-49 43t-70.5 15h-1409q-41 0 -84 -14t-83 -42t-74 -69t-54 -92l-226 -559q-43 -104 -2 -160.5zM440 242.5q-10 25.5 6 66.5l152 375q16 41 44 66.5t69 25.5h702 l-680 -559h-252q-31 0 -41 25.5zM1008 217l678 559h258q37 0 46 -25.5t-8 -66.5l-151 -375q-16 -41 -50 -66.5t-65 -25.5h-708z" />
<glyph unicode="&#xd9;" d="M188 56.5q41 -56.5 121 -56.5h1616l402 993h-220l-313 -776h-1313q-31 0 -41 25.5t6 66.5l277 684h-219l-314 -776q-43 -104 -2 -160.5zM1294 1329l117 -217h207l-94 217h-230z" />
<glyph unicode="&#xda;" d="M188 56.5q41 -56.5 121 -56.5h1616l402 993h-220l-313 -776h-1313q-31 0 -41 25.5t6 66.5l277 684h-219l-314 -776q-43 -104 -2 -160.5zM1307 1112h206l293 217h-229z" />
<glyph unicode="&#xdb;" d="M188 56.5q41 -56.5 121 -56.5h1616l402 993h-220l-313 -776h-1313q-31 0 -41 25.5t6 66.5l277 684h-219l-314 -776q-43 -104 -2 -160.5zM1112 1112h227l183 152l63 -152h227l-83 217h-357z" />
<glyph unicode="&#xdc;" d="M188 56.5q41 -56.5 121 -56.5h1616l402 993h-220l-313 -776h-1313q-31 0 -41 25.5t6 66.5l277 684h-219l-314 -776q-43 -104 -2 -160.5zM1112 1112h219l88 217h-219zM1593 1112h219l89 217h-220z" />
<glyph unicode="&#xdd;" d="M102 0h1618q41 0 84 14.5t82 42t72 67.5t55 93l314 776h-220l-155 -385h-1313q-31 0 -41 25.5t6 66.5l119 293h-219l-156 -385q-41 -104 -1 -160.5t120 -56.5h1397l-39 -96q-16 -41 -47 -59.5t-62 -18.5h-1526zM1307 1112h206l293 217h-229z" />
<glyph unicode="&#xde;" d="M102 0h220l81 203h1397q39 0 82 14t83 42t74 68t56 93l68 168q20 49 19 90t-18.5 68.5t-49 43t-70.5 15.5h-1397l76 188h-219zM492 420l67 168h1309q35 0 49 -15.5t-4 -58.5l-6 -18q-16 -41 -48 -58.5t-61 -17.5h-1306z" />
<glyph unicode="&#xdf;" d="M-27 -322h220l405 1004q16 41 50 66.5t65 25.5l-2 2h1233q37 0 50 -15.5t-3 -58.5l-9 -18q-16 -41 -46.5 -59.5t-61.5 -18.5h-1034l-88 -217h1034q31 0 46 -18.5t-1 -59.5l-8 -20q-16 -43 -42 -58.5t-63 -15.5h-1036l-88 -217h1124q39 0 83 15.5t84 43t74 68.5t54 90 l62 152q20 51 8 81.5t-31 45.5q33 18 72 55t57 84l57 141q20 49 19.5 90t-18 69t-49 43t-70.5 15h-1409q-39 0 -82 -14t-84 -43t-75 -70t-54 -92z" />
<glyph unicode="&#xe0;" d="M102 0h220l157 389h1385l-158 -389h219l313 776q20 49 19.5 90t-18 69t-49 43t-70.5 15h-1409q-41 0 -84 -14t-83 -42t-74 -69t-54 -92zM567 606l31 78q16 41 44 66.5t69 25.5h1233q37 0 46 -25.5t-8 -66.5l-30 -78h-1385zM1294 1329l117 -217h207l-94 217h-230z" />
<glyph unicode="&#xe1;" d="M102 0h220l157 389h1385l-158 -389h219l313 776q20 49 19.5 90t-18 69t-49 43t-70.5 15h-1409q-41 0 -84 -14t-83 -42t-74 -69t-54 -92zM567 606l31 78q16 41 44 66.5t69 25.5h1233q37 0 46 -25.5t-8 -66.5l-30 -78h-1385zM1307 1112h206l293 217h-229z" />
<glyph unicode="&#xe2;" d="M102 0h220l157 389h1385l-158 -389h219l313 776q20 49 19.5 90t-18 69t-49 43t-70.5 15h-1409q-41 0 -84 -14t-83 -42t-74 -69t-54 -92zM567 606l31 78q16 41 44 66.5t69 25.5h1233q37 0 46 -25.5t-8 -66.5l-30 -78h-1385zM1112 1112h227l183 152l63 -152h227l-83 217 h-357z" />
<glyph unicode="&#xe3;" d="M102 0h220l157 389h1385l-158 -389h219l313 776q20 49 19.5 90t-18 69t-49 43t-70.5 15h-1409q-41 0 -84 -14t-83 -42t-74 -69t-54 -92zM567 606l31 78q16 41 44 66.5t69 25.5h1233q37 0 46 -25.5t-8 -66.5l-30 -78h-1385zM981 1112h227l183 152l61 -152h324l260 217 h-228l-182 -151l-61 151h-324z" />
<glyph unicode="&#xe4;" d="M102 0h220l157 389h1385l-158 -389h219l313 776q20 49 19.5 90t-18 69t-49 43t-70.5 15h-1409q-41 0 -84 -14t-83 -42t-74 -69t-54 -92zM567 606l31 78q16 41 44 66.5t69 25.5h1233q37 0 46 -25.5t-8 -66.5l-30 -78h-1385zM1112 1112h219l88 217h-219zM1593 1112h219 l89 217h-220z" />
<glyph unicode="&#xe5;" d="M102 0h220l157 389h1385l-158 -389h219l313 776q20 49 19.5 90t-18 69t-49 43t-70.5 15h-1409q-41 0 -84 -14t-83 -42t-74 -69t-54 -92zM567 606l31 78q16 41 44 66.5t69 25.5h1233q37 0 46 -25.5t-8 -66.5l-30 -78h-1385zM1352 1112h219l88 217h-219zM1452 1186l29 71 h80l-29 -71h-80z" />
<glyph unicode="&#xe6;" horiz-adv-x="3633" d="M102 0h220l157 389h1385l-158 -389h1825l88 217h-1604l70 172h1603l89 217h-1604l68 170h1603l88 217h-3221q-41 0 -84 -14t-83 -42t-74 -69t-54 -92zM567 606l31 78q16 41 44 66.5t69 25.5h1308l-67 -170h-1385z" />
<glyph unicode="&#xe7;" d="M188 56.5q41 -56.5 121 -56.5h797l-53 -131h-389l-84 -211h600l137 342h608l88 217h-1532q-31 0 -41 25.5t6 66.5l152 375q16 41 44 66.5t69 25.5h1527l89 217h-1616q-41 0 -84 -14t-83 -42t-74 -69t-54 -92l-226 -559q-43 -104 -2 -160.5z" />
<glyph unicode="&#xe8;" d="M102 0h1823l88 217h-1603l69 172h1604l88 217h-1604l68 170h1603l89 217h-1823zM1294 1329l117 -217h207l-94 217h-230z" />
<glyph unicode="&#xe9;" d="M102 0h1823l88 217h-1603l69 172h1604l88 217h-1604l68 170h1603l89 217h-1823zM1307 1112h206l293 217h-229z" />
<glyph unicode="&#xea;" d="M102 0h1823l88 217h-1603l69 172h1604l88 217h-1604l68 170h1603l89 217h-1823zM1112 1112h227l183 152l63 -152h227l-83 217h-357z" />
<glyph unicode="&#xeb;" d="M102 0h1823l88 217h-1603l69 172h1604l88 217h-1604l68 170h1603l89 217h-1823zM1112 1112h219l88 217h-219zM1593 1112h219l89 217h-220z" />
<glyph unicode="&#xec;" horiz-adv-x="425" d="M102 0h222l401 993h-221zM496 1329l116 -217h207l-94 217h-229z" />
<glyph unicode="&#xed;" horiz-adv-x="425" d="M102 0h222l401 993h-221zM508 1112h207l293 217h-230z" />
<glyph unicode="&#xee;" horiz-adv-x="425" d="M102 0h222l401 993h-221zM311 1112h228l182 152l63 -152h228l-84 217h-357z" />
<glyph unicode="&#xef;" horiz-adv-x="425" d="M102 0h222l401 993h-221zM313 1112h219l89 217h-220zM795 1112h219l88 217h-219z" />
<glyph unicode="&#xf0;" d="M188 56.5q41 -56.5 121 -56.5h1409q39 0 82 14.5t83 42t74 67.5t56 93l225 559q43 104 2.5 160.5t-120.5 56.5h-619l43 109h-217l-43 -109h-780l-88 -217h780l-39 -96h217l39 96h531q41 0 48 -25.5t-10 -66.5l-30 -78h-1399q-41 0 -84 -15.5t-83 -44t-73.5 -69.5 t-54.5 -90l-68 -170q-43 -104 -2 -160.5zM443 242.5q-13 25.5 3 66.5l7 17q20 35 43.5 49t58.5 14h1309l-33 -80q-16 -41 -47 -66.5t-62 -25.5h-1235q-31 0 -44 25.5z" />
<glyph unicode="&#xf1;" d="M102 0h220l313 776h1307q31 0 44 -25.5t-4 -66.5l-276 -684h219l313 776q43 104 2.5 160.5t-120.5 56.5h-1616zM975 1112h227l182 152l62 -152h323l261 217h-228l-182 -151l-61 151h-324z" />
<glyph unicode="&#xf2;" d="M188 56.5q41 -56.5 121 -56.5h1409q39 0 82 14.5t83 42t74 67.5t56 93l225 559q43 104 2.5 160.5t-120.5 56.5h-1409q-41 0 -84 -15t-83 -43t-74 -69t-54 -90l-226 -559q-43 -104 -2 -160.5zM443 242.5q-13 25.5 3 66.5l152 375q16 41 46 66.5t67 25.5h1233 q41 0 48 -25.5t-10 -66.5l-151 -375q-16 -41 -47 -66.5t-62 -25.5h-1235q-31 0 -44 25.5zM1294 1329l117 -217h207l-94 217h-230z" />
<glyph unicode="&#xf3;" d="M188 56.5q41 -56.5 121 -56.5h1409q39 0 82 14.5t83 42t74 67.5t56 93l225 559q20 49 19.5 90t-18 69t-49 43t-70.5 15h-1409q-41 0 -84 -14t-83 -42t-74 -69t-54 -92l-226 -559q-43 -104 -2 -160.5zM440 242.5q-10 25.5 6 66.5l152 375q16 41 44 66.5t69 25.5h1233 q37 0 46 -25.5t-8 -66.5l-151 -375q-16 -41 -50 -66.5t-65 -25.5h-1235q-31 0 -41 25.5zM1307 1112h206l293 217h-229z" />
<glyph unicode="&#xf4;" d="M188 56.5q41 -56.5 121 -56.5h1409q39 0 82 14.5t83 42t74 67.5t56 93l225 559q20 49 19.5 90t-18 69t-49 43t-70.5 15h-1409q-41 0 -84 -14t-83 -42t-74 -69t-54 -92l-226 -559q-43 -104 -2 -160.5zM440 242.5q-10 25.5 6 66.5l152 375q16 41 44 66.5t69 25.5h1233 q37 0 46 -25.5t-8 -66.5l-151 -375q-16 -41 -50 -66.5t-65 -25.5h-1235q-31 0 -41 25.5zM1112 1112h227l183 152l63 -152h227l-83 217h-357z" />
<glyph unicode="&#xf5;" d="M188 56.5q41 -56.5 121 -56.5h1409q39 0 82 14.5t83 42t74 67.5t56 93l225 559q20 49 19.5 90t-18 69t-49 43t-70.5 15h-1409q-41 0 -84 -14t-83 -42t-74 -69t-54 -92l-226 -559q-43 -104 -2 -160.5zM440 242.5q-10 25.5 6 66.5l152 375q16 41 44 66.5t69 25.5h1233 q37 0 46 -25.5t-8 -66.5l-151 -375q-16 -41 -50 -66.5t-65 -25.5h-1235q-31 0 -41 25.5zM981 1112h227l183 152l61 -152h324l260 217h-228l-182 -151l-61 151h-324z" />
<glyph unicode="&#xf6;" d="M188 56.5q41 -56.5 121 -56.5h1409q39 0 82 14.5t83 42t74 67.5t56 93l225 559q20 49 19.5 90t-18 69t-49 43t-70.5 15h-1409q-41 0 -84 -14t-83 -42t-74 -69t-54 -92l-226 -559q-43 -104 -2 -160.5zM440 242.5q-10 25.5 6 66.5l152 375q16 41 44 66.5t69 25.5h1233 q37 0 46 -25.5t-8 -66.5l-151 -375q-16 -41 -50 -66.5t-65 -25.5h-1235q-31 0 -41 25.5zM1112 1112h219l88 217h-219zM1593 1112h219l89 217h-220z" />
<glyph unicode="&#xf7;" horiz-adv-x="1650" d="M260 389h1446l88 217h-1446zM717 0h219l88 217h-219zM1030 776h219l88 217h-219z" />
<glyph unicode="&#xf8;" d="M188 56.5q-41 56.5 2 160.5l226 559q20 49 54 90t74 69t83 43t84 15h1409q80 0 120.5 -56t-2.5 -161l-225 -559q-23 -53 -56.5 -93t-73.5 -67.5t-83 -42t-82 -14.5h-1409q-80 0 -121 56.5zM443.5 242.5q13.5 -25.5 43.5 -25.5h709l-227 559h-258q-37 0 -67 -25.5 t-46 -66.5l-152 -375q-16 -41 -2.5 -66.5zM1241 776l229 -559h252q31 0 62 25.5t47 66.5l151 375q16 41 9.5 66.5t-47.5 25.5h-703z" />
<glyph unicode="&#xf9;" d="M188 56.5q41 -56.5 121 -56.5h1409q39 0 82 14.5t83 42t74 67.5t56 93l314 776h-220l-276 -684q-16 -41 -50 -66.5t-65 -25.5h-1235q-31 0 -41 25.5t6 66.5l277 684h-219l-314 -776q-43 -104 -2 -160.5zM1294 1329l117 -217h207l-94 217h-230z" />
<glyph unicode="&#xfa;" d="M188 56.5q41 -56.5 121 -56.5h1409q39 0 82 14.5t83 42t74 67.5t56 93l314 776h-220l-276 -684q-16 -41 -50 -66.5t-65 -25.5h-1235q-31 0 -41 25.5t6 66.5l277 684h-219l-314 -776q-43 -104 -2 -160.5zM1307 1112h206l293 217h-229z" />
<glyph unicode="&#xfb;" d="M188 56.5q41 -56.5 121 -56.5h1409q39 0 82 14.5t83 42t74 67.5t56 93l314 776h-220l-276 -684q-16 -41 -50 -66.5t-65 -25.5h-1235q-31 0 -41 25.5t6 66.5l277 684h-219l-314 -776q-43 -104 -2 -160.5zM1112 1112h227l183 152l63 -152h227l-83 217h-357z" />
<glyph unicode="&#xfc;" d="M188 56.5q41 -56.5 121 -56.5h1409q39 0 82 14.5t83 42t74 67.5t56 93l314 776h-220l-276 -684q-16 -41 -50 -66.5t-65 -25.5h-1235q-31 0 -41 25.5t6 66.5l277 684h-219l-314 -776q-43 -104 -2 -160.5zM1112 1112h219l88 217h-219zM1593 1112h219l89 217h-220z" />
<glyph unicode="&#xfd;" d="M347 447.5q40 -56.5 120 -56.5h594l-158 -391h219l158 391h596q39 0 83 14.5t84 42t73.5 67.5t54.5 93l156 385h-220l-118 -293q-16 -41 -50 -66.5t-65 -25.5h-1235q-31 0 -41 25.5t6 66.5l119 293h-219l-156 -385q-41 -104 -1 -160.5zM1307 1112h206l293 217h-229z" />
<glyph unicode="&#xfe;" d="M102 0h220l81 203h1397q39 0 82 14t83 42t74 68t56 93l68 168q20 49 19 90t-18.5 68.5t-49 43t-70.5 15.5h-1397l76 188h-219zM492 420l67 168h1309q35 0 49 -15.5t-4 -58.5l-6 -18q-16 -41 -48 -58.5t-61 -17.5h-1306z" />
<glyph unicode="&#xff;" d="M347 447.5q40 -56.5 120 -56.5h594l-158 -391h219l158 391h596q39 0 83 14.5t84 42t73.5 67.5t54.5 93l156 385h-220l-118 -293q-16 -41 -50 -66.5t-65 -25.5h-1235q-31 0 -41 25.5t6 66.5l119 293h-219l-156 -385q-41 -104 -1 -160.5zM1112 1112h219l88 217h-219z M1593 1112h219l89 217h-220z" />
<glyph unicode="&#x152;" horiz-adv-x="3497" d="M188 56.5q41 -56.5 121 -56.5h3087l88 217h-1594l70 172h1593l88 217h-1593l68 170h1593l88 217h-3086q-41 0 -84 -14t-83 -42t-74 -69t-54 -92l-226 -559q-43 -104 -2 -160.5zM440 242.5q-10 25.5 6 66.5l152 375q16 41 44 66.5t69 25.5h1185l-225 -559h-1190 q-31 0 -41 25.5z" />
<glyph unicode="&#x153;" horiz-adv-x="3497" d="M188 56.5q41 -56.5 121 -56.5h3087l88 217h-1594l70 172h1593l88 217h-1593l68 170h1593l88 217h-3086q-41 0 -84 -14t-83 -42t-74 -69t-54 -92l-226 -559q-43 -104 -2 -160.5zM440 242.5q-10 25.5 6 66.5l152 375q16 41 44 66.5t69 25.5h1185l-225 -559h-1190 q-31 0 -41 25.5z" />
<glyph unicode="&#x178;" d="M102 0h1618q41 0 84 14.5t82 42t72 67.5t55 93l314 776h-220l-155 -385h-1313q-31 0 -41 25.5t6 66.5l119 293h-219l-156 -385q-41 -104 -1 -160.5t120 -56.5h1397l-39 -96q-16 -41 -47 -59.5t-62 -18.5h-1526zM1112 1112h219l88 217h-219zM1593 1112h219l89 217h-220z " />
<glyph unicode="&#x2c6;" horiz-adv-x="905" d="M446 854h228l182 152l64 -152h227l-84 217h-356z" />
<glyph unicode="&#x2dc;" horiz-adv-x="1081" d="M401 854h228l182 152l61 -152h324l260 217h-227l-182 -151l-62 151h-323z" />
<glyph unicode="&#x2000;" horiz-adv-x="682" />
<glyph unicode="&#x2001;" horiz-adv-x="1365" />
<glyph unicode="&#x2002;" horiz-adv-x="682" />
<glyph unicode="&#x2003;" horiz-adv-x="1365" />
<glyph unicode="&#x2004;" horiz-adv-x="455" />
<glyph unicode="&#x2005;" horiz-adv-x="341" />
<glyph unicode="&#x2006;" horiz-adv-x="227" />
<glyph unicode="&#x2007;" horiz-adv-x="227" />
<glyph unicode="&#x2008;" horiz-adv-x="170" />
<glyph unicode="&#x2009;" horiz-adv-x="273" />
<glyph unicode="&#x200a;" horiz-adv-x="75" />
<glyph unicode="&#x2010;" horiz-adv-x="1263" d="M260 389h1059l88 217h-1059z" />
<glyph unicode="&#x2011;" horiz-adv-x="1263" d="M260 389h1059l88 217h-1059z" />
<glyph unicode="&#x2012;" horiz-adv-x="1263" d="M260 389h1059l88 217h-1059z" />
<glyph unicode="&#x2013;" horiz-adv-x="1263" d="M260 389h1059l88 217h-1059z" />
<glyph unicode="&#x2014;" horiz-adv-x="1650" d="M260 389h1446l88 217h-1446z" />
<glyph unicode="&#x2018;" horiz-adv-x="423" d="M348 608h219l156 385h-219z" />
<glyph unicode="&#x2019;" horiz-adv-x="423" d="M348 608h219l156 385h-219z" />
<glyph unicode="&#x201a;" horiz-adv-x="423" d="M35 -168h219l156 385h-220z" />
<glyph unicode="&#x201c;" horiz-adv-x="745" d="M348 608h219l156 385h-219zM670 608h219l155 385h-219z" />
<glyph unicode="&#x201d;" horiz-adv-x="745" d="M348 608h219l156 385h-219zM670 608h219l155 385h-219z" />
<glyph unicode="&#x201e;" horiz-adv-x="747" d="M35 -168h219l156 385h-220zM358 -168h220l155 385h-219z" />
<glyph unicode="&#x2022;" d="M188 56.5q-41 56.5 2 160.5l226 559q20 51 54 92t74 69t83 42t84 14h1409q39 0 70.5 -15t49 -43t18.5 -69t-20 -90l-225 -559q-23 -53 -56.5 -93t-73.5 -67.5t-83 -42t-82 -14.5h-1409q-80 0 -121 56.5z" />
<glyph unicode="&#x2026;" horiz-adv-x="1230" d="M102 0h220l88 217h-220zM506 0h219l88 217h-219zM909 0h219l89 217h-220z" />
<glyph unicode="&#x202f;" horiz-adv-x="273" />
<glyph unicode="&#x2039;" horiz-adv-x="421" d="M231 319l148 -172l92 228l-102 121l200 125l93 227l-287 -172z" />
<glyph unicode="&#x203a;" horiz-adv-x="421" d="M162 147l92 228l201 121l-103 125l92 227l148 -172l-143 -357z" />
<glyph unicode="&#x205f;" horiz-adv-x="341" />
<glyph unicode="&#x20ac;" horiz-adv-x="2256" d="M219 291h316l-29 -74q-43 -104 -2 -160.5t121 -56.5h1529l89 217h-1446q-61 0 -43 74h983l67 164h-983l33 84h983l68 163h-983q18 35 42.5 54.5t61.5 19.5h1442l88 217h-1530q-41 0 -84 -14t-83 -42t-73.5 -69t-54.5 -92l-29 -74h-315l-68 -163h316l-33 -84h-315z" />
<glyph unicode="&#x2122;" horiz-adv-x="739" d="M530 1061l19 43h231l-18 -43h-94l-93 -232h-43l93 232h-95zM715 829l106 267q6 12 23 12q-2 0 3 -3t12 -11.5t12.5 -19.5t5.5 -30l-5 -135q20 23 34 40.5t30 43.5q2 6 6 11q35 33 54.5 53t31.5 30.5t21.5 13.5t23.5 3h10l-110 -275h-29l72 179l-2 20q-51 -70 -82 -109.5 t-48.5 -59t-24.5 -25t-11 -5.5h-8q-4 0 -7.5 2.5t-3.5 14.5l7 176l-21 -14l-72 -179h-28z" />
<glyph unicode="&#x25fc;" horiz-adv-x="993" d="M0 0v993h993v-993h-993z" />
</font>
</defs>
</svg>
