<?xml version="1.0" standalone="no"?>
<!DOCTYPE svg PUBLIC "-//W3C//DTD SVG 1.1//EN" "http://www.w3.org/Graphics/SVG/1.1/DTD/svg11.dtd" >
<svg xmlns="http://www.w3.org/2000/svg">
<metadata></metadata>
<defs>
<font id="911_porscha_boldbold" horiz-adv-x="2027" >
<font-face units-per-em="2048" ascent="1638" descent="-410" />
<missing-glyph horiz-adv-x="1202" />
<glyph horiz-adv-x="0" />
<glyph unicode="&#xd;" horiz-adv-x="1024" />
<glyph unicode=" "  horiz-adv-x="1202" />
<glyph unicode="&#x09;" horiz-adv-x="1202" />
<glyph unicode="&#xa0;" horiz-adv-x="1202" />
<glyph unicode="!" horiz-adv-x="444" d="M109 0h264v256h-264v-256zM109 297h264v696h-264v-696z" />
<glyph unicode="&#x22;" horiz-adv-x="735" d="M121 535h248v456h-248v-456zM412 535h250v456h-250v-456z" />
<glyph unicode="#" horiz-adv-x="1996" d="M127 170h365v-170h262v170h544v-170h263v170h358v256h-358v141h358v256h-358v170h-263v-170h-544v170h-262v-170h-365v-256h365v-141h-365v-256zM754 426v141h544v-141h-544z" />
<glyph unicode="$" d="M127 0h514v-186h264v186h264v-186h265v186h290q45 0 86 15.5t72 45t49.5 73.5t18.5 102v161q0 55 -18.5 99.5t-49.5 75t-72 47t-86 16.5h-290v113h516v260h-516v184h-265v-184h-264v184h-264v-184h-291q-45 0 -85 -15.5t-70.5 -45t-49 -74t-18.5 -101.5v-162 q0 -57 18.5 -101t49 -73.5t70.5 -45t85 -15.5h291v-115h-514v-260zM391 684v18q0 27 12.5 36.5t34.5 9.5h203v-113h-201q-20 0 -34.5 11t-14.5 38zM905 260v115h264v-115h-264zM905 635v113h264v-113h-264zM1434 260v115h202q47 0 47 -47v-19q0 -27 -14 -38t-35 -11h-200z " />
<glyph unicode="%" horiz-adv-x="2408" d="M127 600v264q0 66 38 97.5t89 31.5h688q51 0 89 -34.5t38 -94.5v-264q0 -63 -38 -95t-89 -32h-688q-51 0 -89 32t-38 95zM336 692q0 -18 8 -18h504q12 0 12 18v82q0 16 -12 17h-502q-10 0 -10 -17v-82zM641 0l840 993h321l-835 -993h-326zM1389 129v264q0 63 37.5 95 t89.5 32h688q53 0 90 -33.5t37 -93.5v-264q0 -66 -37 -97.5t-90 -31.5h-688q-51 0 -89 31.5t-38 97.5zM1595 219q0 -16 9 -16h505q12 0 13 16v82q0 18 -13 18h-503q-10 0 -11 -18v-82z" />
<glyph unicode="&#x26;" horiz-adv-x="2111" d="M127 231q0 -55 18.5 -98t49 -72.5t71.5 -45t86 -15.5h1293q45 0 86 15.5t71.5 45t49 72.5t18.5 98v138h164v258h-1594q-18 0 -33.5 10t-15.5 37v18q0 27 12.5 36t34.5 9h1176v256h-1262q-45 0 -86 -15t-71.5 -45t-49 -73t-18.5 -98v-144q0 -63 45 -120q-23 -25 -34 -60 t-11 -63v-144zM391 305v19q0 27 10.5 34t30.5 11h1172v-64q0 -27 -14.5 -38t-35.5 -11h-1114q-18 0 -33.5 11.5t-15.5 37.5z" />
<glyph unicode="'" horiz-adv-x="444" d="M109 535h264v458h-264v-458z" />
<glyph unicode="(" horiz-adv-x="823" d="M121 90q0 -55 18.5 -99t48 -74t68.5 -45t80 -15h412v260h-334q-18 0 -29.5 16.5t-11.5 44.5v645q0 29 9 46.5t36 17.5h330v260h-412q-41 0 -80 -15.5t-68.5 -45t-48 -73.5t-18.5 -100v-823z" />
<glyph unicode=")" horiz-adv-x="823" d="M121 117h334q18 0 29.5 16.5t11.5 44.5v645q0 29 -9.5 46.5t-35.5 17.5h-330v260h411q41 0 80 -15.5t69 -45t48.5 -73.5t18.5 -100v-823q0 -55 -18.5 -99t-48.5 -74t-69 -45t-80 -15h-411v260z" />
<glyph unicode="*" horiz-adv-x="483" d="M104 928l138 -80l20 35l25 -35l125 82l-47 35l53 10l-37 127l-55 -21l6 49h-146l9 -49l-45 21l-44 -127l46 -10z" />
<glyph unicode="+" horiz-adv-x="1648" d="M125 369h594v-369h260v369h592v258h-592v366h-260v-366h-594v-258z" />
<glyph unicode="," horiz-adv-x="444" d="M109 -147h264v403h-264v-403z" />
<glyph unicode="-" horiz-adv-x="1259" d="M125 367h1059v260h-1059v-260z" />
<glyph unicode="." horiz-adv-x="444" d="M109 0h264v256h-264v-256z" />
<glyph unicode="/" horiz-adv-x="1187" d="M49 0h330l805 993h-324z" />
<glyph unicode="0" d="M127 231q0 -55 18.5 -98t50 -72.5t72.5 -45t84 -15.5h1370q43 0 84 15.5t73 45t51.5 72.5t19.5 98v531q0 53 -19.5 96t-51.5 73t-73 46t-84 16h-1370q-43 0 -84 -15t-72.5 -45t-50 -73t-18.5 -98v-531zM391 319v355q0 29 10.5 46t36.5 17h1198q25 0 36 -17.5t11 -45.5 v-355q0 -29 -14 -46t-35 -17h-1200q-18 0 -30.5 17.5t-12.5 45.5zM903 369h266v258h-266v-258z" />
<glyph unicode="1" d="M127 0h1823v256h-781v737h-1042v-256h776v-481h-776v-256z" />
<glyph unicode="2" d="M127 0v393q0 53 18.5 96t49 74t70.5 47.5t85 16.5h1284q20 0 34.5 10t14.5 37v18q0 27 -11 36t-36 9h-1509v256h1597q45 0 86 -15t72 -45t49.5 -73t18.5 -98v-162q0 -55 -18.5 -98t-49.5 -73t-72 -45t-86 -15h-1286q-23 0 -35 -9.5t-12 -35.5v-68h1559v-256h-1823z" />
<glyph unicode="3" d="M127 0h1595q43 0 84 16.5t73 46t51.5 72.5t19.5 96v144q0 43 -18.5 73.5t-41.5 49.5q23 23 41.5 55.5t18.5 75.5v133q0 53 -19.5 96t-51.5 73t-73 46t-84 16h-1595v-256h1509q25 0 36 -9t11 -36v-18q0 -27 -14 -37t-35 -10h-1507v-258h1507q20 0 34.5 -10.5t14.5 -36.5 v-21q0 -27 -11 -36t-36 -9h-1509v-256z" />
<glyph unicode="4" d="M127 369h1556v-369h267v993h-267v-366h-1292v366h-264v-624z" />
<glyph unicode="5" d="M127 0h1597q45 0 86 15.5t72 45t49.5 72.5t18.5 98v162q0 53 -18.5 96t-49.5 74t-72 47.5t-86 16.5h-1333v110h1559v256h-1823v-624h1509q25 0 36 -9.5t11 -35.5v-19q0 -27 -14 -38t-35 -11h-1507v-256z" />
<glyph unicode="6" d="M127 231q0 -55 18.5 -98t50 -72.5t72.5 -45t84 -15.5h1370q43 0 84 15.5t73 45t51.5 72.5t19.5 98v162q0 53 -18.5 96t-49.5 74t-72 47.5t-86 16.5h-1333v47q0 29 10.5 46t36.5 17h1512v256h-1598q-43 0 -84 -15t-72.5 -45t-50 -73t-18.5 -98v-531zM391 319v50h1245 q23 0 33 -7.5t14 -29.5v-2v-11q0 -29 -14 -46t-35 -17h-1200q-18 0 -30.5 17.5t-12.5 45.5z" />
<glyph unicode="7" d="M127 737h1268l-1014 -737h477l1092 784v209h-1823v-256z" />
<glyph unicode="8" d="M127 231q0 -55 18.5 -98t49 -72.5t70.5 -45t85 -15.5h1374q45 0 86 15.5t72 45t49.5 72.5t18.5 98v144q0 29 -10.5 60.5t-34.5 60.5q25 27 35 60.5t10 61.5v144q0 53 -18.5 96t-49.5 73t-72 46t-86 16h-1374q-45 0 -85 -15t-70.5 -45t-49 -73t-18.5 -98v-144 q0 -63 45 -120q-23 -25 -34 -60t-11 -63v-144zM391 305v19q0 27 10.5 34t30.5 11h1204q25 0 36 -9.5t11 -35.5v-19q0 -27 -14 -38t-35 -11h-1194q-20 0 -34.5 11.5t-14.5 37.5zM391 674v18q0 27 12.5 36t34.5 9h1198q25 0 36 -9t11 -36v-18q0 -27 -14 -37t-35 -10h-1194 q-20 0 -34.5 10t-14.5 37z" />
<glyph unicode="9" d="M127 0h1595q43 0 84 15.5t73 45t51.5 72.5t19.5 98v531q0 55 -19.5 98t-51.5 73t-73 45t-84 15h-1370q-43 0 -84 -15t-72.5 -45t-50 -73t-18.5 -98v-162q0 -53 18.5 -96t49 -74t70.5 -47t85 -16h1333v-48q0 -29 -9 -46t-38 -17h-1509v-256zM391 659v5v10q0 29 14.5 46 t34.5 17h1200q20 0 31.5 -17.5t11.5 -45.5v-49h-1245q-23 0 -33 6t-14 28z" />
<glyph unicode=":" horiz-adv-x="444" d="M109 0h264v254h-264v-254zM109 522h264v254h-264v-254z" />
<glyph unicode=";" horiz-adv-x="444" d="M109 -160h264v416h-264v-416zM109 528h264v256h-264v-256z" />
<glyph unicode="&#x3c;" horiz-adv-x="589" d="M90 498l213 -498h250l-199 498l199 495h-250z" />
<glyph unicode="=" horiz-adv-x="1464" d="M125 176h1261v250h-1261v-250zM125 541h1261v247h-1261v-247z" />
<glyph unicode="&#x3e;" horiz-adv-x="589" d="M80 0l199 498l-199 495h250l213 -495l-213 -498h-250z" />
<glyph unicode="?" d="M127 737h1509q25 0 36 -9t11 -36v-18q0 -27 -14 -37t-35 -10h-1040q-45 0 -86 -16.5t-71.5 -47.5t-49 -74t-18.5 -96v-96h264q0 41 12 56.5t37 15.5h1042q45 0 86 15t72 45t49.5 73t18.5 98v162q0 55 -18.5 98t-49.5 73t-72 45t-86 15h-1597v-256zM369 0h264v256h-264 v-256z" />
<glyph unicode="@" horiz-adv-x="2125" d="M127 111q0 -55 18.5 -99.5t50 -74t72.5 -45t86 -15.5h1694v258h-1614q-18 0 -30.5 17.5t-12.5 46.5v604q0 63 47 63h1297q47 0 47 -63v-287q0 -29 -12.5 -45t-30.5 -16h-76v194q0 59 -37 94t-88 35h-897q-51 0 -92 -31.5t-41 -97.5v-293q0 -66 41 -98.5t92 -32.5h1180 q43 0 84 16.5t72.5 47t51 75t19.5 99.5v428q0 55 -19.5 99t-51 75t-72.5 46t-84 15h-1467q-45 0 -86 -15t-72.5 -46t-50 -75t-18.5 -99v-780zM735 471v61q0 18 10 19h680q12 0 13 -19v-61q-1 -16 -13 -16h-682q-8 0 -8 16z" />
<glyph unicode="A" horiz-adv-x="1931" d="M51 0h328l190 227h840l193 -227h327l-821 993h-236zM776 477l213 250l211 -250h-424z" />
<glyph unicode="B" d="M127 0h1595q43 0 84 16.5t73 46t51.5 72.5t19.5 96v144q0 43 -18.5 73.5t-41.5 49.5q23 23 41.5 55.5t18.5 75.5v133q0 53 -19.5 96t-51.5 73t-73 46t-84 16h-1595v-993zM391 256v113h1241q20 0 35.5 -12.5t15.5 -39.5v-24q0 -25 -11 -31t-36 -6h-1245zM391 627v110h1241 q51 0 51 -49v-20q0 -27 -14 -34t-35 -7h-1243z" />
<glyph unicode="C" d="M127 231q0 -55 18.5 -98t50 -72.5t72.5 -45t84 -15.5h1370q43 0 84 15.5t73 45t51.5 72.5t19.5 98v171h-267v-83q0 -29 -14 -46t-35 -17h-1200q-18 0 -30.5 17.5t-12.5 45.5v355q0 29 10.5 46t36.5 17h1198q25 0 36 -17.5t11 -45.5v-80h267v168q0 53 -19.5 96t-51.5 73 t-73 46t-84 16h-1370q-43 0 -84 -15t-72.5 -45t-50 -73t-18.5 -98v-531z" />
<glyph unicode="D" d="M127 0v993h1595q43 0 84 -16t73 -46t51.5 -73t19.5 -96v-531q0 -55 -19.5 -98t-51.5 -72.5t-73 -45t-84 -15.5h-1595zM391 256h1243q20 0 34.5 17.5t14.5 45.5v355q0 29 -11 46t-36 17h-1245v-481z" />
<glyph unicode="E" d="M127 0h1823v256h-1559v113h1559v258h-1559v110h1559v256h-1823v-993z" />
<glyph unicode="F" d="M127 0h264v369h1559v258h-1559v110h1559v256h-1823v-993z" />
<glyph unicode="G" d="M127 231q0 -55 18.5 -98t50 -72.5t72.5 -45t84 -15.5h1370q43 0 84 15.5t73 45t51.5 72.5t19.5 98v162q0 53 -18.5 96t-49.5 74t-72 47.5t-86 16.5h-936v-258h848q23 0 33 -7.5t14 -29.5v-13q0 -29 -14 -46t-35 -17h-1200q-18 0 -30.5 17.5t-12.5 45.5v355q0 29 10.5 46 t36.5 17h1512v256h-1598q-43 0 -84 -15t-72.5 -45t-50 -73t-18.5 -98v-531z" />
<glyph unicode="H" d="M127 0h264v369h1292v-369h267v993h-267v-366h-1292v366h-264v-993z" />
<glyph unicode="I" d="M127 0h1823v256h-781v481h781v256h-1823v-256h776v-481h-776v-256z" />
<glyph unicode="J" d="M127 231q0 -55 18.5 -98t50 -72.5t72.5 -45t84 -15.5h1370q43 0 84 15.5t73 45t51.5 72.5t19.5 98v762h-267v-674q0 -29 -14.5 -46t-34.5 -17h-1200q-18 0 -30.5 17.5t-12.5 45.5v238h-264v-326z" />
<glyph unicode="K" horiz-adv-x="2009" d="M127 0h264v369h1139l160 -369h272l-203 498l203 495h-272l-160 -366h-1139v366h-264v-993z" />
<glyph unicode="L" d="M127 231v762h264v-674q0 -29 14.5 -46t34.5 -17h1510v-256h-1598q-43 0 -84 15.5t-72.5 45t-50 72.5t-18.5 98z" />
<glyph unicode="M" horiz-adv-x="2025" d="M117 0h264v678l655 -590l656 590v-678h266v993h-281l-643 -585l-639 585h-278v-993z" />
<glyph unicode="N" d="M127 0h264v698l1313 -698h246v993h-267v-700l-1312 700h-244v-993z" />
<glyph unicode="O" d="M127 231v531q0 55 18.5 98t50 73t72.5 45t84 15h1370q43 0 84 -16t73 -46t51.5 -73t19.5 -96v-531q0 -55 -19.5 -98t-51.5 -72.5t-73 -45t-84 -15.5h-1370q-43 0 -84 15.5t-72.5 45t-50 72.5t-18.5 98zM391 319q0 -29 12.5 -46t30.5 -17h1200q20 0 34.5 17.5t14.5 45.5 v355q0 29 -11 46t-36 17h-1198q-27 0 -37 -17.5t-10 -45.5v-355z" />
<glyph unicode="P" d="M127 0h264v369h1331q43 0 84 15t73 45t51.5 73t19.5 98v162q0 53 -19.5 96t-51.5 73t-73 46t-84 16h-1595v-993zM391 627v110h1241q51 0 51 -49v-20q0 -27 -15 -34t-34 -7h-1243z" />
<glyph unicode="Q" d="M127 233q0 -55 18.5 -99t50 -73.5t72.5 -45t84 -15.5h551v-176h266v176h553q43 0 84 15.5t73 45t51.5 73.5t19.5 99v535q0 53 -19.5 96t-51.5 74t-73 47t-84 16h-1370q-43 0 -84 -15t-72.5 -45t-50 -74t-18.5 -99v-535zM391 322v358q0 29 10.5 46t36.5 17h1198 q25 0 36 -17t11 -46v-358q0 -29 -14 -46.5t-35 -17.5h-465v236h-266v-236h-469q-18 0 -30.5 17.5t-12.5 46.5z" />
<glyph unicode="R" d="M127 0h264v369h1131l170 -369h270l-154 383q61 25 101.5 78t40.5 139v162q0 53 -19.5 96t-51.5 73t-73 46t-84 16h-1595v-993zM391 627v110h1241q51 0 51 -51v-20q0 -25 -14 -32t-35 -7h-1243z" />
<glyph unicode="S" d="M127 0h1597q45 0 86 15.5t72 45t49.5 72.5t18.5 98v162q0 53 -18.5 96t-49.5 74t-72 47.5t-86 16.5h-1284q-20 0 -34.5 10t-14.5 37v18q0 27 12.5 36t34.5 9h1512v256h-1600q-45 0 -85 -15t-70.5 -45t-49 -73t-18.5 -98v-162q0 -55 18.5 -98t49 -73t70.5 -45t85 -15h1286 q25 0 36 -9.5t11 -35.5v-19q0 -27 -14 -38t-35 -11h-1507v-256z" />
<glyph unicode="T" d="M127 737h776v-737h266v737h781v256h-1823v-256z" />
<glyph unicode="U" d="M127 231q0 -55 18.5 -98t50 -72.5t72.5 -45t84 -15.5h1598v993h-267v-737h-1249q-18 0 -30.5 17.5t-12.5 45.5v674h-264v-762z" />
<glyph unicode="V" horiz-adv-x="1931" d="M51 993l821 -993h236l821 993h-330l-610 -725l-608 725h-330z" />
<glyph unicode="W" horiz-adv-x="2363" d="M109 993l579 -993h309l238 408l240 -408h307l581 993h-315l-422 -708l-418 708h-311l180 -307l-235 -401l-420 708h-313z" />
<glyph unicode="X" horiz-adv-x="1990" d="M94 0h273l159 369h985l162 -369h273l-201 498l201 495h-273l-162 -366h-987l-157 366h-273l199 -495z" />
<glyph unicode="Y" d="M127 0h1597q45 0 86 15.5t72 45t49.5 72.5t18.5 98v762h-267v-364h-1249q-18 0 -30.5 16.5t-12.5 44.5v303h-264v-391q0 -55 18.5 -98t50 -73t72.5 -45t84 -15h1331v-66q0 -27 -14 -38t-35 -11h-1507v-256z" />
<glyph unicode="Z" d="M127 0v393q0 53 18.5 96t49 74t70.5 47.5t85 16.5h1284q20 0 34.5 10t14.5 37v63h-1556v256h1823v-393q0 -55 -18.5 -98t-49.5 -73t-72 -45t-86 -15h-1286q-23 0 -35 -9.5t-12 -35.5v-68h1559v-256h-1823z" />
<glyph unicode="[" horiz-adv-x="833" d="M121 -143h637v260h-385v770h385v260h-637v-1290z" />
<glyph unicode="\" horiz-adv-x="1187" d="M49 993h326l809 -993h-328z" />
<glyph unicode="]" horiz-adv-x="833" d="M119 117h385v770h-385v260h637v-1290h-637v260z" />
<glyph unicode="^" horiz-adv-x="1931" d="M51 0h330l608 725l610 -725h330l-821 993h-236z" />
<glyph unicode="_" horiz-adv-x="1648" d="M125 -61h1446v217h-1446v-217z" />
<glyph unicode="`" horiz-adv-x="516" d="M43 1137l227 -217h242l-201 217h-268z" />
<glyph unicode="a" d="M127 0h264v369h1292v-369h267v762q0 53 -19.5 96t-51.5 73t-73 46t-84 16h-1370q-43 0 -84 -15t-72.5 -45t-50 -73t-18.5 -98v-762zM391 627v47q0 29 10.5 46t36.5 17h1198q25 0 36 -17.5t11 -45.5v-47h-1292z" />
<glyph unicode="b" d="M127 0h1595q43 0 84 16.5t73 46t51.5 72.5t19.5 96v144q0 43 -18.5 73.5t-41.5 49.5q23 23 41.5 55.5t18.5 75.5v133q0 53 -19.5 96t-51.5 73t-73 46t-84 16h-1595v-993zM391 256v113h1239q20 0 36.5 -12.5t16.5 -39.5v-24q0 -25 -11 -31t-36 -6h-1245zM391 627v110h1241 q51 0 51 -49v-20q0 -27 -14 -34t-35 -7h-1243z" />
<glyph unicode="c" d="M127 231q0 -55 18.5 -98t50 -72.5t72.5 -45t84 -15.5h1598v256h-1516q-18 0 -30.5 17.5t-12.5 45.5v355q0 29 10.5 46t36.5 17h1512v256h-1598q-43 0 -84 -15t-72.5 -45t-50 -73t-18.5 -98v-531z" />
<glyph unicode="d" d="M127 0v993h1595q43 0 84 -16t73 -46t51.5 -73t19.5 -96v-531q0 -55 -19.5 -98t-51.5 -72.5t-73 -45t-84 -15.5h-1595zM391 256h1243q20 0 34.5 17.5t14.5 45.5v355q0 29 -11 46t-36 17h-1245v-481z" />
<glyph unicode="e" d="M127 0h1823v256h-1559v113h1559v258h-1559v110h1559v256h-1823v-993z" />
<glyph unicode="f" d="M127 0h264v369h1559v258h-1559v110h1559v256h-1823v-993z" />
<glyph unicode="g" d="M127 231q0 -55 18.5 -98t50 -72.5t72.5 -45t84 -15.5h1370q43 0 84 15.5t73 45t51.5 72.5t19.5 98v326h-267v-238q0 -29 -14 -46t-35 -17h-1200q-18 0 -30.5 17.5t-12.5 45.5v355q0 29 10.5 46t36.5 17h1512v256h-1598q-43 0 -84 -15t-72.5 -45t-50 -73t-18.5 -98v-531z " />
<glyph unicode="h" d="M127 0h264v369h1292v-369h267v993h-267v-366h-1292v366h-264v-993z" />
<glyph unicode="i" horiz-adv-x="446" d="M109 0h268v993h-268v-993z" />
<glyph unicode="j" d="M127 0h1595q43 0 84 15.5t73 45t51.5 72.5t19.5 98v762h-267v-674q0 -29 -14.5 -46t-34.5 -17h-1507v-256z" />
<glyph unicode="k" horiz-adv-x="2009" d="M127 0h264v369h1139l160 -369h272l-203 498l203 495h-272l-160 -366h-1139v366h-264v-993z" />
<glyph unicode="l" d="M127 0h1823v256h-1559v737h-264v-993z" />
<glyph unicode="m" horiz-adv-x="2240" d="M127 0h264v674q0 29 10.5 46t38.5 17h570v-737h266v737h573q23 0 35 -17.5t12 -45.5v-674h267v758q0 53 -19.5 96t-51.5 73.5t-73 48t-84 17.5h-1581q-45 0 -86 -16t-72.5 -46t-50 -74t-18.5 -99v-758z" />
<glyph unicode="n" d="M127 0v993h1595q43 0 84 -15t73 -45t51.5 -73t19.5 -98v-762h-267v674q0 29 -14 46t-35 17h-1243v-737h-264z" />
<glyph unicode="o" d="M127 231v531q0 55 18.5 98t50 73t72.5 45t84 15h1370q43 0 84 -16t73 -46t51.5 -73t19.5 -96v-531q0 -55 -19.5 -98t-51.5 -72.5t-73 -45t-84 -15.5h-1370q-43 0 -84 15.5t-72.5 45t-50 72.5t-18.5 98zM391 319q0 -29 12.5 -46t30.5 -17h1200q20 0 34.5 17.5t14.5 45.5 v355q0 29 -11 46t-36 17h-1198q-27 0 -37 -17.5t-10 -45.5v-355z" />
<glyph unicode="p" d="M127 0h264v369h1331q43 0 84 15t73 45t51.5 73t19.5 98v162q0 53 -19.5 96t-51.5 73t-73 46t-84 16h-1595v-993zM391 627v110h1241q51 0 51 -49v-22q0 -25 -15 -32t-34 -7h-1243z" />
<glyph unicode="q" d="M127 233q0 -55 18.5 -99t50 -73.5t72.5 -45t84 -15.5h760l74 -176h274l-74 176h336q43 0 84 15.5t73 45t51.5 73.5t19.5 99v535q0 53 -19.5 96t-51.5 74t-73 47t-84 16h-1370q-43 0 -84 -15t-72.5 -45t-50 -74t-18.5 -99v-535zM391 322v358q0 29 10.5 46t36.5 17h1198 q25 0 36 -17t11 -46v-358q0 -29 -14 -46.5t-35 -17.5h-358l-94 236h-277l96 -236h-567q-18 0 -30.5 17.5t-12.5 46.5z" />
<glyph unicode="r" d="M127 0h264v369h1131l170 -369h270l-154 383q61 25 101.5 78t40.5 139v162q0 53 -19.5 96t-51.5 73t-73 46t-84 16h-1595v-993zM391 627v110h1241q51 0 51 -51v-20q0 -25 -14 -32t-35 -7h-1243z" />
<glyph unicode="s" d="M127 0h1597q45 0 86 15.5t72 45t49.5 72.5t18.5 98v162q0 53 -18.5 96t-49.5 74t-72 47.5t-86 16.5h-1284q-20 0 -34.5 10t-14.5 37v18q0 27 12.5 36t34.5 9h1512v256h-1600q-45 0 -85 -15t-70.5 -45t-49 -73t-18.5 -98v-162q0 -55 18.5 -98t49 -73t70.5 -45t85 -15h1286 q25 0 36 -9.5t11 -35.5v-19q0 -27 -14 -38t-35 -11h-1507v-256z" />
<glyph unicode="t" d="M127 737h776v-737h266v737h781v256h-1823v-256z" />
<glyph unicode="u" d="M127 231q0 -55 18.5 -98t50 -72.5t72.5 -45t84 -15.5h1370q43 0 84 15.5t73 45t51.5 72.5t19.5 98v762h-267v-674q0 -29 -14.5 -46t-34.5 -17h-1200q-18 0 -30.5 17.5t-12.5 45.5v674h-264v-762z" />
<glyph unicode="v" horiz-adv-x="1931" d="M51 993l821 -993h236l821 993h-330l-610 -725l-608 725h-330z" />
<glyph unicode="w" horiz-adv-x="2240" d="M127 236v757h264v-674q0 -29 10.5 -46t38.5 -17h570v737h266v-737h573q23 0 35 17.5t12 45.5v674h267v-757q0 -53 -19.5 -96.5t-51.5 -74t-73 -48t-84 -17.5h-1581q-45 0 -86 16.5t-72.5 46t-50 73.5t-18.5 100z" />
<glyph unicode="x" horiz-adv-x="1990" d="M94 0h273l159 369h985l162 -369h273l-201 498l201 495h-273l-162 -366h-987l-157 366h-273l199 -495z" />
<glyph unicode="y" d="M127 602q0 -55 18.5 -98t50 -73t72.5 -45t84 -15h551v-371h266v371h553q43 0 84 15t73 45t51.5 73t19.5 98v391h-267v-303q0 -29 -14 -45t-35 -16h-1200q-18 0 -30.5 16.5t-12.5 44.5v303h-264v-391z" />
<glyph unicode="z" d="M127 0h1823v256h-1151l1151 516v221h-1823v-256h1147l-1147 -516v-221z" />
<glyph unicode="{" d="M127 0v762q0 55 18.5 98t50 73t72.5 45t84 15h1370q43 0 84 -15t73 -45t51.5 -73t19.5 -98v-762h-267v674q0 29 -14 46t-35 17h-1200q-18 0 -30.5 -17.5t-12.5 -45.5v-674h-264z" />
<glyph unicode="|" horiz-adv-x="444" d="M109 -205h264v1419h-264v-1419z" />
<glyph unicode="}" horiz-adv-x="563" d="M115 737h106v-737h268v993h-374v-256z" />
<glyph unicode="~" d="M127 231v162q0 53 18.5 96t49 74t70.5 47.5t85 16.5h1333v47q0 29 -9 46t-38 17h-1509v256h1595q43 0 84 -15t73 -45t51.5 -73t19.5 -98v-762h-1598q-43 0 -84 15.5t-72.5 45t-50 72.5t-18.5 98zM391 319q0 -29 14.5 -46t34.5 -17h1243v113h-1245q-23 0 -33 -7.5 t-14 -29.5v-13z" />
<glyph horiz-adv-x="528" />
<glyph unicode="&#xa1;" horiz-adv-x="444" d="M106 0h267v696h-267v-696zM106 737h267v256h-267v-256z" />
<glyph unicode="&#xa2;" d="M127 236q0 -57 18.5 -101.5t50 -74t72.5 -45t84 -15.5h625v-186h266v186h707v260h-707v488h707v260h-707v184h-266v-184h-625q-43 0 -84 -15.5t-72.5 -45t-50 -74t-18.5 -101.5v-536zM391 324v360q0 29 10.5 46.5t36.5 17.5h539v-488h-543q-18 0 -30.5 17.5t-12.5 46.5z " />
<glyph unicode="&#xa3;" horiz-adv-x="1998" d="M127 0h1794v256h-1235v113h746v260h-746v63q0 27 12.5 36t36.5 9h266v256h-352q-43 0 -84 -16t-72.5 -46t-51 -73t-19.5 -96v-133h-295v-258h295v-115h-295v-256z" />
<glyph unicode="&#xa4;" horiz-adv-x="2029" d="M113 0l145 358v269l-145 366h272l45 -96h1219l41 96h272l-147 -372v-259l147 -362h-272l-48 98h-1214l-45 -98h-270zM489 319h1092v361h-1092v-361z" />
<glyph unicode="&#xa5;" d="M127 610q0 -55 18.5 -99t50 -73.5t72.5 -45t84 -15.5h551v-31h-575v-209h575v-28h-575v-209h575v-215h266v215h578v209h-578v28h578v209h-578v31h553q43 0 84 15.5t73 45t51.5 73.5t19.5 99v396h-267v-308q0 -29 -14 -46t-35 -17h-1200q-18 0 -30.5 17.5t-12.5 45.5v308 h-264v-396z" />
<glyph unicode="&#xa6;" horiz-adv-x="399" d="M109 -205h219v668h-219v-668zM109 547h219v667h-219v-667z" />
<glyph unicode="&#xa7;" d="M127 51v-260h1597q45 0 86 15.5t72 45t49.5 73.5t18.5 102v161q0 33 -9.5 57.5t-19.5 47.5q10 23 19.5 48.5t9.5 57.5v164q0 55 -18.5 99.5t-49.5 75t-72 47t-86 16.5h-1284q-20 0 -34.5 11t-14.5 38v18q0 27 12.5 36t34.5 9h1512v261h-1600q-45 0 -85 -15.5t-70.5 -45.5 t-49 -74t-18.5 -101v-164q0 -31 7 -57.5t18 -48.5q-10 -23 -17.5 -49.5t-7.5 -55.5v-164q0 -55 18.5 -99t49 -73.5t70.5 -45t85 -15.5h1286q47 0 47 -47v-19q0 -27 -14 -38t-35 -11h-1507zM391 475v19q0 27 12.5 36t34.5 9h1223q22 -6 22 -45v-19q0 -27 -14 -38t-35 -11 h-1202q-16 2 -28.5 13.5t-12.5 35.5z" />
<glyph unicode="&#xa8;" horiz-adv-x="899" d="M121 686h254v217h-254v-217zM569 686h252v217h-252v-217z" />
<glyph unicode="&#xa9;" horiz-adv-x="565" d="M117 831q0 -51 24 -90q20 -29 32.5 -42t37.5 -29q45 -23 94 -23q55 0 99.5 34t62.5 67q10 23 17.5 42t7.5 41q0 41 -29 93v-2q-10 23 -26.5 39t-47.5 36q-63 12 -63 -4l-21 -20v45q-37 0 -70.5 -15.5t-60.5 -41t-42 -59.5t-15 -71zM193 831q0 12 1 25.5t7 24.5 q-6 -23 -6 -50v-24q0 -10 4 -21q-4 10 -5 21.5t-1 23.5zM270 831q0 45 35 46q14 0 33 -39l70 20q-14 41 -31 62q16 -16 28.5 -38t12.5 -44v-7q0 -41 -33 -77q16 27 25 59l-68 23q-14 -45 -39 -45q-33 0 -33 40z" />
<glyph unicode="&#xaa;" d="M127 231v162q0 53 18.5 96t49 74t70.5 47.5t85 16.5h1333v47q0 29 -9 46t-38 17h-1509v256h1595q43 0 84 -15t73 -45t51.5 -73t19.5 -98v-531q0 -55 -19.5 -98t-51.5 -72.5t-73 -45t-84 -15.5h-1370q-43 0 -84 15.5t-72.5 45t-50 72.5t-18.5 98zM391 319q0 -29 14.5 -46 t34.5 -17h1200q20 0 31.5 17.5t11.5 45.5v50h-1245q-23 0 -33 -7.5t-14 -29.5v-13z" />
<glyph unicode="&#xab;" horiz-adv-x="733" d="M121 309l246 -198v274l-125 100l125 105v274l-246 -200v-355zM412 309l247 -198v274l-124 100l124 105v274l-247 -200v-355z" />
<glyph unicode="&#xac;" horiz-adv-x="1648" d="M125 358h1186v-358h260v606h-1446v-248z" />
<glyph unicode="&#xad;" horiz-adv-x="1056" d="M123 313h856v217h-856v-217z" />
<glyph unicode="&#xae;" horiz-adv-x="565" d="M117 831q0 -53 24 -96q59 -88 164 -88h2q14 0 38 6t46.5 18.5t42 29t29.5 38.5l-2 -2q14 27 22.5 50.5t8.5 43.5q0 43 -28 91.5t-73 68.5h2q-47 27 -88 27q-29 0 -51.5 -7t-42.5 -20h2h-2h-2h2q-25 -12 -42 -30.5t-36 -57.5q-2 -4 0 -2t0 -2q-8 -16 -12 -32.5t-4 -35.5z M190 836q0 29 17 53v-2q0 4 2 4v-129q-2 0 -2 4q-4 12 -6 19.5t-4 13.5t-3 14t-4 23zM274 940q17 4 31 4h4q41 0 74 -33.5t33 -76.5v-5q-4 -16 -6 -23t-13 -30l4 2q-8 -8 -10 -12l-14 22q-2 2 -5 6.5t-1 0.5q-8 12 -9 12q29 20 29 63q0 12 -14 37q-12 12 -19 15h-2 q-2 2 -4 2l-2 2l10 -6h-2v2h-2q-4 2 -5 4t-3 4l2 -4q-23 14 -59 14h-17zM283 721v67h2q6 -4 22 -28l17 -39h-19h-6h-16zM283 860v8h30v-2q0 -6 -20 -6h-10z" />
<glyph unicode="&#xaf;" horiz-adv-x="1648" d="M125 684h1446v217h-1446v-217z" />
<glyph unicode="&#xb0;" horiz-adv-x="325" d="M74 686h219v217h-219v-217zM172 788v15h21v-15h-21z" />
<glyph unicode="&#xb1;" horiz-adv-x="1648" d="M125 0h1446v256h-1446v-256zM125 532h594v-204h260v204h592v256h-592v205h-260v-205h-594v-256z" />
<glyph unicode="&#xb2;" horiz-adv-x="1112" d="M123 520v213q0 63 47 101h-47v182h790q49 0 85 -31t36 -92v-92q0 -37 -14 -63.5t-37 -41.5h51v-176h-911z" />
<glyph unicode="&#xb3;" horiz-adv-x="1112" d="M123 522h790q49 0 85 30t36 91v70q0 14 -8 28.5t-16 24.5h-2q10 12 18 31.5t8 31.5v64q0 61 -35.5 92t-85.5 31h-790v-494z" />
<glyph unicode="&#xb4;" horiz-adv-x="516" d="M47 686l201 217h268l-227 -217h-242z" />
<glyph unicode="&#xb5;" d="M127 0v993h1823v-993h-1823zM391 256h1292v481h-1292v-481z" />
<glyph unicode="&#xb6;" horiz-adv-x="1665" d="M125 504q0 -55 18.5 -99.5t50 -74t72.5 -45t84 -15.5h195v-600h262v1030q0 29 12 37t35 8h471v-1075h262v1336h-1237q-43 0 -84 -16.5t-72.5 -47.5t-50 -74t-18.5 -96v-268z" />
<glyph unicode="&#xb7;" horiz-adv-x="399" d="M109 313h219v217h-219v-217z" />
<glyph unicode="&#xb8;" horiz-adv-x="438" d="M-240 -68v-229h600v346h-241v-117h-359z" />
<glyph unicode="&#xb9;" horiz-adv-x="1157" d="M123 520h956v180h-356v316h-600v-185h397v-131h-397v-180z" />
<glyph unicode="&#xba;" horiz-adv-x="1112" d="M123 641v252q0 61 38 92t87 31h665q49 0 85 -33t36 -90v-252q0 -59 -35.5 -90t-85.5 -31h-665q-49 0 -87 31t-38 90zM324 725q0 -16 6 -16h495q12 0 13 16v86q0 16 -13 16h-493q-8 0 -8 -16v-86z" />
<glyph unicode="&#xbb;" horiz-adv-x="733" d="M119 111v274l123 100l-123 105v274l246 -200v-355zM410 111v274l125 100l-125 105v274l247 -200v-355z" />
<glyph unicode="&#xbc;" horiz-adv-x="2424" d="M127 473h922l-398 -473h326l428 508v-340h737v-168h205v520h-205v-164h-530v164h-197l397 473h-321l-410 -483v154h-352v329h-602v-192h391v-137h-391v-191z" />
<glyph unicode="&#xbd;" horiz-adv-x="2424" d="M127 473v191h391v137h-391v192h602v-329h352v-154l410 483h321l-397 -473h805q53 0 90 -31.5t37 -95.5v-98q0 -39 -15.5 -65.5t-39.5 -43.5h55v-186h-942v223q0 70 47 107h-47v178l-428 -508h-326l398 473h-922z" />
<glyph unicode="&#xbe;" horiz-adv-x="2373" d="M127 473h815q23 0 41 4t35 17l-418 -494h326l428 508v-340h737v-168h205v520h-205v-164h-528v164h-199l397 473h-321l-385 -456q14 29 14 63v74q0 16 -9 30.5t-18 24.5h-2q10 12 19.5 33.5t9.5 34.5v65q0 66 -38 97.5t-89 31.5h-815v-518z" />
<glyph unicode="&#xbf;" d="M127 231q0 -55 18.5 -98t49 -72.5t70.5 -45t85 -15.5h1600v256h-1512q-23 0 -35 9t-12 36v18q0 27 14.5 37.5t34.5 10.5h1041q45 0 86 16t71.5 47t49 74t18.5 96v96h-264q0 -41 -12.5 -56t-36.5 -15h-1043q-45 0 -85 -15.5t-70.5 -45t-49 -72.5t-18.5 -99v-162zM1442 737 h264v256h-264v-256z" />
<glyph unicode="&#xc0;" horiz-adv-x="1931" d="M51 0h328l190 229h840l193 -229h327l-821 1006h-236zM680 1329l248 -260h266l-221 260h-293zM776 485l213 254l211 -254h-424z" />
<glyph unicode="&#xc1;" horiz-adv-x="1931" d="M51 0h328l190 229h840l193 -229h327l-821 1006h-236zM776 485l213 254l211 -254h-424zM784 1069h267l249 260h-294z" />
<glyph unicode="&#xc2;" horiz-adv-x="1931" d="M51 0h328l190 229h840l193 -229h327l-821 1006h-236zM598 1069h287l104 131l111 -131h286l-208 260h-371zM776 485l213 254l211 -254h-424z" />
<glyph unicode="&#xc3;" horiz-adv-x="1931" d="M51 0h328l190 229h840l193 -229h327l-821 1006h-236zM471 1069h287l104 131l109 -131h338l209 260h-287l-107 -131l-106 131h-338zM776 485l213 254l211 -254h-424z" />
<glyph unicode="&#xc4;" horiz-adv-x="1931" d="M51 0h328l190 229h840l193 -229h327l-821 1006h-236zM625 1069h266v260h-266v-260zM776 485l213 254l211 -254h-424zM1094 1069h264v260h-264v-260z" />
<glyph unicode="&#xc5;" horiz-adv-x="1931" d="M51 0h328l190 229h840l193 -229h327l-821 1006h-236zM776 485l213 254l211 -254h-424zM858 1069h264v260h-264v-260zM977 1192v16h27v-16h-27z" />
<glyph unicode="&#xc6;" horiz-adv-x="3635" d="M127 0h268v369h1311v-369h1849v256h-1579v113h1579v258h-1579v110h1579v256h-3199q-45 0 -86 -15t-72.5 -45t-51 -73t-19.5 -98v-762zM395 627v47q0 29 10.5 46t38.5 17h1262v-110h-1311z" />
<glyph unicode="&#xc7;" d="M127 233q0 -55 18.5 -99t50 -73.5t72.5 -45t84 -15.5h678v-76h-379v-254h635v330h436q43 0 84 15.5t73 45t51.5 73.5t19.5 99v173h-267v-82q0 -29 -14 -46.5t-35 -17.5h-1200q-18 0 -30.5 17.5t-12.5 46.5v360q0 29 10.5 45t36.5 16h1198q25 0 36 -16t11 -45v-82h267v170 q0 53 -19.5 96t-51.5 74t-73 47.5t-84 16.5h-1370q-43 0 -84 -15.5t-72.5 -45.5t-50 -74t-18.5 -99v-539z" />
<glyph unicode="&#xc8;" d="M127 0h1823v260h-1559v115h1559v260h-1559v110h1559v261h-1823v-1006zM729 1329l248 -260h268l-221 260h-295z" />
<glyph unicode="&#xc9;" d="M127 0h1823v260h-1559v115h1559v260h-1559v110h1559v261h-1823v-1006zM831 1069h267l248 260h-295z" />
<glyph unicode="&#xca;" d="M127 0h1823v260h-1559v115h1559v260h-1559v110h1559v261h-1823v-1006zM643 1069h287l106 131l109 -131h287l-209 260h-371z" />
<glyph unicode="&#xcb;" d="M127 0h1823v260h-1559v115h1559v260h-1559v110h1559v261h-1823v-1006zM672 1069h264v260h-264v-260zM1139 1069h264v260h-264v-260z" />
<glyph unicode="&#xcc;" d="M127 0h1823v260h-781v485h781v261h-1823v-261h776v-485h-776v-260zM729 1329l248 -260h268l-221 260h-295z" />
<glyph unicode="&#xcd;" d="M127 0h1823v260h-781v485h781v261h-1823v-261h776v-485h-776v-260zM831 1069h267l248 260h-295z" />
<glyph unicode="&#xce;" d="M127 0h1823v260h-781v485h781v261h-1823v-261h776v-485h-776v-260zM643 1069h287l106 131l109 -131h287l-209 260h-371z" />
<glyph unicode="&#xcf;" d="M127 0h1823v260h-781v485h781v261h-1823v-261h776v-485h-776v-260zM672 1069h264v260h-264v-260zM1139 1069h264v260h-264v-260z" />
<glyph unicode="&#xd0;" horiz-adv-x="2410" d="M127 369h373v-369h1605q43 0 84 15.5t73 45t51.5 72.5t19.5 98v531q0 53 -19.5 96t-51.5 73t-73 46t-84 16h-1605v-366h-373v-258zM766 256v113h516v258h-516v110h1253q23 0 35 -17.5t12 -45.5v-355q0 -29 -15 -46t-34 -17h-1251z" />
<glyph unicode="&#xd1;" d="M127 0h264v707l1313 -707h246v1006h-267v-709l-1312 709h-244v-1006zM545 1069h286l105 131l106 -131h340l209 260h-286l-107 -131l-106 131h-338z" />
<glyph unicode="&#xd2;" d="M127 233q0 -55 18.5 -99t50 -73.5t72.5 -45t84 -15.5h1370q43 0 84 15.5t73 45t51.5 73.5t19.5 99v539q0 55 -19.5 99t-51.5 74t-73 45.5t-84 15.5h-1370q-43 0 -84 -16.5t-72.5 -47.5t-50 -74t-18.5 -96v-539zM391 324v360q0 29 12.5 45t34.5 16h1198q29 0 38 -16t9 -45 v-360q0 -63 -43 -64h-1200q-20 0 -34.5 17.5t-14.5 46.5zM729 1329l248 -260h268l-221 260h-295z" />
<glyph unicode="&#xd3;" d="M127 233q0 -55 18.5 -99t50 -73.5t72.5 -45t84 -15.5h1370q43 0 84 15.5t73 45t51.5 73.5t19.5 99v539q0 53 -19.5 96t-51.5 74t-73 47.5t-84 16.5h-1370q-43 0 -84 -15.5t-72.5 -45.5t-50 -74t-18.5 -99v-539zM391 324v360q0 29 10.5 45t36.5 16h1198q25 0 36 -16 t11 -45v-360q0 -29 -14 -46.5t-35 -17.5h-1200q-18 0 -30.5 17.5t-12.5 46.5zM831 1069h267l248 260h-295z" />
<glyph unicode="&#xd4;" d="M127 233q0 -55 18.5 -99t50 -73.5t72.5 -45t84 -15.5h1370q43 0 84 15.5t73 45t51.5 73.5t19.5 99v539q0 53 -19.5 96t-51.5 74t-73 47.5t-84 16.5h-1370q-43 0 -84 -15.5t-72.5 -45.5t-50 -74t-18.5 -99v-539zM391 324v360q0 29 10.5 45t36.5 16h1198q25 0 36 -16 t11 -45v-360q0 -29 -14 -46.5t-35 -17.5h-1200q-18 0 -30.5 17.5t-12.5 46.5zM643 1069h287l106 131l109 -131h287l-209 260h-371z" />
<glyph unicode="&#xd5;" d="M127 233q0 -55 18.5 -99t50 -73.5t72.5 -45t84 -15.5h1370q43 0 84 15.5t73 45t51.5 73.5t19.5 99v539q0 53 -19.5 96t-51.5 74t-73 47.5t-84 16.5h-1370q-43 0 -84 -15.5t-72.5 -45.5t-50 -74t-18.5 -99v-539zM391 324v360q0 29 10.5 45t36.5 16h1198q25 0 36 -16 t11 -45v-360q0 -29 -14 -46.5t-35 -17.5h-1200q-18 0 -30.5 17.5t-12.5 46.5zM516 1069h287l104 131l109 -131h338l209 260h-287l-105 -131l-108 131h-338z" />
<glyph unicode="&#xd6;" d="M127 233q0 -55 18.5 -99t50 -73.5t72.5 -45t84 -15.5h1370q43 0 84 15.5t73 45t51.5 73.5t19.5 99v539q0 53 -19.5 96t-51.5 74t-73 47.5t-84 16.5h-1370q-43 0 -84 -15.5t-72.5 -45.5t-50 -74t-18.5 -99v-539zM391 324v360q0 29 10.5 45t36.5 16h1198q25 0 36 -16 t11 -45v-360q0 -29 -14 -46.5t-35 -17.5h-1200q-18 0 -30.5 17.5t-12.5 46.5zM672 1069h264v260h-264v-260zM1139 1069h264v260h-264v-260z" />
<glyph unicode="&#xd7;" horiz-adv-x="872" d="M70 279l178 -177l211 209l211 -209l178 177l-211 210l211 211l-178 179l-211 -211l-211 211l-178 -179l211 -211z" />
<glyph unicode="&#xd8;" d="M127 231q0 -55 18.5 -98t50 -72.5t72.5 -45t84 -15.5h1370q43 0 84 15.5t73 45t51.5 72.5t19.5 98v531q0 53 -19.5 96t-51.5 73t-73 46t-84 16h-1370q-43 0 -84 -15t-72.5 -45t-50 -73t-18.5 -98v-531zM391 319v355q0 29 10.5 46t36.5 17h629l-399 -481h-234 q-18 0 -30.5 17.5t-12.5 45.5zM999 256l398 481h239q25 0 36 -17.5t11 -45.5v-355q0 -29 -14 -46t-35 -17h-635z" />
<glyph unicode="&#xd9;" d="M127 233q0 -55 18.5 -99t50 -73.5t72.5 -45t84 -15.5h1598v1006h-267v-746h-1249q-18 0 -30.5 17.5t-12.5 46.5v682h-264v-773zM729 1329l248 -260h268l-221 260h-295z" />
<glyph unicode="&#xda;" d="M127 233q0 -55 18.5 -99t50 -73.5t72.5 -45t84 -15.5h1598v1006h-267v-746h-1249q-18 0 -30.5 17.5t-12.5 46.5v682h-264v-773zM831 1069h267l248 260h-295z" />
<glyph unicode="&#xdb;" d="M127 233q0 -55 18.5 -99t50 -73.5t72.5 -45t84 -15.5h1598v1006h-267v-746h-1249q-18 0 -30.5 17.5t-12.5 46.5v682h-264v-773zM643 1069h287l106 131l109 -131h287l-209 260h-371z" />
<glyph unicode="&#xdc;" d="M127 233q0 -55 18.5 -99t50 -73.5t72.5 -45t84 -15.5h1598v1006h-267v-746h-1249q-18 0 -30.5 17.5t-12.5 46.5v682h-264v-773zM672 1069h264v260h-264v-260zM1139 1069h264v260h-264v-260z" />
<glyph unicode="&#xdd;" d="M127 0h1597q45 0 86 15.5t72 45t49.5 73.5t18.5 99v773h-267v-369h-1249q-18 0 -30.5 16.5t-12.5 44.5v308h-264v-396q0 -55 18.5 -99t50 -73.5t72.5 -45t84 -15.5h1331v-68q0 -27 -14 -38t-35 -11h-1507v-260zM831 1069h267l248 260h-295z" />
<glyph unicode="&#xde;" d="M127 0h264v193h1331q43 0 84 15t73 45t51.5 73t19.5 98v160q0 53 -19.5 96t-51.5 72.5t-73 46t-84 16.5h-1331v178h-264v-993zM391 449v108h1245q23 0 35 -8t12 -35v-18q0 -27 -15 -37t-34 -10h-1243z" />
<glyph unicode="&#xdf;" d="M127 -309h264v991q0 29 14.5 45t34.5 16v2h1196q25 0 36 -9t11 -36v-18q0 -27 -14 -38t-35 -11h-1030v-258h1030q20 0 34.5 -11.5t14.5 -37.5v-21q0 -27 -11 -36t-36 -9h-1032v-260h1118q43 0 84 16.5t73 47t51.5 73.5t19.5 96v146q0 43 -18.5 74.5t-41.5 50.5 q23 23 41.5 56.5t18.5 74.5v137q0 53 -19.5 96t-51.5 74t-73 47.5t-84 16.5h-1370q-43 0 -84 -15.5t-71.5 -46.5t-50 -75t-19.5 -99v-1079z" />
<glyph unicode="&#xe0;" d="M127 0h264v375h1292v-375h267v772q0 53 -19.5 96t-51.5 74t-73 47.5t-84 16.5h-1370q-43 0 -84 -15.5t-72.5 -45.5t-50 -74t-18.5 -99v-772zM391 635v49q0 29 10.5 45t36.5 16h1198q25 0 36 -16t11 -45v-49h-1292zM729 1329l248 -260h268l-221 260h-295z" />
<glyph unicode="&#xe1;" d="M127 0h264v375h1292v-375h267v772q0 53 -19.5 96t-51.5 74t-73 47.5t-84 16.5h-1370q-43 0 -84 -15.5t-72.5 -45.5t-50 -74t-18.5 -99v-772zM391 635v49q0 29 10.5 45t36.5 16h1198q25 0 36 -16t11 -45v-49h-1292zM831 1069h267l248 260h-295z" />
<glyph unicode="&#xe2;" d="M127 0h264v375h1292v-375h267v772q0 53 -19.5 96t-51.5 74t-73 47.5t-84 16.5h-1370q-43 0 -84 -15.5t-72.5 -45.5t-50 -74t-18.5 -99v-772zM391 635v49q0 29 10.5 45t36.5 16h1198q25 0 36 -16t11 -45v-49h-1292zM643 1069h287l106 131l109 -131h287l-209 260h-371z" />
<glyph unicode="&#xe3;" d="M127 0h264v375h1292v-375h267v772q0 53 -19.5 96t-51.5 74t-73 47.5t-84 16.5h-1370q-43 0 -84 -15.5t-72.5 -45.5t-50 -74t-18.5 -99v-772zM391 635v49q0 29 10.5 45t36.5 16h1198q25 0 36 -16t11 -45v-49h-1292zM516 1069h287l104 131l109 -131h338l209 260h-287 l-105 -131l-108 131h-338z" />
<glyph unicode="&#xe4;" d="M127 0h264v375h1292v-375h267v772q0 53 -19.5 96t-51.5 74t-73 47.5t-84 16.5h-1370q-43 0 -84 -15.5t-72.5 -45.5t-50 -74t-18.5 -99v-772zM391 635v49q0 29 10.5 45t36.5 16h1198q25 0 36 -16t11 -45v-49h-1292zM672 1069h264v260h-264v-260zM1139 1069h264v260h-264 v-260z" />
<glyph unicode="&#xe5;" d="M127 0h264v375h1292v-375h267v772q0 53 -19.5 96t-51.5 74t-73 47.5t-84 16.5h-1370q-43 0 -84 -15.5t-72.5 -45.5t-50 -74t-18.5 -99v-772zM391 635v49q0 29 10.5 45t36.5 16h1198q25 0 36 -16t11 -45v-49h-1292zM903 1069h266v260h-266v-260zM1024 1192v16h25v-16h-25z " />
<glyph unicode="&#xe6;" horiz-adv-x="3635" d="M127 0h268v369h1311v-369h1849v256h-1579v113h1579v258h-1579v110h1579v256h-3199q-45 0 -86 -15t-72.5 -45t-51 -73t-19.5 -98v-762zM395 627v47q0 29 10.5 46t38.5 17h1262v-110h-1311z" />
<glyph unicode="&#xe7;" d="M127 233q0 -55 18.5 -99t50 -73.5t72.5 -45t84 -15.5h750v-76h-379v-254h635v330h592v260h-1516q-18 0 -30.5 17.5t-12.5 46.5v360q0 29 10.5 45t36.5 16h1512v261h-1598q-43 0 -84 -15.5t-72.5 -45.5t-50 -74t-18.5 -99v-539z" />
<glyph unicode="&#xe8;" d="M127 0h1823v260h-1559v115h1559v260h-1559v110h1559v261h-1823v-1006zM729 1329l248 -260h268l-221 260h-295z" />
<glyph unicode="&#xe9;" d="M127 0h1823v260h-1559v115h1559v260h-1559v110h1559v261h-1823v-1006zM831 1069h267l248 260h-295z" />
<glyph unicode="&#xea;" d="M127 0h1823v260h-1559v115h1559v260h-1559v110h1559v261h-1823v-1006zM643 1069h287l106 131l109 -131h287l-209 260h-371z" />
<glyph unicode="&#xeb;" d="M127 0h1823v260h-1559v115h1559v260h-1559v110h1559v261h-1823v-1006zM672 1069h264v260h-264v-260zM1139 1069h264v260h-264v-260z" />
<glyph unicode="&#xec;" horiz-adv-x="434" d="M-41 1329l227 -260h244l-203 260h-268zM117 0h243v1006h-243v-1006z" />
<glyph unicode="&#xed;" horiz-adv-x="434" d="M51 1069h244l227 260h-268zM117 0h243v1006h-243v-1006z" />
<glyph unicode="&#xee;" horiz-adv-x="452" d="M-127 1069h274l101 131l104 -131h275l-201 260h-354zM121 0h256v1006h-256v-1006z" />
<glyph unicode="&#xef;" horiz-adv-x="452" d="M-98 1069h252v260h-252v-260zM121 0h256v1006h-256v-1006zM348 1069h254v260h-254v-260z" />
<glyph unicode="&#xf0;" d="M127 233q0 -55 18.5 -99t50 -73.5t72.5 -45t84 -15.5h1370q43 0 84 15.5t73 45t51.5 73.5t19.5 99v533q0 55 -19.5 98t-51.5 73t-73 45t-84 15h-575v105h-262v-105h-758v-256h758v-92h262v92h489q29 0 38 -17t9 -46v-49h-1333q-45 0 -85 -16.5t-70.5 -47t-49 -73.5 t-18.5 -97v-162zM391 319v15q6 37 47 37h1245v-52q0 -29 -11.5 -45t-31.5 -16h-1200q-20 0 -34.5 16.5t-14.5 44.5z" />
<glyph unicode="&#xf1;" d="M127 0h264v745h1243q20 0 34.5 -16t14.5 -45v-684h267v772q0 55 -19.5 99t-51.5 74t-73 45.5t-84 15.5h-1595v-1006zM510 1069h287l106 131l107 -131h338l208 260h-286l-105 -131l-108 131h-338z" />
<glyph unicode="&#xf2;" d="M127 233q0 -55 18.5 -99t50 -73.5t72.5 -45t84 -15.5h1370q43 0 84 15.5t73 45t51.5 73.5t19.5 99v539q0 55 -19.5 99t-51.5 74t-73 45.5t-84 15.5h-1370q-43 0 -84 -16.5t-72.5 -47.5t-50 -74t-18.5 -96v-539zM391 324v360q0 29 12.5 45t34.5 16h1198q29 0 38 -16t9 -45 v-360q0 -63 -43 -64h-1200q-20 0 -34.5 17.5t-14.5 46.5zM729 1329l248 -260h268l-221 260h-295z" />
<glyph unicode="&#xf3;" d="M127 233q0 -55 18.5 -99t50 -73.5t72.5 -45t84 -15.5h1370q43 0 84 15.5t73 45t51.5 73.5t19.5 99v539q0 53 -19.5 96t-51.5 74t-73 47.5t-84 16.5h-1370q-43 0 -84 -15.5t-72.5 -45.5t-50 -74t-18.5 -99v-539zM391 324v360q0 29 10.5 45t36.5 16h1198q25 0 36 -16 t11 -45v-360q0 -29 -14 -46.5t-35 -17.5h-1200q-18 0 -30.5 17.5t-12.5 46.5zM831 1069h267l248 260h-295z" />
<glyph unicode="&#xf4;" d="M127 233q0 -55 18.5 -99t50 -73.5t72.5 -45t84 -15.5h1370q43 0 84 15.5t73 45t51.5 73.5t19.5 99v539q0 53 -19.5 96t-51.5 74t-73 47.5t-84 16.5h-1370q-43 0 -84 -15.5t-72.5 -45.5t-50 -74t-18.5 -99v-539zM391 324v360q0 29 10.5 45t36.5 16h1198q25 0 36 -16 t11 -45v-360q0 -29 -14 -46.5t-35 -17.5h-1200q-18 0 -30.5 17.5t-12.5 46.5zM643 1069h287l106 131l109 -131h287l-209 260h-371z" />
<glyph unicode="&#xf5;" d="M127 233q0 -55 18.5 -99t50 -73.5t72.5 -45t84 -15.5h1370q43 0 84 15.5t73 45t51.5 73.5t19.5 99v539q0 53 -19.5 96t-51.5 74t-73 47.5t-84 16.5h-1370q-43 0 -84 -15.5t-72.5 -45.5t-50 -74t-18.5 -99v-539zM391 324v360q0 29 10.5 45t36.5 16h1198q25 0 36 -16 t11 -45v-360q0 -29 -14 -46.5t-35 -17.5h-1200q-18 0 -30.5 17.5t-12.5 46.5zM516 1069h287l104 131l109 -131h338l209 260h-287l-105 -131l-108 131h-338z" />
<glyph unicode="&#xf6;" d="M127 233q0 -55 18.5 -99t50 -73.5t72.5 -45t84 -15.5h1370q43 0 84 15.5t73 45t51.5 73.5t19.5 99v539q0 53 -19.5 96t-51.5 74t-73 47.5t-84 16.5h-1370q-43 0 -84 -15.5t-72.5 -45.5t-50 -74t-18.5 -99v-539zM391 324v360q0 29 10.5 45t36.5 16h1198q25 0 36 -16 t11 -45v-360q0 -29 -14 -46.5t-35 -17.5h-1200q-18 0 -30.5 17.5t-12.5 46.5zM672 1069h264v260h-264v-260zM1139 1069h264v260h-264v-260z" />
<glyph unicode="&#xf7;" horiz-adv-x="1648" d="M125 369h1446v258h-1446v-258zM719 0h262v256h-262v-256zM719 737h262v256h-262v-256z" />
<glyph unicode="&#xf8;" d="M127 231v531q0 53 18.5 96t50 73t72.5 46t84 16h1370q43 0 84 -15t73 -45t51.5 -73t19.5 -98v-531q0 -55 -19.5 -98t-51.5 -72.5t-73 -45t-84 -15.5h-1370q-43 0 -84 15.5t-72.5 45t-50 72.5t-18.5 98zM391 319q0 -29 14.5 -46t34.5 -17h635l-397 481h-240 q-23 0 -35 -17.5t-12 -45.5v-355zM1008 737l399 -481h233q20 0 31.5 17.5t11.5 45.5v355q0 29 -9 46t-38 17h-628z" />
<glyph unicode="&#xf9;" d="M127 233q0 -55 18.5 -99t50 -73.5t72.5 -45t84 -15.5h1370q43 0 84 15.5t73 45t51.5 73.5t19.5 99v773h-267v-682q0 -29 -14.5 -46.5t-34.5 -17.5h-1200q-18 0 -30.5 17.5t-12.5 46.5v682h-264v-773zM729 1329l248 -260h268l-221 260h-295z" />
<glyph unicode="&#xfa;" d="M127 233q0 -55 18.5 -99t50 -73.5t72.5 -45t84 -15.5h1370q43 0 84 15.5t73 45t51.5 73.5t19.5 99v773h-267v-682q0 -29 -14.5 -46.5t-34.5 -17.5h-1200q-18 0 -30.5 17.5t-12.5 46.5v682h-264v-773zM831 1069h267l248 260h-295z" />
<glyph unicode="&#xfb;" d="M127 233q0 -55 18.5 -99t50 -73.5t72.5 -45t84 -15.5h1370q43 0 84 15.5t73 45t51.5 73.5t19.5 99v773h-267v-682q0 -29 -14.5 -46.5t-34.5 -17.5h-1200q-18 0 -30.5 17.5t-12.5 46.5v682h-264v-773zM643 1069h287l106 131l109 -131h287l-209 260h-371z" />
<glyph unicode="&#xfc;" d="M127 233q0 -55 18.5 -99t50 -73.5t72.5 -45t84 -15.5h1370q43 0 84 15.5t73 45t51.5 73.5t19.5 99v773h-267v-682q0 -29 -14.5 -46.5t-34.5 -17.5h-1200q-18 0 -30.5 17.5t-12.5 46.5v682h-264v-773zM672 1069h264v260h-264v-260zM1139 1069h264v260h-264v-260z" />
<glyph unicode="&#xfd;" d="M127 610q0 -55 18.5 -99t50 -73.5t72.5 -45t84 -15.5h551v-377h266v377h553q43 0 84 15.5t73 45t51.5 73.5t19.5 99v396h-267v-308q0 -29 -14 -45t-35 -16h-1200q-18 0 -30.5 16.5t-12.5 44.5v308h-264v-396zM831 1069h267l248 260h-295z" />
<glyph unicode="&#xfe;" d="M127 0h264v193h1331q43 0 84 15t73 45t51.5 73t19.5 98v160q0 53 -19.5 96t-51.5 72.5t-73 46t-84 16.5h-1331v178h-264v-993zM391 449v108h1245q23 0 35 -8t12 -35v-18q0 -27 -15 -37t-34 -10h-1243z" />
<glyph unicode="&#xff;" d="M127 610q0 -55 18.5 -99t50 -73.5t72.5 -45t84 -15.5h551v-377h266v377h553q43 0 84 15.5t73 45t51.5 73.5t19.5 99v396h-267v-308q0 -29 -14 -45t-35 -16h-1200q-18 0 -30.5 16.5t-12.5 44.5v308h-264v-396zM672 1069h264v260h-264v-260zM1139 1069h264v260h-264v-260z " />
<glyph unicode="&#x152;" horiz-adv-x="3500" d="M127 231q0 -55 19.5 -98t51 -72.5t72.5 -45t86 -15.5h3064v256h-1567v113h1567v258h-1567v110h1567v256h-3064q-45 0 -86 -15t-72.5 -45t-51 -73t-19.5 -98v-531zM395 319v355q0 29 10.5 46t38.5 17h1141v-481h-1145q-20 0 -32.5 17.5t-12.5 45.5z" />
<glyph unicode="&#x153;" horiz-adv-x="3500" d="M127 231q0 -55 19.5 -98t51 -72.5t72.5 -45t86 -15.5h3064v256h-1567v113h1567v258h-1567v110h1567v256h-3064q-45 0 -86 -15t-72.5 -45t-51 -73t-19.5 -98v-531zM395 319v355q0 29 10.5 46t38.5 17h1141v-481h-1145q-20 0 -32.5 17.5t-12.5 45.5z" />
<glyph unicode="&#x178;" d="M127 0h1597q45 0 86 15.5t72 45t49.5 73.5t18.5 99v773h-267v-369h-1249q-18 0 -30.5 16.5t-12.5 44.5v308h-264v-396q0 -55 18.5 -99t50 -73.5t72.5 -45t84 -15.5h1331v-68q0 -27 -14 -38t-35 -11h-1507v-260zM672 1069h264v260h-264v-260zM1139 1069h264v260h-264v-260 z" />
<glyph unicode="&#x2c6;" horiz-adv-x="899" d="M94 686h275l102 109l104 -109h273l-199 217h-354z" />
<glyph unicode="&#x2dc;" horiz-adv-x="1081" d="M53 686h281l102 109l105 -109h329l205 217h-280l-103 -110l-104 110h-330z" />
<glyph unicode="&#x2000;" horiz-adv-x="682" />
<glyph unicode="&#x2001;" horiz-adv-x="1365" />
<glyph unicode="&#x2002;" horiz-adv-x="682" />
<glyph unicode="&#x2003;" horiz-adv-x="1365" />
<glyph unicode="&#x2004;" horiz-adv-x="455" />
<glyph unicode="&#x2005;" horiz-adv-x="341" />
<glyph unicode="&#x2006;" horiz-adv-x="227" />
<glyph unicode="&#x2007;" horiz-adv-x="227" />
<glyph unicode="&#x2008;" horiz-adv-x="170" />
<glyph unicode="&#x2009;" horiz-adv-x="273" />
<glyph unicode="&#x200a;" horiz-adv-x="75" />
<glyph unicode="&#x2010;" horiz-adv-x="1259" d="M125 367h1059v260h-1059v-260z" />
<glyph unicode="&#x2011;" horiz-adv-x="1259" d="M125 367h1059v260h-1059v-260z" />
<glyph unicode="&#x2012;" horiz-adv-x="1259" d="M125 367h1059v260h-1059v-260z" />
<glyph unicode="&#x2013;" horiz-adv-x="1259" d="M125 313h1059v217h-1059v-217z" />
<glyph unicode="&#x2014;" horiz-adv-x="1648" d="M125 313h1446v217h-1446v-217z" />
<glyph unicode="&#x2018;" horiz-adv-x="399" d="M109 535h219v385h-219v-385z" />
<glyph unicode="&#x2019;" horiz-adv-x="399" d="M109 535h219v385h-219v-385z" />
<glyph unicode="&#x201a;" horiz-adv-x="399" d="M109 -147h219v385h-219v-385z" />
<glyph unicode="&#x201c;" horiz-adv-x="735" d="M121 535h248v385h-248v-385zM412 535h250v385h-250v-385z" />
<glyph unicode="&#x201d;" horiz-adv-x="735" d="M121 535h248v385h-248v-385zM412 535h250v385h-250v-385z" />
<glyph unicode="&#x201e;" horiz-adv-x="737" d="M121 -147h248v385h-248v-385zM414 -147h250v385h-250v-385z" />
<glyph unicode="&#x2022;" d="M127 231v531q0 55 18.5 98t50 73t72.5 45t84 15h1370q43 0 84 -16t73 -46t51.5 -73t19.5 -96v-531q0 -55 -19.5 -98t-51.5 -72.5t-73 -45t-84 -15.5h-1370q-43 0 -84 15.5t-72.5 45t-50 72.5t-18.5 98z" />
<glyph unicode="&#x2026;" horiz-adv-x="1226" d="M125 0h258v217h-258v-217zM508 0h258v217h-258v-217zM891 0h260v217h-260v-217z" />
<glyph unicode="&#x202f;" horiz-adv-x="273" />
<glyph unicode="&#x2039;" horiz-adv-x="395" d="M109 309l217 -198v274l-111 100l111 105v274l-217 -200v-355z" />
<glyph unicode="&#x203a;" horiz-adv-x="395" d="M109 111v274l108 100l-108 105v274l217 -200v-355z" />
<glyph unicode="&#x205f;" horiz-adv-x="341" />
<glyph unicode="&#x20ac;" horiz-adv-x="2256" d="M127 276h307v-45q0 -55 18.5 -98t50.5 -72.5t72.5 -45t86.5 -15.5h1517v256h-1436q-25 0 -36 20h950v205h-959v31h959v205h-950q10 20 41 20h1431v256h-1517q-45 0 -86 -15t-73 -45t-50.5 -73t-18.5 -98v-45h-307v-205h307v-31h-307v-205z" />
<glyph unicode="&#x2122;" horiz-adv-x="729" d="M119 891v80h260v-8q8 12 31 12v-45q2 0 13 1t24.5 4t13.5 9q14 -14 26 -39v2l23 -55q0 6 2 10q0 10 6 15q10 12 14.5 21t10.5 17q23 37 34 46.5t44 9.5h32v-275h-73v84q-25 -59 -39.5 -71.5t-24.5 -12.5h-6q-12 0 -20.5 3t-18.5 24l-25 63v-90h-75v195h-78v-195h-88v195 h-86zM426 969h2l-2 2v-2zM428 969q33 -15 33 -25q-18 18 -33 25z" />
<glyph unicode="&#x25fc;" horiz-adv-x="993" d="M0 0v993h993v-993h-993z" />
</font>
</defs>
</svg>
