<?xml version="1.0" standalone="no"?>
<!DOCTYPE svg PUBLIC "-//W3C//DTD SVG 1.1//EN" "http://www.w3.org/Graphics/SVG/1.1/DTD/svg11.dtd" >
<svg xmlns="http://www.w3.org/2000/svg">
<metadata></metadata>
<defs>
<font id="911_porscha_bold_italicBdIt" horiz-adv-x="2027" >
<font-face units-per-em="2048" ascent="1638" descent="-410" />
<missing-glyph horiz-adv-x="1202" />
<glyph horiz-adv-x="0" />
<glyph unicode="&#xd;" horiz-adv-x="1024" />
<glyph unicode=" "  horiz-adv-x="1202" />
<glyph unicode="&#x09;" horiz-adv-x="1202" />
<glyph unicode="&#xa0;" horiz-adv-x="1202" />
<glyph unicode="!" horiz-adv-x="444" d="M109 0h264l104 256h-264zM229 297h265l280 696h-264z" />
<glyph unicode="&#x22;" horiz-adv-x="735" d="M336 535h248l186 456h-248zM627 535h250l186 456h-250z" />
<glyph unicode="#" horiz-adv-x="1996" d="M197 170h364l-69 -170h262l69 170h545l-70 -170h263l69 170h359l102 256h-358l57 141h358l103 256h-359l70 170h-262l-70 -170h-545l70 170h-262l-70 -170h-364l-103 -256h365l-57 -141h-365zM926 426l57 141h545l-58 -141h-544z" />
<glyph unicode="$" d="M127 0h514l-76 -186h264l76 186h264l-75 -186h264l76 186h290q45 0 92.5 15.5t90.5 45t78.5 73.5t58.5 102l65 161q23 55 22 99.5t-19.5 75t-52.5 47t-79 16.5h-290l45 113h516l106 260h-516l74 184h-264l-74 -184h-264l73 184h-264l-73 -184h-291q-90 0 -181.5 -60.5 t-138.5 -175.5l-65 -162q-23 -57 -22 -101t19.5 -73.5t52.5 -45t79 -15.5h291l-48 -115h-514zM667 646q-9 11 1 38l8 18q10 27 25.5 36.5t37.5 9.5h203l-45 -113h-201q-20 0 -29 11zM1010 260l47 115h264l-47 -115h-264zM1161 635l45 113h264l-45 -113h-264zM1538 260 l47 115h203q25 0 32 -10.5t-3 -36.5l-9 -19q-10 -27 -29.5 -38t-39.5 -11h-201z" />
<glyph unicode="%" horiz-adv-x="2408" d="M368.5 505q-24.5 32 0.5 95l106 264q27 66 78 97.5t102 31.5h688q51 0 75 -34.5t-1 -94.5l-106 -264q-25 -63 -76 -95t-102 -32h-689q-51 0 -75.5 32zM616 674h504q10 0 21 18l33 82q6 16 -7 17h-501q-10 0 -17 -17l-33 -82q-10 -18 0 -18zM641 0l1241 993h322 l-1237 -993h-326zM1439 31.5q-26 31.5 1 97.5l108 264q25 63 76 95t102 32h689q53 0 75.5 -33.5t-0.5 -93.5l-108 -264q-27 -66 -76 -97.5t-102 -31.5h-688q-51 0 -77 31.5zM1683 219q-6 -16 3 -16h505q12 0 19 16l33 82q8 18 -5 18h-503q-10 0 -19 -18z" />
<glyph unicode="&#x26;" horiz-adv-x="2111" d="M219 60q43 -60 133 -60h1293q45 0 92 15.5t90 45t79 72.5t58 98l55 138h164l105 258h-1594q-18 0 -29.5 10t-0.5 37l8 18q10 27 25.5 36t37.5 9h1176l104 256h-1261q-45 0 -92.5 -15t-90.5 -45t-78.5 -73t-58.5 -98l-57 -144q-27 -66 -4 -120q-31 -25 -56.5 -60 t-37.5 -63l-58 -144q-45 -111 -2 -171zM514 305l8 19q10 27 23.5 34t36.5 11h1171l-27 -64q-10 -27 -28.5 -38t-38.5 -11h-1114q-18 0 -29.5 11.5t-1.5 37.5z" />
<glyph unicode="'" horiz-adv-x="444" d="M324 535h264l186 458h-264z" />
<glyph unicode="(" horiz-adv-x="823" d="M135 -8q0 -45 18.5 -75t51.5 -45t74 -15h411l105 260h-334q-18 0 -22.5 16.5t5.5 44.5l261 645q12 29 28.5 46.5t42.5 17.5h330l104 260h-411q-84 0 -173 -60.5t-137 -173.5l-331 -823q-23 -55 -23 -98z" />
<glyph unicode=")" horiz-adv-x="823" d="M63 -143l105 260h334q18 0 36.5 16.5t28.5 44.5l260 645q12 29 10.5 46.5t-28.5 17.5h-330l105 260h411q41 0 74 -15.5t51.5 -45t18.5 -74.5q0 -43 -23 -99l-332 -823q-47 -113 -136 -173t-173 -60h-412z" />
<glyph unicode="*" horiz-adv-x="483" d="M479 928l105 -80l34 35l11 -35l157 82l-32 35l57 10l14 127l-63 -21l26 49h-145l-12 -49l-37 21l-94 -127l41 -10z" />
<glyph unicode="+" horiz-adv-x="1648" d="M274 369h594l-149 -369h260l149 369h592l105 258h-592l147 366h-260l-147 -366h-594z" />
<glyph unicode="," horiz-adv-x="444" d="M49 -147h264l164 403h-264z" />
<glyph unicode="-" horiz-adv-x="1259" d="M272 367h1059l107 260h-1059z" />
<glyph unicode="." horiz-adv-x="444" d="M109 0h264l104 256h-264z" />
<glyph unicode="/" horiz-adv-x="1187" d="M49 0h330l1206 993h-323z" />
<glyph unicode="0" d="M199.5 133q1.5 -43 21 -72.5t54 -45t77.5 -15.5h1370q43 0 91.5 15.5t91.5 45t79.5 72.5t59.5 98l213 531q20 53 19 96t-20.5 73t-54 46t-77.5 16h-1370q-43 0 -90.5 -15t-91.5 -45t-79.5 -73t-58.5 -98l-213 -531q-23 -55 -21.5 -98zM515.5 273.5q-5.5 17.5 4.5 45.5 l144 355q10 29 27.5 46t43.5 17h1198q25 0 29 -17.5t-6 -45.5l-144 -355q-10 -29 -31.5 -46t-41.5 -17h-1200q-18 0 -23.5 17.5zM1053 369h266l104 258h-266z" />
<glyph unicode="1" d="M127 0h1823l104 256h-780l297 737h-1043l-104 -256h776l-192 -481h-777z" />
<glyph unicode="2" d="M127 0l160 393q20 53 56 96t79 74t90 47.5t92 16.5h1284q20 0 39 10t29 37l8 18q10 27 2 36t-33 9h-1509l104 256h1598q45 0 78.5 -15t53 -45t20.5 -73t-21 -98l-66 -162q-23 -55 -58.5 -98t-78.5 -73t-89 -45t-91 -15h-1286q-23 0 -39.5 -9.5t-26.5 -35.5l-26 -68h1558 l-104 -256h-1823z" />
<glyph unicode="3" d="M127 0h1595q43 0 91.5 16.5t92.5 46t79.5 72.5t58.5 96l57 144q16 43 11 73.5t-21 49.5q33 23 64.5 55.5t48.5 75.5l53 133q20 53 19 96t-20.5 73t-54 46t-77.5 16h-1596l-104 -256h1509q25 0 33 -9t-2 -36l-8 -18q-10 -27 -28.5 -37t-39.5 -10h-1507l-105 -258h1508 q20 0 29.5 -10.5t-1.5 -36.5l-8 -21q-10 -27 -24.5 -36t-38.5 -9h-1510z" />
<glyph unicode="4" d="M276 369h1557l-150 -369h267l401 993h-266l-148 -366h-1292l148 366h-265z" />
<glyph unicode="5" d="M127 0h1597q45 0 92.5 15.5t90.5 45t78.5 72.5t58.5 98l65 162q41 106 0 170t-131 64h-1333l43 110h1559l104 256h-1823l-252 -624h1510q25 0 32 -9.5t-3 -35.5l-9 -19q-10 -27 -28.5 -38t-38.5 -11h-1508z" />
<glyph unicode="6" d="M199.5 133q1.5 -43 21 -72.5t54 -45t77.5 -15.5h1370q43 0 91.5 15.5t91.5 45t79.5 72.5t59.5 98l65 162q41 106 0 170t-131 64h-1333l19 47q10 29 27.5 46t43.5 17h1512l104 256h-1597q-43 0 -90.5 -15t-91.5 -45t-79.5 -73t-58.5 -98l-213 -531q-23 -55 -21.5 -98z M515.5 273.5q-5.5 17.5 4.5 45.5l21 50h1245q23 0 30 -7.5t1 -29.5v-2l-5 -11q-10 -29 -31.5 -46t-41.5 -17h-1200q-18 0 -23.5 17.5z" />
<glyph unicode="7" d="M381 0h477l1409 784l84 209h-1823l-104 -256h1268z" />
<glyph unicode="8" d="M199.5 133q1.5 -43 20 -72.5t52 -45t78.5 -15.5h1374q45 0 92.5 15.5t90.5 45t78.5 72.5t58.5 98l57 144q10 29 14.5 60.5t-10.5 60.5q35 27 58.5 60.5t36.5 61.5l57 144q43 106 1 168.5t-132 62.5h-1374q-45 0 -91.5 -15t-89.5 -45t-78.5 -73t-58.5 -98l-57 -144 q-27 -66 -4 -120q-31 -25 -56.5 -60t-37.5 -63l-58 -144q-23 -55 -21.5 -98zM514 305l8 19q10 27 23.5 34t36.5 11h1204q25 0 32 -9.5t-3 -35.5l-9 -19q-10 -27 -28.5 -38t-38.5 -11h-1194q-20 0 -30.5 11.5t-0.5 37.5zM663.5 637q-10.5 10 0.5 37l8 18q10 27 25.5 36 t37.5 9h1198q25 0 33 -9t-2 -36l-8 -18q-10 -27 -28.5 -37t-39.5 -10h-1194q-20 0 -30.5 10z" />
<glyph unicode="9" d="M127 0h1595q43 0 91.5 15.5t91.5 45t79.5 72.5t59.5 98l213 531q23 55 20.5 98t-22 73t-54 45t-77.5 15h-1370q-43 0 -90.5 -15t-91.5 -45t-79.5 -73t-58.5 -98l-65 -162q-41 -106 -1 -169.5t130 -63.5h1333l-19 -48q-10 -29 -26.5 -46t-44.5 -17h-1510zM657 659l2 5 l5 10q10 29 31.5 46t41.5 17h1200q20 0 24.5 -17.5t-5.5 -45.5l-21 -49h-1245q-23 0 -31 6t-2 28z" />
<glyph unicode=":" horiz-adv-x="444" d="M109 0h264l102 254h-264zM319 522h265l102 254h-264z" />
<glyph unicode=";" horiz-adv-x="444" d="M43 -160h264l170 416h-264zM322 528h264l104 256h-264z" />
<glyph unicode="&#x3c;" horiz-adv-x="589" d="M291 498l12 -498h250l2 498l399 495h-249z" />
<glyph unicode="=" horiz-adv-x="1464" d="M197 176h1261l101 250h-1262zM344 541h1262l100 247h-1262z" />
<glyph unicode="&#x3e;" horiz-adv-x="589" d="M80 0l399 498l2 495h250l12 -495l-413 -498h-250z" />
<glyph unicode="?" d="M369 0h264l104 256h-264zM424 737h1509q25 0 33 -9t-2 -36l-8 -18q-10 -27 -28.5 -37t-39.5 -10h-1040q-45 0 -92 -16.5t-91 -47.5t-80 -74t-57 -96l-39 -96h265q16 41 34.5 56.5t42.5 15.5h1043q45 0 91 15t89 45t79 73t58 98l66 162q23 55 21.5 98t-21 73t-53 45 t-78.5 15h-1598z" />
<glyph unicode="@" horiz-adv-x="2125" d="M150.5 11.5q1.5 -44.5 20.5 -74t54 -45t80 -15.5h1694l104 258h-1614q-18 0 -23 17.5t5 46.5l244 604q27 63 73 63h1297q47 0 20 -63l-114 -287q-10 -29 -30 -45t-38 -16h-76l78 194q25 59 2.5 94t-74.5 35h-897q-51 0 -105 -31.5t-81 -97.5l-119 -293q-27 -66 1 -98.5 t79 -32.5h1180q43 0 91 16.5t92 47t81 75t59 99.5l174 428q23 55 21 99t-21.5 75t-54.5 46t-78 15h-1466q-45 0 -92 -15t-91 -46t-80 -75t-59 -99l-315 -780q-23 -55 -21.5 -99.5zM926 471l24 61q6 18 19 19h680q10 0 4 -19l-25 -61q-6 -16 -18 -16h-682q-8 0 -2 16z" />
<glyph unicode="A" horiz-adv-x="1931" d="M51 0h328l283 227h839l101 -227h327l-420 993h-235zM969 477l313 250l111 -250h-424z" />
<glyph unicode="B" d="M127 0h1595q43 0 91.5 16.5t92.5 46t79.5 72.5t58.5 96l57 144q12 33 12 58q0 7 -1 15q-5 30 -21 50q33 23 64.5 55.5t48.5 75.5l53 133q19 50 19 92q0 46 -20 77q-20 30 -54.5 46t-77.5 16h-1596zM496 256l45 113h1241q20 0 30.5 -12.5t-0.5 -39.5l-10 -24 q-10 -25 -23.5 -31t-37.5 -6h-1245zM645 627l43 110h1241q38 0 38 -26q0 -10 -5 -23l-8 -20q-10 -27 -27.5 -34t-38.5 -7h-1243z" />
<glyph unicode="C" d="M200 133q2 -43 21 -72.5t53.5 -45t77.5 -15.5h1370q43 0 91.5 15.5t91.5 45t79.5 72.5t59.5 98l67 170h-266l-33 -82q-10 -29 -31.5 -46t-41.5 -17h-1200q-18 0 -23.5 17.5t4.5 45.5l144 355q10 29 27.5 46t43.5 17h1198q25 0 29 -17.5t-6 -45.5l-33 -80h266l68 168 q19 50 19 92q0 46 -20 77q-20 30 -54.5 46t-77.5 16h-1370q-43 0 -90.5 -15t-91.5 -45t-79.5 -73t-58.5 -98l-213 -531q-22 -52 -22 -93q1 -2 1 -5z" />
<glyph unicode="D" d="M127 0l401 993h1596q43 0 77.5 -16t54.5 -46q21 -32 20 -77q0 -41 -19 -92l-213 -531q-23 -55 -59.5 -98t-79.5 -72.5t-91.5 -45t-91.5 -15.5h-1595zM496 256h1243q20 0 41.5 17.5t31.5 45.5l144 355q7 21 7 35q0 6 -1 11q-4 17 -29 17h-1245z" />
<glyph unicode="E" d="M127 0h1823l104 256h-1558l45 113h1558l105 258h-1559l43 110h1559l104 256h-1823z" />
<glyph unicode="F" d="M127 0h264l150 369h1558l105 258h-1559l43 110h1559l104 256h-1823z" />
<glyph unicode="G" d="M200 133q1 -43 20.5 -72.5t54 -45t77.5 -15.5h1370q43 0 91.5 15.5t91.5 45t79.5 72.5t59.5 98l65 162q21 53 21 95.5t-21 74.5q-41 64 -131 64h-936l-104 -258h848q23 0 30 -7.5t1 -29.5l-5 -13q-10 -29 -31.5 -46t-41.5 -17h-1200q-18 0 -23.5 17.5t4.5 45.5l144 355 q10 29 27.5 46t43.5 17h1512l104 256h-1597q-43 0 -90.5 -15t-91.5 -45t-79.5 -73t-58.5 -98l-213 -531q-22 -52 -22 -93q0 -2 1 -5z" />
<glyph unicode="H" d="M127 0h264l150 369h1292l-150 -369h267l401 993h-266l-148 -366h-1292l148 366h-265z" />
<glyph unicode="I" d="M127 0h1823l104 256h-780l192 481h781l104 256h-1823l-104 -256h776l-192 -481h-777z" />
<glyph unicode="J" d="M200 133q1 -43 20.5 -72.5t54 -45t77.5 -15.5h1370q43 0 91.5 15.5t91.5 45t79.5 72.5t59.5 98l307 762h-266l-273 -674q-10 -29 -31.5 -46t-41.5 -17h-1200q-18 0 -23.5 17.5t4.5 45.5l96 238h-264l-131 -326q-22 -52 -22 -93q0 -2 1 -5z" />
<glyph unicode="K" horiz-adv-x="2009" d="M127 0h264l150 369h1138l11 -369h272l-2 498l403 495h-272l-307 -366h-1139l148 366h-265z" />
<glyph unicode="L" d="M200 137q0 42 21 94l307 762h265l-273 -674q-10 -29 -3 -46t28 -17h1509l-104 -256h-1598q-43 0 -78 16q-34 14 -54 44q-20 32 -20 77z" />
<glyph unicode="M" horiz-adv-x="2025" d="M117 0h264l274 678l416 -590l895 590l-274 -678h266l401 993h-280l-881 -585l-401 585h-279z" />
<glyph unicode="N" d="M127 0h264l283 698l1030 -698h246l401 993h-266l-283 -700l-1030 700h-244z" />
<glyph unicode="O" d="M200 137q0 42 21 94l213 531q23 55 58.5 98t79.5 73t91.5 45t90.5 15h1370q43 0 77.5 -16t54 -46t20.5 -73v-4q0 -41 -19 -92l-213 -531q-23 -55 -59.5 -98t-79.5 -72.5t-91.5 -45t-91.5 -15.5h-1370q-43 0 -78 16q-34 14 -54 44q-20 32 -20 77zM515 273q5 -17 24 -17 h1200q20 0 41.5 17.5t31.5 45.5l144 355q7 21 7 35q0 6 -1 11q-4 17 -29 17h-1198q-27 0 -44 -17.5t-27 -45.5l-144 -355q-7 -19 -7 -33q0 -7 2 -13z" />
<glyph unicode="P" d="M127 0h264l150 369h1331q43 0 90 15t91 45t80 73t58 98l66 162q19 50 19 92q0 46 -20 77q-20 30 -54.5 46t-77.5 16h-1596zM645 627l43 110h1241q23 0 33 -11q5 -6 5 -15t-5 -23l-8 -20q-10 -27 -28.5 -34t-37.5 -7h-1243z" />
<glyph unicode="Q" d="M200 134q1 -44 20.5 -73.5t54 -45t77.5 -15.5h551l-72 -176h267l71 176h553q43 0 91.5 15.5t91.5 45t79.5 73.5t59.5 99l217 535q19 50 19 92q0 45 -20 78q-19 31 -54 47t-78 16h-1370q-43 0 -90 -15t-91.5 -45t-80 -74t-58.5 -99l-217 -535q-22 -52 -22 -94q0 -2 1 -5z M516 276q-2 6 -2 13q0 14 6 33l146 358q10 29 28.5 46t44.5 17h1198q25 0 28 -17q1 -4 1 -8q0 -16 -8 -38l-146 -358q-10 -29 -31.5 -46.5t-41.5 -17.5h-465l94 236h-266l-94 -236h-469q-18 0 -23 18z" />
<glyph unicode="R" d="M127 0h264l150 369h1130l21 -369h270l2 383q72 25 132.5 78t94.5 139l66 162q19 50 19 92q0 46 -20 77q-20 30 -54.5 46t-77.5 16h-1596zM645 627l43 110h1241q37 0 37 -25q0 -11 -6 -26l-8 -20q-10 -25 -26.5 -32t-37.5 -7h-1243z" />
<glyph unicode="S" d="M127 0h1597q45 0 92.5 15.5t90.5 45t78.5 72.5t58.5 98l65 162q20 53 20.5 95.5t-20.5 74.5q-41 64 -131 64h-1284q-20 0 -30.5 10t0.5 37l8 18q10 27 25.5 36t37.5 9h1512l104 256h-1599q-45 0 -91.5 -15t-89.5 -45t-78.5 -73t-58.5 -98l-65 -162q-22 -53 -22 -94 q1 -45 21 -77q20 -30 53.5 -45t78.5 -15h1286q25 0 32 -9.5t-3 -35.5l-9 -19q-10 -27 -28.5 -38t-38.5 -11h-1508z" />
<glyph unicode="T" d="M424 737h776l-297 -737h266l297 737h781l104 256h-1823z" />
<glyph unicode="U" d="M200 133q2 -43 21 -72.5t53.5 -45t77.5 -15.5h1598l401 993h-266l-297 -737h-1249q-18 0 -23.5 17.5t4.5 45.5l273 674h-265l-307 -762q-22 -52 -22 -93q1 -2 1 -5z" />
<glyph unicode="V" horiz-adv-x="1931" d="M453 993l419 -993h236l1223 993h-330l-903 -725l-316 725h-329z" />
<glyph unicode="W" horiz-adv-x="2363" d="M510 993l178 -993h309l402 408l76 -408h307l983 993h-316l-708 -708l-131 708h-312l56 -307l-398 -401l-133 708h-313z" />
<glyph unicode="X" horiz-adv-x="1990" d="M94 0h273l309 369h985l12 -369h273v498l401 495h-272l-310 -366h-987l-10 366h-272l-2 -495z" />
<glyph unicode="Y" d="M127 0h1597q45 0 92.5 15.5t90.5 45t78.5 72.5t58.5 98l307 762h-266l-148 -364h-1249q-18 0 -23.5 16.5t5.5 44.5l123 303h-265l-157 -391q-22 -53 -22 -94q0 -45 21 -77q19 -30 54 -45t78 -15h1331l-27 -66q-10 -27 -28.5 -38t-38.5 -11h-1508z" />
<glyph unicode="Z" d="M127 0l160 393q20 53 56 96t79 74t90 47.5t92 16.5h1284q20 0 39 10t29 37l24 63h-1556l104 256h1823l-160 -393q-23 -55 -58.5 -98t-78.5 -73t-89 -45t-91 -15h-1286q-23 0 -39.5 -9.5t-26.5 -35.5l-26 -68h1558l-104 -256h-1823z" />
<glyph unicode="[" horiz-adv-x="833" d="M63 -143h637l105 260h-385l311 770h385l105 260h-637z" />
<glyph unicode="\" horiz-adv-x="1187" d="M451 993h325l408 -993h-328z" />
<glyph unicode="]" horiz-adv-x="833" d="M61 -143l105 260h385l311 770h-385l105 260h637l-521 -1290h-637z" />
<glyph unicode="^" horiz-adv-x="1931" d="M51 0h330l901 725l317 -725h330l-420 993h-235z" />
<glyph unicode="_" horiz-adv-x="1648" d="M100 -61h1446l88 217h-1446z" />
<glyph unicode="`" horiz-adv-x="516" d="M502 1137l139 -217h242l-113 217h-268z" />
<glyph unicode="a" d="M127 0h264l150 369h1292l-150 -369h267l307 762q19 50 19 92q0 46 -20 77q-20 30 -54.5 46t-77.5 16h-1370q-43 0 -90.5 -15t-91.5 -45t-79.5 -73t-58.5 -98zM645 627l19 47q10 29 27.5 46t43.5 17h1198q25 1 29 -17q1 -5 1 -11q0 -15 -7 -35l-19 -47h-1292z" />
<glyph unicode="b" d="M127 0h1595q43 0 91.5 16.5t92.5 46t79.5 72.5t58.5 96l57 144q12 33 12 58q0 7 -1 15q-5 30 -21 50q33 23 64.5 55.5t48.5 75.5l53 133q19 50 19 92q0 46 -20 77q-20 30 -54.5 46t-77.5 16h-1596zM496 256l45 113h1239q20 0 31.5 -12.5t0.5 -39.5l-10 -24 q-10 -25 -23.5 -31t-37.5 -6h-1245zM645 627l43 110h1241q38 0 38 -26q0 -10 -5 -23l-8 -20q-10 -27 -27.5 -34t-38.5 -7h-1243z" />
<glyph unicode="c" d="M200 133q2 -43 21 -72.5t53.5 -45t77.5 -15.5h1598l104 256h-1515q-18 0 -23.5 17.5t4.5 45.5l144 355q10 29 27.5 46t43.5 17h1512l104 256h-1597q-43 0 -90.5 -15t-91.5 -45t-79.5 -73t-58.5 -98l-213 -531q-22 -52 -22 -93q1 -2 1 -5z" />
<glyph unicode="d" d="M127 0l401 993h1596q43 0 77.5 -16t54.5 -46q21 -32 20 -77q0 -41 -19 -92l-213 -531q-23 -55 -59.5 -98t-79.5 -72.5t-91.5 -45t-91.5 -15.5h-1595zM496 256h1243q20 0 41.5 17.5t31.5 45.5l144 355q7 21 7 35q0 6 -1 11q-4 17 -29 17h-1245z" />
<glyph unicode="e" d="M127 0h1823l104 256h-1558l45 113h1558l105 258h-1559l43 110h1559l104 256h-1823z" />
<glyph unicode="f" d="M127 0h264l150 369h1558l105 258h-1559l43 110h1559l104 256h-1823z" />
<glyph unicode="g" d="M200 133q1 -43 20.5 -72.5t54 -45t77.5 -15.5h1370q43 0 91.5 15.5t91.5 45t79.5 72.5t59.5 98l131 326h-266l-97 -238q-10 -29 -31.5 -46t-41.5 -17h-1200q-18 0 -23.5 17.5t4.5 45.5l144 355q10 29 27.5 46t43.5 17h1512l104 256h-1597q-43 0 -90.5 -15t-91.5 -45 t-79.5 -73t-58.5 -98l-213 -531q-22 -52 -22 -93q0 -2 1 -5z" />
<glyph unicode="h" d="M127 0h264l150 369h1292l-150 -369h267l401 993h-266l-148 -366h-1292l148 366h-265z" />
<glyph unicode="i" horiz-adv-x="446" d="M109 0h268l401 993h-268z" />
<glyph unicode="j" d="M127 0h1595q43 0 91.5 15.5t91.5 45t79.5 72.5t59.5 98l307 762h-266l-273 -674q-10 -29 -31.5 -46t-41.5 -17h-1508z" />
<glyph unicode="k" horiz-adv-x="2009" d="M127 0h264l150 369h1138l11 -369h272l-2 498l403 495h-272l-307 -366h-1139l148 366h-265z" />
<glyph unicode="l" d="M127 0h1823l104 256h-1558l297 737h-265z" />
<glyph unicode="m" horiz-adv-x="2240" d="M127 0h264l273 674q10 29 27.5 46t45.5 17h570l-297 -737h266l297 737h573q23 0 28 -17.5t-5 -45.5l-273 -674h267l305 758q19 50 19 92q1 46 -19 78q-18 30 -53 47.5t-78 17.5h-1581q-45 0 -92.5 -16t-91.5 -46t-80.5 -74t-59.5 -99z" />
<glyph unicode="n" d="M127 0l401 993h1596q43 0 77.5 -15t54 -45t21.5 -73v-7q0 -40 -20 -91l-307 -762h-267l273 674q10 29 3 46t-28 17h-1243l-297 -737h-264z" />
<glyph unicode="o" d="M200 137q0 42 21 94l213 531q23 55 58.5 98t79.5 73t91.5 45t90.5 15h1370q43 0 77.5 -16t54 -46t20.5 -73v-4q0 -41 -19 -92l-213 -531q-23 -55 -59.5 -98t-79.5 -72.5t-91.5 -45t-91.5 -15.5h-1370q-43 0 -78 16q-34 14 -54 44q-20 32 -20 77zM515 273q5 -17 24 -17 h1200q20 0 41.5 17.5t31.5 45.5l144 355q7 21 7 35q0 6 -1 11q-4 17 -29 17h-1198q-27 0 -44 -17.5t-27 -45.5l-144 -355q-7 -19 -7 -33q0 -7 2 -13z" />
<glyph unicode="p" d="M127 0h264l150 369h1331q43 0 90 15t91 45t80 73t58 98l66 162q19 50 19 92q0 45 -20 77q-20 30 -54.5 46t-77.5 16h-1596zM645 627l43 110h1241q23 0 33 -11q5 -6 5 -15t-5 -23l-10 -22q-10 -25 -27.5 -32t-36.5 -7h-1243z" />
<glyph unicode="q" d="M200 134q1 -44 20.5 -73.5t54 -45t77.5 -15.5h760l2 -176h275l-3 176h336q43 0 91.5 15.5t91.5 45t79.5 73.5t59.5 99l217 535q19 50 19 92q0 45 -20 78q-19 31 -54 47t-78 16h-1370q-43 0 -90 -15t-91.5 -45t-80 -74t-58.5 -99l-217 -535q-22 -52 -22 -94q0 -2 1 -5z M516 276q-2 6 -2 13q0 14 6 33l146 358q10 29 28.5 46t44.5 17h1198q25 0 28 -17q1 -4 1 -8q0 -16 -8 -38l-146 -358q-10 -29 -31.5 -46.5t-41.5 -17.5h-359v236h-276l2 -236h-567q-18 0 -23 18z" />
<glyph unicode="r" d="M127 0h264l150 369h1130l21 -369h270l2 383q72 25 132.5 78t94.5 139l66 162q19 50 19 92q0 46 -20 77q-20 30 -54.5 46t-77.5 16h-1596zM645 627l43 110h1241q37 0 37 -25q0 -11 -6 -26l-8 -20q-10 -25 -26.5 -32t-37.5 -7h-1243z" />
<glyph unicode="s" d="M127 0h1597q45 0 92.5 15.5t90.5 45t78.5 72.5t58.5 98l65 162q20 53 20.5 95.5t-20.5 74.5q-41 64 -131 64h-1284q-20 0 -30.5 10t0.5 37l8 18q10 27 25.5 36t37.5 9h1512l104 256h-1599q-45 0 -91.5 -15t-89.5 -45t-78.5 -73t-58.5 -98l-65 -162q-22 -53 -22 -94 q1 -45 21 -77q20 -30 53.5 -45t78.5 -15h1286q25 0 32 -9.5t-3 -35.5l-9 -19q-10 -27 -28.5 -38t-38.5 -11h-1508z" />
<glyph unicode="t" d="M424 737h776l-297 -737h266l297 737h781l104 256h-1823z" />
<glyph unicode="u" d="M200 133q2 -43 21 -72.5t53.5 -45t77.5 -15.5h1370q43 0 91.5 15.5t91.5 45t79.5 72.5t59.5 98l307 762h-266l-273 -674q-10 -29 -31.5 -46t-41.5 -17h-1200q-18 0 -23.5 17.5t4.5 45.5l273 674h-265l-307 -762q-22 -52 -22 -93q1 -2 1 -5z" />
<glyph unicode="v" horiz-adv-x="1931" d="M453 993l419 -993h236l1223 993h-330l-903 -725l-316 725h-329z" />
<glyph unicode="w" horiz-adv-x="2240" d="M200 140q0 43 21 96l307 757h265l-273 -674q-10 -29 -7 -46t32 -17h569l297 737h266l-297 -737h574q23 0 42 17.5t29 45.5l273 674h266l-307 -757q-20 -53 -57 -96.5t-81 -74t-92.5 -48t-91.5 -17.5h-1581q-45 0 -80 16q-34 16 -54 46q-20 32 -20 78z" />
<glyph unicode="x" horiz-adv-x="1990" d="M94 0h273l309 369h985l12 -369h273v498l401 495h-272l-310 -366h-987l-10 366h-272l-2 -495z" />
<glyph unicode="y" d="M370 431q19 -30 54 -45t78 -15h551l-150 -371h266l150 371h553q43 0 91 15t91 45t80 73t59 98l158 391h-266l-123 -303q-10 -29 -31.5 -45t-42.5 -16h-1200q-18 0 -23.5 16.5t5.5 44.5l123 303h-265l-157 -391q-22 -53 -22 -94q0 -45 21 -77z" />
<glyph unicode="z" d="M127 0h1823l104 256h-1151l1358 516l90 221h-1823l-104 -256h1147l-1354 -516z" />
<glyph unicode="{" d="M127 0l307 762q23 55 58.5 98t79.5 73t91.5 45t90.5 15h1370q43 0 77.5 -15t54 -45t21.5 -73t-20 -98l-307 -762h-267l273 674q10 29 3 46t-28 17h-1200q-18 0 -37.5 -17.5t-29.5 -45.5l-273 -674h-264z" />
<glyph unicode="|" horiz-adv-x="444" d="M27 -205h264l573 1419h-264z" />
<glyph unicode="}" horiz-adv-x="563" d="M221 0h268l402 993h-375l-104 -256h106z" />
<glyph unicode="~" d="M200 133q-1 43 21 98l66 162q20 53 56 96t79 74t90 47.5t92 16.5h1333l19 47q10 29 8 46t-31 17h-1509l104 256h1596q43 0 77.5 -15t54 -45t21.5 -73t-20 -98l-307 -762h-1598q-43 0 -77.5 15.5t-54 45t-20.5 72.5zM517 273q7 -17 28 -17h1243l45 113h-1245 q-23 0 -37 -7.5t-27 -29.5l-4 -13q-10 -29 -3 -46z" />
<glyph horiz-adv-x="528" />
<glyph unicode="&#xa1;" horiz-adv-x="444" d="M106 0h267l280 696h-266zM403 737h267l104 256h-266z" />
<glyph unicode="&#xa2;" d="M199.5 134.5q1.5 -44.5 21 -74t54 -45t77.5 -15.5h625l-76 -186h266l76 186h707l104 260h-706l196 488h707l106 260h-706l73 184h-266l-74 -184h-624q-43 0 -90 -15.5t-91 -45t-81 -74t-60 -101.5l-217 -536q-23 -57 -21.5 -101.5zM516.5 277.5q-4.5 17.5 5.5 46.5 l146 360q10 29 27.5 46.5t43.5 17.5h539l-197 -488h-542q-18 0 -22.5 17.5z" />
<glyph unicode="&#xa3;" horiz-adv-x="1998" d="M127 0h1794l104 256h-1234l45 113h745l105 260h-746l27 63q10 27 25.5 36t39.5 9h266l105 256h-352q-43 0 -91.5 -16t-92.5 -46t-80.5 -73t-57.5 -96l-53 -133h-295l-105 -258h295l-45 -115h-295z" />
<glyph unicode="&#xa4;" horiz-adv-x="2029" d="M113 0l290 358l109 269l2 366h272l7 -96h1218l80 96h272l-299 -372l-102 -259v-362h-272l-9 98h-1214l-84 -98h-270zM618 319h1092l145 361h-1091z" />
<glyph unicode="&#xa5;" d="M287 -100h575l-86 -215h266l86 215h578l84 209h-578l13 28h577l84 209h-577l12 31h553q43 0 91 15.5t91 45t80 73.5t59 99l160 396h-266l-123 -308q-10 -29 -32.5 -46t-43.5 -17h-1200q-18 0 -22 17.5t6 45.5l123 308h-265l-159 -396q-23 -55 -22 -99t20.5 -73.5 t54.5 -45t78 -15.5h551l-13 -31h-575l-84 -209h575l-12 -28h-575z" />
<glyph unicode="&#xa6;" horiz-adv-x="399" d="M27 -205h219l268 668h-219zM330 547h219l270 667h-219z" />
<glyph unicode="&#xa7;" d="M43 -209h1597q90 0 181.5 60.5t138.5 175.5l65 161q14 33 15 58v47q18 23 37.5 48.5t33.5 57.5l66 164q23 55 22 99.5t-19.5 75t-52.5 47t-79 16.5h-1284q-20 0 -29.5 11t0.5 38l6 18q10 27 26.5 36t39.5 9h1511l107 261h-1600q-90 0 -181 -60.5t-138 -175.5l-66 -164 q-12 -31 -16 -57.5t-2 -48.5q-20 -23 -37.5 -49.5t-30.5 -55.5l-65 -164q-23 -55 -23 -100q0 -43 19.5 -72.5t53.5 -45t79 -15.5h1286q25 0 31 -10.5t-4 -36.5l-7 -19q-10 -27 -29.5 -38t-39.5 -11h-1508zM580.5 439.5q-7.5 11.5 3.5 35.5l6 19q10 27 26.5 36t38.5 9h1223 q20 -6 4 -45l-6 -19q-10 -27 -29.5 -38t-40.5 -11h-1202q-16 2 -23.5 13.5z" />
<glyph unicode="&#xa8;" horiz-adv-x="899" d="M397 686h254l88 217h-254zM846 686h252l88 217h-252z" />
<glyph unicode="&#xa9;" horiz-adv-x="565" d="M439.5 785q-3.5 -21 0.5 -44q10 -29 17.5 -42t23.5 -29q35 -23 86 -23q27 0 56.5 9.5t56.5 24.5t49.5 32.5t38.5 34.5q20 23 34.5 42t24.5 41q16 43 9 93v-2q-4 23 -12.5 39t-30.5 36q-57 12 -66 -4l-29 -20l19 45q-37 0 -77 -15.5t-77 -41t-66.5 -59.5t-43.5 -71 q-10 -25 -13.5 -46zM516 786q0 10 4 21.5t8 23.5t11.5 25.5t17.5 24.5q-12 -18 -27 -50q-4 -12 -8 -23t-6 -22zM606 831q18 45 53 46q14 0 17 -39l78 20q2 18 1 34.5t-7 27.5q10 -16 14 -38t-6 -44l-2 -7q-16 -41 -64 -77q12 12 24.5 26.5t22.5 32.5l-57 23q-33 -45 -57 -45 q-33 0 -17 40z" />
<glyph unicode="&#xaa;" d="M200 133q-1 43 21 98l66 162q20 53 56 96t79 74t90 47.5t92 16.5h1333l19 47q10 29 8 46t-31 17h-1509l104 256h1596q43 0 77.5 -15t54 -45t21.5 -73t-20 -98l-213 -531q-23 -55 -59.5 -98t-79.5 -72.5t-91.5 -45t-91.5 -15.5h-1370q-43 0 -77.5 15.5t-54 45t-20.5 72.5z M517 273q7 -17 28 -17h1200q20 0 38.5 17.5t28.5 45.5l21 50h-1245q-23 0 -37 -7.5t-27 -29.5l-4 -13q-10 -29 -3 -46z" />
<glyph unicode="&#xab;" horiz-adv-x="733" d="M246 309l166 -198l110 274l-84 100l166 105l111 274l-326 -200zM537 309l168 -198l110 274l-84 100l166 105l111 274l-328 -200z" />
<glyph unicode="&#xac;" horiz-adv-x="1648" d="M270 358h1186l-145 -358h260l246 606h-1446z" />
<glyph unicode="&#xad;" horiz-adv-x="1056" d="M250 313h856l88 217h-856z" />
<glyph unicode="&#xae;" horiz-adv-x="565" d="M438 735q25 -88 129 -88h2q14 0 40 6t53.5 18.5t54 29t45.5 38.5l-4 -2q25 27 43 50.5t26 43.5q16 43 8 91.5t-42 68.5h2q-37 27 -78 27q-29 0 -54.5 -7t-50.5 -20h2h-2h-2h2q-31 -12 -55.5 -30.5t-58.5 -57.5q-4 -4 -1 -2t-1 -2q-14 -16 -24.5 -32.5t-18.5 -35.5 q-20 -53 -15 -96zM516 762v4q2 12 3 19.5t2 13.5t2 14t5 23q10 27 37 53v-2q0 4 4 4zM573 721l29 67h2q4 -4 10 -28v-39h-18h-6h-17zM631 860l2 8h31v-2q-2 -4 -6.5 -5t-16.5 -1h-10zM653 940q8 2 15.5 3t17.5 1h4q41 0 60.5 -33.5t1.5 -76.5v-5q-10 -16 -16.5 -23 t-24.5 -30l6 2q-12 -8 -17 -12l-4 22q-2 2 -3 6.5t-1 0.5l-4 12q39 20 55 63q4 14 0 37q-8 12 -12 15h-2l-4 4l6 -6h-2l2 2h-2q-4 2 -4 4t-2 4l2 -4q-18 14 -55 14h-17z" />
<glyph unicode="&#xaf;" horiz-adv-x="1648" d="M401 684h1446l88 217h-1446z" />
<glyph unicode="&#xb0;" horiz-adv-x="325" d="M350 686h219l88 217h-219zM492 788l4 15h20l-4 -15h-20z" />
<glyph unicode="&#xb1;" horiz-adv-x="1648" d="M125 0h1446l104 256h-1446zM340 532h594l-82 -204h260l82 204h592l104 256h-592l82 205h-260l-82 -205h-594z" />
<glyph unicode="&#xb2;" horiz-adv-x="1112" d="M334 520l86 213q12 33 34.5 58.5t51.5 42.5h-47l73 182h791q49 0 72.5 -31t-0.5 -92l-37 -92q-16 -37 -41 -63.5t-53 -41.5h51l-70 -176h-911z" />
<glyph unicode="&#xb3;" horiz-adv-x="1112" d="M334 522h790q49 0 97.5 30t72.5 91l29 70q4 14 2 28.5t-6 24.5h-2q14 12 30.5 31.5t22.5 31.5l25 64q25 61 1 92t-73 31h-791z" />
<glyph unicode="&#xb4;" horiz-adv-x="516" d="M324 686l288 217h269l-316 -217h-241z" />
<glyph unicode="&#xb5;" d="M127 0l401 993h1823l-401 -993h-1823zM496 256h1292l192 481h-1292z" />
<glyph unicode="&#xb6;" horiz-adv-x="1665" d="M306 404.5q1 -44.5 20.5 -74t54.5 -45t78 -15.5h194l-241 -600h262l416 1030q10 29 26.5 37t38.5 8h471l-434 -1075h262l539 1336h-1237q-43 0 -90.5 -16.5t-91.5 -47.5t-79.5 -74t-58.5 -96l-108 -268q-23 -55 -22 -99.5z" />
<glyph unicode="&#xb7;" horiz-adv-x="399" d="M236 313h219l88 217h-219z" />
<glyph unicode="&#xb8;" horiz-adv-x="438" d="M-360 -297h600l141 346h-242l-47 -117h-358z" />
<glyph unicode="&#xb9;" horiz-adv-x="1157" d="M334 520h956l72 180h-356l127 316h-601l-73 -185h397l-53 -131h-397z" />
<glyph unicode="&#xba;" horiz-adv-x="1112" d="M381 641l102 252q25 61 75 92t99 31h666q49 0 71.5 -33t0.5 -90l-103 -252q-23 -59 -70.5 -90t-97.5 -31h-665q-49 0 -75 31t-3 90zM616 709h496q12 0 18 16l35 86q6 16 -6 16h-493q-8 0 -15 -16l-35 -86q-6 -16 0 -16z" />
<glyph unicode="&#xbb;" horiz-adv-x="733" d="M164 111l110 274l164 100l-82 105l111 274l166 -200l-144 -355zM455 111l110 274l166 100l-84 105l111 274l168 -200l-144 -355z" />
<glyph unicode="&#xbc;" horiz-adv-x="2424" d="M317 473h922l-588 -473h326l633 508l-137 -340h737l-68 -168h205l211 520h-205l-67 -164h-531l68 164h-197l588 473h-322l-604 -483l62 154h-353l133 329h-602l-77 -192h391l-56 -137h-391z" />
<glyph unicode="&#xbd;" horiz-adv-x="2424" d="M317 473l78 191h391l56 137h-391l77 192h602l-133 -329h353l-62 -154l604 483h322l-588 -473h805q53 0 76.5 -31.5t-0.5 -95.5l-41 -98q-16 -39 -42 -65.5t-57 -43.5h56l-76 -186h-942l90 223q14 35 37.5 62.5t52.5 44.5h-47l72 178l-633 -508h-326l588 473h-922z" />
<glyph unicode="&#xbe;" horiz-adv-x="2373" d="M317 473h816q23 0 42 4t42 17l-617 -494h326l633 508l-138 -340h738l-68 -168h205l211 520h-205l-68 -164h-528l68 164h-199l588 473h-322l-569 -456q10 12 21.5 28.5t17.5 34.5l30 74q6 16 3 30.5t-7 24.5h-2q14 12 32.5 33.5t23.5 34.5l26 65q27 66 2.5 97.5 t-76.5 31.5h-815z" />
<glyph unicode="&#xbf;" d="M199.5 133q1.5 -43 20 -72.5t52 -45t78.5 -15.5h1600l104 256h-1511q-23 0 -32 9t1 36l8 18q10 27 28.5 37.5t39.5 10.5h1040q45 0 93 16t91 47t79 74t57 96l39 96h-265q-16 -41 -34.5 -56t-42.5 -15h-1043q-45 0 -91 -15.5t-89 -45t-78 -72.5t-57 -99l-66 -162 q-23 -55 -21.5 -98zM1739 737h264l104 256h-264z" />
<glyph unicode="&#xc0;" horiz-adv-x="1931" d="M51 0h328l283 229h839l101 -229h327l-416 1006h-235zM973 485l315 254l109 -254h-424zM1217 1329l143 -260h266l-117 260h-292z" />
<glyph unicode="&#xc1;" horiz-adv-x="1931" d="M51 0h328l283 229h839l101 -229h327l-416 1006h-235zM973 485l315 254l109 -254h-424zM1217 1069h266l354 260h-295z" />
<glyph unicode="&#xc2;" horiz-adv-x="1931" d="M51 0h328l283 229h839l101 -229h327l-416 1006h-235zM973 485l315 254l109 -254h-424zM1030 1069h287l158 131l57 -131h287l-105 260h-371z" />
<glyph unicode="&#xc3;" horiz-adv-x="1931" d="M51 0h328l283 229h839l101 -229h327l-416 1006h-235zM903 1069h287l158 131l55 -131h338l313 260h-287l-159 -131l-54 131h-337zM973 485l315 254l109 -254h-424z" />
<glyph unicode="&#xc4;" horiz-adv-x="1931" d="M51 0h328l283 229h839l101 -229h327l-416 1006h-235zM973 485l315 254l109 -254h-424zM1057 1069h266l104 260h-266zM1526 1069h264l104 260h-264z" />
<glyph unicode="&#xc5;" horiz-adv-x="1931" d="M51 0h328l283 229h839l101 -229h327l-416 1006h-235zM973 485l315 254l109 -254h-424zM1290 1069h264l105 260h-264zM1458 1192l6 16h27l-6 -16h-27z" />
<glyph unicode="&#xc6;" horiz-adv-x="3635" d="M127 0h268l150 369h1310l-149 -369h1849l105 256h-1579l45 113h1579l104 258h-1579l43 110h1579l105 256h-3199q-45 0 -92.5 -15t-91.5 -45t-80.5 -73t-59.5 -98zM649 627l19 47q10 29 27.5 46t45.5 17h1262l-43 -110h-1311z" />
<glyph unicode="&#xc7;" d="M199.5 134q1.5 -44 21 -73.5t54 -45t77.5 -15.5h678l-31 -76h-378l-103 -254h635l133 330h436q43 0 91.5 15.5t91.5 45t79.5 73.5t59.5 99l70 173h-267l-32 -82q-12 -29 -34 -46.5t-42 -17.5h-1200q-18 0 -23.5 17.5t6.5 46.5l146 360q10 29 27.5 45t43.5 16h1198 q25 0 29 -16t-6 -45l-33 -82h266l68 170q23 53 20.5 96t-21.5 74t-54 47.5t-78 16.5h-1370q-43 0 -90 -15.5t-90 -45.5t-80 -74t-60 -99l-217 -539q-23 -55 -21.5 -99z" />
<glyph unicode="&#xc8;" d="M127 0h1823l104 260h-1558l47 115h1558l105 260h-1559l45 110h1559l104 261h-1823zM1266 1329l143 -260h268l-116 260h-295z" />
<glyph unicode="&#xc9;" d="M127 0h1823l104 260h-1558l47 115h1558l105 260h-1559l45 110h1559l104 261h-1823zM1264 1069h266l352 260h-295z" />
<glyph unicode="&#xca;" d="M127 0h1823l104 260h-1558l47 115h1558l105 260h-1559l45 110h1559l104 261h-1823zM1075 1069h287l160 131l55 -131h287l-105 260h-370z" />
<glyph unicode="&#xcb;" d="M127 0h1823l104 260h-1558l47 115h1558l105 260h-1559l45 110h1559l104 261h-1823zM1104 1069h264l105 260h-265zM1571 1069h264l104 260h-264z" />
<glyph unicode="&#xcc;" d="M127 0h1823l104 260h-780l196 485h781l104 261h-1823l-104 -261h776l-196 -485h-777zM1266 1329l143 -260h268l-116 260h-295z" />
<glyph unicode="&#xcd;" d="M127 0h1823l104 260h-780l196 485h781l104 261h-1823l-104 -261h776l-196 -485h-777zM1264 1069h266l352 260h-295z" />
<glyph unicode="&#xce;" d="M127 0h1823l104 260h-780l196 485h781l104 261h-1823l-104 -261h776l-196 -485h-777zM1075 1069h287l160 131l55 -131h287l-105 260h-370z" />
<glyph unicode="&#xcf;" d="M127 0h1823l104 260h-780l196 485h781l104 261h-1823l-104 -261h776l-196 -485h-777zM1104 1069h264l105 260h-265zM1571 1069h264l104 260h-264z" />
<glyph unicode="&#xd0;" horiz-adv-x="2410" d="M276 369h373l-149 -369h1605q43 0 91.5 15.5t91.5 45t79.5 72.5t59.5 98l213 531q20 53 19 96t-20.5 73t-54 46t-77.5 16h-1606l-147 -366h-373zM870 256l45 113h517l104 258h-516l43 110h1253q23 0 28 -17.5t-5 -45.5l-144 -355q-10 -29 -32.5 -46t-40.5 -17h-1252z" />
<glyph unicode="&#xd1;" d="M127 0h264l285 707l1028 -707h246l405 1006h-266l-285 -709l-1028 709h-244zM977 1069h287l157 131l54 -131h340l313 260h-287l-160 -131l-53 131h-338z" />
<glyph unicode="&#xd2;" d="M199.5 134q1.5 -44 21 -73.5t54 -45t77.5 -15.5h1370q43 0 91.5 15.5t91.5 45t79.5 73.5t59.5 99l217 539q23 55 21.5 99t-21.5 74t-55 45.5t-78 15.5h-1370q-43 0 -90 -16.5t-91.5 -47.5t-80 -74t-58.5 -96l-217 -539q-23 -55 -21.5 -99zM517.5 277.5 q-7.5 17.5 4.5 46.5l146 360q10 29 29.5 45t41.5 16h1198q29 0 31 -16t-8 -45l-145 -360q-27 -63 -70 -64h-1200q-20 0 -27.5 17.5zM1266 1329l143 -260h268l-116 260h-295z" />
<glyph unicode="&#xd3;" d="M199.5 134q1.5 -44 21 -73.5t54 -45t77.5 -15.5h1370q43 0 91.5 15.5t91.5 45t79.5 73.5t59.5 99l217 539q23 53 20.5 96t-21.5 74t-54 47.5t-78 16.5h-1370q-43 0 -90 -15.5t-90 -45.5t-80 -74t-60 -99l-217 -539q-23 -55 -21.5 -99zM515.5 277.5q-5.5 17.5 6.5 46.5 l146 360q10 29 27.5 45t43.5 16h1198q25 0 29 -16t-6 -45l-145 -360q-12 -29 -34 -46.5t-42 -17.5h-1200q-18 0 -23.5 17.5zM1264 1069h266l352 260h-295z" />
<glyph unicode="&#xd4;" d="M199.5 134q1.5 -44 21 -73.5t54 -45t77.5 -15.5h1370q43 0 91.5 15.5t91.5 45t79.5 73.5t59.5 99l217 539q23 53 20.5 96t-21.5 74t-54 47.5t-78 16.5h-1370q-43 0 -90 -15.5t-90 -45.5t-80 -74t-60 -99l-217 -539q-23 -55 -21.5 -99zM515.5 277.5q-5.5 17.5 6.5 46.5 l146 360q10 29 27.5 45t43.5 16h1198q25 0 29 -16t-6 -45l-145 -360q-12 -29 -34 -46.5t-42 -17.5h-1200q-18 0 -23.5 17.5zM1075 1069h287l160 131l55 -131h287l-105 260h-370z" />
<glyph unicode="&#xd5;" d="M199.5 134q1.5 -44 21 -73.5t54 -45t77.5 -15.5h1370q43 0 91.5 15.5t91.5 45t79.5 73.5t59.5 99l217 539q23 53 20.5 96t-21.5 74t-54 47.5t-78 16.5h-1370q-43 0 -90 -15.5t-90 -45.5t-80 -74t-60 -99l-217 -539q-23 -55 -21.5 -99zM515.5 277.5q-5.5 17.5 6.5 46.5 l146 360q10 29 27.5 45t43.5 16h1198q25 0 29 -16t-6 -45l-145 -360q-12 -29 -34 -46.5t-42 -17.5h-1200q-18 0 -23.5 17.5zM948 1069h287l158 131l55 -131h338l313 260h-287l-157 -131l-56 131h-337z" />
<glyph unicode="&#xd6;" d="M199.5 134q1.5 -44 21 -73.5t54 -45t77.5 -15.5h1370q43 0 91.5 15.5t91.5 45t79.5 73.5t59.5 99l217 539q23 53 20.5 96t-21.5 74t-54 47.5t-78 16.5h-1370q-43 0 -90 -15.5t-90 -45.5t-80 -74t-60 -99l-217 -539q-23 -55 -21.5 -99zM515.5 277.5q-5.5 17.5 6.5 46.5 l146 360q10 29 27.5 45t43.5 16h1198q25 0 29 -16t-6 -45l-145 -360q-12 -29 -34 -46.5t-42 -17.5h-1200q-18 0 -23.5 17.5zM1104 1069h264l105 260h-265zM1571 1069h264l104 260h-264z" />
<glyph unicode="&#xd7;" horiz-adv-x="872" d="M182 279l107 -177l295 209l127 -209l250 177l-125 210l294 211l-106 179l-295 -211l-127 211l-250 -179l127 -211z" />
<glyph unicode="&#xd8;" d="M199.5 133q1.5 -43 21 -72.5t54 -45t77.5 -15.5h1370q43 0 91.5 15.5t91.5 45t79.5 72.5t59.5 98l213 531q20 53 19 96t-20.5 73t-54 46t-77.5 16h-1370q-43 0 -90.5 -15t-91.5 -45t-79.5 -73t-58.5 -98l-213 -531q-23 -55 -21.5 -98zM515.5 273.5q-5.5 17.5 4.5 45.5 l144 355q10 29 27.5 46t43.5 17h629l-592 -481h-233q-18 0 -23.5 17.5zM1104 256l590 481h239q25 0 29 -17.5t-6 -45.5l-144 -355q-10 -29 -31.5 -46t-41.5 -17h-635z" />
<glyph unicode="&#xd9;" d="M199.5 134q1.5 -44 21 -73.5t54 -45t77.5 -15.5h1598l405 1006h-266l-301 -746h-1249q-18 0 -23.5 17.5t6.5 46.5l275 682h-265l-311 -773q-23 -55 -21.5 -99zM1266 1329l143 -260h268l-116 260h-295z" />
<glyph unicode="&#xda;" d="M199.5 134q1.5 -44 21 -73.5t54 -45t77.5 -15.5h1598l405 1006h-266l-301 -746h-1249q-18 0 -23.5 17.5t6.5 46.5l275 682h-265l-311 -773q-23 -55 -21.5 -99zM1264 1069h266l352 260h-295z" />
<glyph unicode="&#xdb;" d="M199.5 134q1.5 -44 21 -73.5t54 -45t77.5 -15.5h1598l405 1006h-266l-301 -746h-1249q-18 0 -23.5 17.5t6.5 46.5l275 682h-265l-311 -773q-23 -55 -21.5 -99zM1075 1069h287l160 131l55 -131h287l-105 260h-370z" />
<glyph unicode="&#xdc;" d="M199.5 134q1.5 -44 21 -73.5t54 -45t77.5 -15.5h1598l405 1006h-266l-301 -746h-1249q-18 0 -23.5 17.5t6.5 46.5l275 682h-265l-311 -773q-23 -55 -21.5 -99zM1104 1069h264l105 260h-265zM1571 1069h264l104 260h-264z" />
<glyph unicode="&#xdd;" d="M127 0h1597q45 0 92.5 15.5t90.5 45t78.5 73.5t58.5 99l311 773h-266l-147 -369h-1250q-18 0 -23 16.5t5 44.5l123 308h-265l-159 -396q-23 -55 -22 -99t20.5 -73.5t54.5 -45t78 -15.5h1331l-27 -68q-10 -27 -29.5 -38t-39.5 -11h-1508zM1264 1069h266l352 260h-295z" />
<glyph unicode="&#xde;" d="M127 0h264l78 193h1331q43 0 91 15t91 45t80 73t60 98l63 160q20 53 19.5 96t-20 72.5t-54.5 46t-78 16.5h-1331l72 178h-265zM571 449l45 108h1246q23 0 31 -8t-3 -35l-6 -18q-10 -27 -30.5 -37t-38.5 -10h-1244z" />
<glyph unicode="&#xdf;" d="M2 -309h264l402 991q10 29 31.5 45t41.5 16v2h1196q25 0 32 -9t-3 -36l-6 -18q-10 -27 -29.5 -38t-40.5 -11h-1030l-104 -258h1030q20 0 29.5 -11.5t-0.5 -37.5l-9 -21q-10 -27 -25.5 -36t-39.5 -9h-1032l-105 -260h1118q43 0 91.5 16.5t92.5 47t79.5 73.5t58.5 96 l59 146q16 43 11 74.5t-21 50.5q33 23 64.5 56.5t48.5 74.5l55 137q23 53 20.5 96t-21.5 74t-54 47.5t-78 16.5h-1370q-43 0 -90 -15.5t-90 -46.5t-80 -75t-60 -99z" />
<glyph unicode="&#xe0;" d="M127 0h264l152 375h1292l-152 -375h267l311 772q23 53 20.5 96t-21.5 74t-54 47.5t-78 16.5h-1370q-43 0 -90 -15.5t-90 -45.5t-80 -74t-60 -99zM647 635l21 49q10 29 27.5 45t43.5 16h1198q25 0 29 -16t-6 -45l-21 -49h-1292zM1266 1329l143 -260h268l-116 260h-295z " />
<glyph unicode="&#xe1;" d="M127 0h264l152 375h1292l-152 -375h267l311 772q23 53 20.5 96t-21.5 74t-54 47.5t-78 16.5h-1370q-43 0 -90 -15.5t-90 -45.5t-80 -74t-60 -99zM647 635l21 49q10 29 27.5 45t43.5 16h1198q25 0 29 -16t-6 -45l-21 -49h-1292zM1264 1069h266l352 260h-295z" />
<glyph unicode="&#xe2;" d="M127 0h264l152 375h1292l-152 -375h267l311 772q23 53 20.5 96t-21.5 74t-54 47.5t-78 16.5h-1370q-43 0 -90 -15.5t-90 -45.5t-80 -74t-60 -99zM647 635l21 49q10 29 27.5 45t43.5 16h1198q25 0 29 -16t-6 -45l-21 -49h-1292zM1075 1069h287l160 131l55 -131h287 l-105 260h-370z" />
<glyph unicode="&#xe3;" d="M127 0h264l152 375h1292l-152 -375h267l311 772q23 53 20.5 96t-21.5 74t-54 47.5t-78 16.5h-1370q-43 0 -90 -15.5t-90 -45.5t-80 -74t-60 -99zM647 635l21 49q10 29 27.5 45t43.5 16h1198q25 0 29 -16t-6 -45l-21 -49h-1292zM948 1069h287l158 131l55 -131h338l313 260 h-287l-157 -131l-56 131h-337z" />
<glyph unicode="&#xe4;" d="M127 0h264l152 375h1292l-152 -375h267l311 772q23 53 20.5 96t-21.5 74t-54 47.5t-78 16.5h-1370q-43 0 -90 -15.5t-90 -45.5t-80 -74t-60 -99zM647 635l21 49q10 29 27.5 45t43.5 16h1198q25 0 29 -16t-6 -45l-21 -49h-1292zM1104 1069h264l105 260h-265zM1571 1069 h264l104 260h-264z" />
<glyph unicode="&#xe5;" d="M127 0h264l152 375h1292l-152 -375h267l311 772q23 53 20.5 96t-21.5 74t-54 47.5t-78 16.5h-1370q-43 0 -90 -15.5t-90 -45.5t-80 -74t-60 -99zM647 635l21 49q10 29 27.5 45t43.5 16h1198q25 0 29 -16t-6 -45l-21 -49h-1292zM1335 1069h267l104 260h-266zM1505 1192 l6 16h25l-6 -16h-25z" />
<glyph unicode="&#xe6;" horiz-adv-x="3635" d="M127 0h268l150 369h1310l-149 -369h1849l105 256h-1579l45 113h1579l104 258h-1579l43 110h1579l105 256h-3199q-45 0 -92.5 -15t-91.5 -45t-80.5 -73t-59.5 -98zM649 627l19 47q10 29 27.5 46t45.5 17h1262l-43 -110h-1311z" />
<glyph unicode="&#xe7;" d="M199.5 134q1.5 -44 21 -73.5t54 -45t77.5 -15.5h750l-31 -76h-379l-102 -254h635l133 330h592l104 260h-1515q-18 0 -23.5 17.5t6.5 46.5l146 360q10 29 27.5 45t43.5 16h1512l104 261h-1597q-43 0 -90 -15.5t-90 -45.5t-80 -74t-60 -99l-217 -539q-23 -55 -21.5 -99z " />
<glyph unicode="&#xe8;" d="M127 0h1823l104 260h-1558l47 115h1558l105 260h-1559l45 110h1559l104 261h-1823zM1266 1329l143 -260h268l-116 260h-295z" />
<glyph unicode="&#xe9;" d="M127 0h1823l104 260h-1558l47 115h1558l105 260h-1559l45 110h1559l104 261h-1823zM1264 1069h266l352 260h-295z" />
<glyph unicode="&#xea;" d="M127 0h1823l104 260h-1558l47 115h1558l105 260h-1559l45 110h1559l104 261h-1823zM1075 1069h287l160 131l55 -131h287l-105 260h-370z" />
<glyph unicode="&#xeb;" d="M127 0h1823l104 260h-1558l47 115h1558l105 260h-1559l45 110h1559l104 261h-1823zM1104 1069h264l105 260h-265zM1571 1069h264l104 260h-264z" />
<glyph unicode="&#xec;" horiz-adv-x="434" d="M117 0h243l406 1006h-244zM496 1329l122 -260h244l-98 260h-268z" />
<glyph unicode="&#xed;" horiz-adv-x="434" d="M117 0h243l406 1006h-244zM483 1069h244l332 260h-268z" />
<glyph unicode="&#xee;" horiz-adv-x="452" d="M121 0h256l405 1006h-256zM305 1069h275l153 131l51 -131h275l-96 260h-355z" />
<glyph unicode="&#xef;" horiz-adv-x="452" d="M121 0h256l405 1006h-256zM334 1069h252l104 260h-252zM780 1069h254l105 260h-254z" />
<glyph unicode="&#xf0;" d="M199.5 134q1.5 -44 21 -73.5t54 -45t77.5 -15.5h1370q43 0 91.5 15.5t91.5 45t79.5 73.5t59.5 99l215 533q23 55 20.5 98t-22 73t-54 45t-77.5 15h-576l41 105h-262l-41 -105h-758l-104 -256h758l-37 -92h262l37 92h489q29 0 31 -17t-8 -46l-21 -49h-1333 q-45 0 -92 -16.5t-90 -47t-79 -73.5t-56 -97l-66 -162q-23 -55 -21.5 -99zM517.5 274.5q-7.5 16.5 2.5 44.5l6 15q20 37 62 37h1245l-21 -52q-10 -29 -28.5 -45t-38.5 -16h-1200q-20 0 -27.5 16.5z" />
<glyph unicode="&#xf1;" d="M127 0h264l301 745h1243q20 0 27.5 -16t-2.5 -45l-277 -684h267l311 772q23 55 21.5 99t-21.5 74t-55 45.5t-78 15.5h-1596zM942 1069h287l160 131l53 -131h338l313 260h-287l-157 -131l-56 131h-338z" />
<glyph unicode="&#xf2;" d="M199.5 134q1.5 -44 21 -73.5t54 -45t77.5 -15.5h1370q43 0 91.5 15.5t91.5 45t79.5 73.5t59.5 99l217 539q23 55 21.5 99t-21.5 74t-55 45.5t-78 15.5h-1370q-43 0 -90 -16.5t-91.5 -47.5t-80 -74t-58.5 -96l-217 -539q-23 -55 -21.5 -99zM517.5 277.5 q-7.5 17.5 4.5 46.5l146 360q10 29 29.5 45t41.5 16h1198q29 0 31 -16t-8 -45l-145 -360q-27 -63 -70 -64h-1200q-20 0 -27.5 17.5zM1266 1329l143 -260h268l-116 260h-295z" />
<glyph unicode="&#xf3;" d="M199.5 134q1.5 -44 21 -73.5t54 -45t77.5 -15.5h1370q43 0 91.5 15.5t91.5 45t79.5 73.5t59.5 99l217 539q23 53 20.5 96t-21.5 74t-54 47.5t-78 16.5h-1370q-43 0 -90 -15.5t-90 -45.5t-80 -74t-60 -99l-217 -539q-23 -55 -21.5 -99zM515.5 277.5q-5.5 17.5 6.5 46.5 l146 360q10 29 27.5 45t43.5 16h1198q25 0 29 -16t-6 -45l-145 -360q-12 -29 -34 -46.5t-42 -17.5h-1200q-18 0 -23.5 17.5zM1264 1069h266l352 260h-295z" />
<glyph unicode="&#xf4;" d="M199.5 134q1.5 -44 21 -73.5t54 -45t77.5 -15.5h1370q43 0 91.5 15.5t91.5 45t79.5 73.5t59.5 99l217 539q23 53 20.5 96t-21.5 74t-54 47.5t-78 16.5h-1370q-43 0 -90 -15.5t-90 -45.5t-80 -74t-60 -99l-217 -539q-23 -55 -21.5 -99zM515.5 277.5q-5.5 17.5 6.5 46.5 l146 360q10 29 27.5 45t43.5 16h1198q25 0 29 -16t-6 -45l-145 -360q-12 -29 -34 -46.5t-42 -17.5h-1200q-18 0 -23.5 17.5zM1075 1069h287l160 131l55 -131h287l-105 260h-370z" />
<glyph unicode="&#xf5;" d="M199.5 134q1.5 -44 21 -73.5t54 -45t77.5 -15.5h1370q43 0 91.5 15.5t91.5 45t79.5 73.5t59.5 99l217 539q23 53 20.5 96t-21.5 74t-54 47.5t-78 16.5h-1370q-43 0 -90 -15.5t-90 -45.5t-80 -74t-60 -99l-217 -539q-23 -55 -21.5 -99zM515.5 277.5q-5.5 17.5 6.5 46.5 l146 360q10 29 27.5 45t43.5 16h1198q25 0 29 -16t-6 -45l-145 -360q-12 -29 -34 -46.5t-42 -17.5h-1200q-18 0 -23.5 17.5zM948 1069h287l158 131l55 -131h338l313 260h-287l-157 -131l-56 131h-337z" />
<glyph unicode="&#xf6;" d="M199.5 134q1.5 -44 21 -73.5t54 -45t77.5 -15.5h1370q43 0 91.5 15.5t91.5 45t79.5 73.5t59.5 99l217 539q23 53 20.5 96t-21.5 74t-54 47.5t-78 16.5h-1370q-43 0 -90 -15.5t-90 -45.5t-80 -74t-60 -99l-217 -539q-23 -55 -21.5 -99zM515.5 277.5q-5.5 17.5 6.5 46.5 l146 360q10 29 27.5 45t43.5 16h1198q25 0 29 -16t-6 -45l-145 -360q-12 -29 -34 -46.5t-42 -17.5h-1200q-18 0 -23.5 17.5zM1104 1069h264l105 260h-265zM1571 1069h264l104 260h-264z" />
<glyph unicode="&#xf7;" horiz-adv-x="1648" d="M274 369h1446l105 258h-1446zM719 0h262l104 256h-262zM1016 737h262l104 256h-262z" />
<glyph unicode="&#xf8;" d="M200 133q-1 43 21 98l213 531q20 53 57 96t80 73t91.5 46t91.5 16h1370q43 0 77.5 -15t54 -45t21.5 -73t-20 -98l-213 -531q-23 -55 -59.5 -98t-79.5 -72.5t-91.5 -45t-91.5 -15.5h-1370q-43 0 -77.5 15.5t-54 45t-20.5 72.5zM517 273q7 -17 28 -17h635l-205 481h-240 q-23 0 -42 -17.5t-29 -45.5l-144 -355q-10 -29 -3 -46zM1305 737l206 -481h234q20 0 38.5 17.5t28.5 45.5l144 355q10 29 8 46t-31 17h-628z" />
<glyph unicode="&#xf9;" d="M199.5 134q1.5 -44 21 -73.5t54 -45t77.5 -15.5h1370q43 0 91.5 15.5t91.5 45t79.5 73.5t59.5 99l311 773h-266l-274 -682q-12 -29 -34 -46.5t-42 -17.5h-1200q-18 0 -23.5 17.5t6.5 46.5l275 682h-265l-311 -773q-23 -55 -21.5 -99zM1266 1329l143 -260h268l-116 260 h-295z" />
<glyph unicode="&#xfa;" d="M199.5 134q1.5 -44 21 -73.5t54 -45t77.5 -15.5h1370q43 0 91.5 15.5t91.5 45t79.5 73.5t59.5 99l311 773h-266l-274 -682q-12 -29 -34 -46.5t-42 -17.5h-1200q-18 0 -23.5 17.5t6.5 46.5l275 682h-265l-311 -773q-23 -55 -21.5 -99zM1264 1069h266l352 260h-295z" />
<glyph unicode="&#xfb;" d="M199.5 134q1.5 -44 21 -73.5t54 -45t77.5 -15.5h1370q43 0 91.5 15.5t91.5 45t79.5 73.5t59.5 99l311 773h-266l-274 -682q-12 -29 -34 -46.5t-42 -17.5h-1200q-18 0 -23.5 17.5t6.5 46.5l275 682h-265l-311 -773q-23 -55 -21.5 -99zM1075 1069h287l160 131l55 -131h287 l-105 260h-370z" />
<glyph unicode="&#xfc;" d="M199.5 134q1.5 -44 21 -73.5t54 -45t77.5 -15.5h1370q43 0 91.5 15.5t91.5 45t79.5 73.5t59.5 99l311 773h-266l-274 -682q-12 -29 -34 -46.5t-42 -17.5h-1200q-18 0 -23.5 17.5t6.5 46.5l275 682h-265l-311 -773q-23 -55 -21.5 -99zM1104 1069h264l105 260h-265z M1571 1069h264l104 260h-264z" />
<glyph unicode="&#xfd;" d="M351 511q1 -44 20.5 -73.5t54.5 -45t78 -15.5h551l-152 -377h266l152 377h553q43 0 91 15.5t91 45t80 73.5t59 99l160 396h-266l-123 -308q-10 -29 -31.5 -45t-42.5 -16h-1200q-18 0 -23 16.5t5 44.5l123 308h-265l-159 -396q-23 -55 -22 -99zM1264 1069h266l352 260 h-295z" />
<glyph unicode="&#xfe;" d="M127 0h264l78 193h1331q43 0 91 15t91 45t80 73t60 98l63 160q20 53 19.5 96t-20 72.5t-54.5 46t-78 16.5h-1331l72 178h-265zM571 449l45 108h1246q23 0 31 -8t-3 -35l-6 -18q-10 -27 -30.5 -37t-38.5 -10h-1244z" />
<glyph unicode="&#xff;" d="M351 511q1 -44 20.5 -73.5t54.5 -45t78 -15.5h551l-152 -377h266l152 377h553q43 0 91 15.5t91 45t80 73.5t59 99l160 396h-266l-123 -308q-10 -29 -31.5 -45t-42.5 -16h-1200q-18 0 -23 16.5t5 44.5l123 308h-265l-159 -396q-23 -55 -22 -99zM1104 1069h264l105 260 h-265zM1571 1069h264l104 260h-264z" />
<glyph unicode="&#x152;" horiz-adv-x="3500" d="M200.5 133q2.5 -43 22 -72.5t54 -45t79.5 -15.5h3064l105 256h-1567l45 113h1567l104 258h-1567l43 110h1567l105 256h-3064q-45 0 -92.5 -15t-91.5 -45t-80.5 -73t-59.5 -98l-213 -531q-23 -55 -20.5 -98zM519.5 273.5q-5.5 17.5 4.5 45.5l144 355q10 29 27.5 46 t45.5 17h1141l-192 -481h-1145q-20 0 -25.5 17.5z" />
<glyph unicode="&#x153;" horiz-adv-x="3500" d="M200.5 133q2.5 -43 22 -72.5t54 -45t79.5 -15.5h3064l105 256h-1567l45 113h1567l104 258h-1567l43 110h1567l105 256h-3064q-45 0 -92.5 -15t-91.5 -45t-80.5 -73t-59.5 -98l-213 -531q-23 -55 -20.5 -98zM519.5 273.5q-5.5 17.5 4.5 45.5l144 355q10 29 27.5 46 t45.5 17h1141l-192 -481h-1145q-20 0 -25.5 17.5z" />
<glyph unicode="&#x178;" d="M127 0h1597q45 0 92.5 15.5t90.5 45t78.5 73.5t58.5 99l311 773h-266l-147 -369h-1250q-18 0 -23 16.5t5 44.5l123 308h-265l-159 -396q-23 -55 -22 -99t20.5 -73.5t54.5 -45t78 -15.5h1331l-27 -68q-10 -27 -29.5 -38t-39.5 -11h-1508zM1104 1069h264l105 260h-265z M1571 1069h264l104 260h-264z" />
<glyph unicode="&#x2c6;" horiz-adv-x="899" d="M371 686h274l148 109l59 -109h272l-110 217h-355z" />
<glyph unicode="&#x2dc;" horiz-adv-x="1081" d="M330 686h280l148 109l59 -109h330l293 217h-281l-147 -110l-60 110h-329z" />
<glyph unicode="&#x2000;" horiz-adv-x="682" />
<glyph unicode="&#x2001;" horiz-adv-x="1365" />
<glyph unicode="&#x2002;" horiz-adv-x="682" />
<glyph unicode="&#x2003;" horiz-adv-x="1365" />
<glyph unicode="&#x2004;" horiz-adv-x="455" />
<glyph unicode="&#x2005;" horiz-adv-x="341" />
<glyph unicode="&#x2006;" horiz-adv-x="227" />
<glyph unicode="&#x2007;" horiz-adv-x="227" />
<glyph unicode="&#x2008;" horiz-adv-x="170" />
<glyph unicode="&#x2009;" horiz-adv-x="273" />
<glyph unicode="&#x200a;" horiz-adv-x="75" />
<glyph unicode="&#x2010;" horiz-adv-x="1259" d="M272 367h1059l107 260h-1059z" />
<glyph unicode="&#x2011;" horiz-adv-x="1259" d="M272 367h1059l107 260h-1059z" />
<glyph unicode="&#x2012;" horiz-adv-x="1259" d="M272 367h1059l107 260h-1059z" />
<glyph unicode="&#x2013;" horiz-adv-x="1259" d="M252 313h1059l88 217h-1059z" />
<glyph unicode="&#x2014;" horiz-adv-x="1648" d="M252 313h1446l88 217h-1446z" />
<glyph unicode="&#x2018;" horiz-adv-x="399" d="M324 535h219l155 385h-219z" />
<glyph unicode="&#x2019;" horiz-adv-x="399" d="M324 535h219l155 385h-219z" />
<glyph unicode="&#x201a;" horiz-adv-x="399" d="M49 -147h219l156 385h-219z" />
<glyph unicode="&#x201c;" horiz-adv-x="735" d="M336 535h248l155 385h-247zM627 535h250l155 385h-250z" />
<glyph unicode="&#x201d;" horiz-adv-x="735" d="M336 535h248l155 385h-247zM627 535h250l155 385h-250z" />
<glyph unicode="&#x201e;" horiz-adv-x="737" d="M61 -147h248l156 385h-248zM354 -147h250l156 385h-250z" />
<glyph unicode="&#x2022;" d="M200 133q-1 43 21 98l213 531q23 55 58.5 98t79.5 73t91.5 45t90.5 15h1370q43 0 77.5 -16t54 -46t20.5 -73t-19 -96l-213 -531q-23 -55 -59.5 -98t-79.5 -72.5t-91.5 -45t-91.5 -15.5h-1370q-43 0 -77.5 15.5t-54 45t-20.5 72.5z" />
<glyph unicode="&#x2026;" horiz-adv-x="1226" d="M125 0h258l88 217h-258zM508 0h258l88 217h-258zM891 0h260l88 217h-260z" />
<glyph unicode="&#x202f;" horiz-adv-x="273" />
<glyph unicode="&#x2039;" horiz-adv-x="395" d="M233 309l138 -198l110 274l-69 100l151 105l111 274l-297 -200z" />
<glyph unicode="&#x203a;" horiz-adv-x="395" d="M154 111l110 274l150 100l-68 105l111 274l137 -200l-143 -355z" />
<glyph unicode="&#x205f;" horiz-adv-x="341" />
<glyph unicode="&#x20ac;" horiz-adv-x="2256" d="M240 276h307l-19 -45q-23 -55 -21.5 -98t21 -72.5t54 -45t80.5 -15.5h1517l105 256h-1436q-27 0 -29 20h950l82 205h-958l12 31h959l82 205h-951q20 20 49 20h1432l104 256h-1517q-45 0 -92 -15t-91 -45t-80 -73t-59 -98l-18 -45h-307l-82 -205h307l-12 -31h-307z" />
<glyph unicode="&#x2122;" horiz-adv-x="729" d="M479 891l33 80h260l-4 -8q14 12 35 12l-19 -45q2 0 13.5 1t27 4t17.5 9q10 -16 12 -39v2v-55q0 4 6 10q2 4 4 7t8 8q14 12 22.5 21t18.5 17q18 18 30.5 29.5t23 17t20.5 7.5t27 2h33l-113 -275h-74l35 84q-25 -29 -41 -46t-26.5 -25.5t-17.5 -10.5t-13 -2h-6 q-12 0 -19.5 3t-7.5 24v63l-37 -90h-76l80 195h-78l-80 -195h-88l80 195h-86zM817 969h2v2zM819 969q27 -15 23 -25q-8 18 -23 25z" />
<glyph unicode="&#x25fc;" horiz-adv-x="993" d="M0 0v993h993v-993h-993z" />
</font>
</defs>
</svg>
